<?xml version="1.0" standalone="no"?>
<!DOCTYPE svg PUBLIC "-//W3C//DTD SVG 1.1//EN" "http://www.w3.org/Graphics/SVG/1.1/DTD/svg11.dtd" >
<svg xmlns="http://www.w3.org/2000/svg" xmlns:xlink="http://www.w3.org/1999/xlink" version="1.1">
<metadata>
Created by FontForge 20170731 at Tue Nov  8 11:12:50 2022
 By Aleksey,,,
(c) 2022 grinfleim
</metadata>
<defs>
<font id="BOWLER-Regular" horiz-adv-x="801" >
  <font-face 
    font-family="BOWLER"
    font-weight="400"
    font-stretch="normal"
    units-per-em="1000"
    panose-1="0 0 0 0 0 0 0 0 0 0"
    ascent="750"
    descent="-250"
    x-height="700"
    cap-height="700"
    bbox="0 -218 1280 913"
    underline-thickness="50"
    underline-position="-225"
    unicode-range="U+000D-2122"
  />
<missing-glyph horiz-adv-x="250" 
 />
    <glyph glyph-name=".notdef" horiz-adv-x="250" 
 />
    <glyph glyph-name="uni0000" horiz-adv-x="0" 
 />
    <glyph glyph-name="uni0000" horiz-adv-x="0" 
 />
    <glyph glyph-name="uni000D" unicode="&#xd;" horiz-adv-x="333" 
 />
    <glyph glyph-name="space" unicode=" " horiz-adv-x="250" 
 />
    <glyph glyph-name="exclam" unicode="!" horiz-adv-x="240" 
d="M50 677q0 10 6.5 16.5t16.5 6.5h94q9 0 16 -6.5t7 -16.5v-444q0 -10 -7 -16.5t-16 -6.5h-94q-10 0 -16.5 6.5t-6.5 16.5v444zM50 117q0 9 6.5 16t16.5 7h94q9 0 16 -7t7 -16v-94q0 -10 -7 -16.5t-16 -6.5h-94q-10 0 -16.5 6.5t-6.5 16.5v94z" />
    <glyph glyph-name="quotedbl" unicode="&#x22;" horiz-adv-x="449" 
d="M50 370v307q0 10 7 16.5t17 6.5h92q10 0 17 -6.5t7 -16.5v-307q0 -9 -7 -16t-17 -7h-92q-10 0 -17 7t-7 16zM259 370v307q0 10 6.5 16.5t16.5 6.5h93q10 0 16.5 -6.5t6.5 -16.5v-307q0 -9 -6.5 -16t-16.5 -7h-93q-10 0 -16.5 7t-6.5 16z" />
    <glyph glyph-name="numbersign" unicode="#" horiz-adv-x="800" 
d="M470 420h-140v-140h140v140zM190 23v117h-117q-10 0 -16.5 7t-6.5 16v94q0 10 6.5 16.5t16.5 6.5h117v140h-117q-10 0 -16.5 6.5t-6.5 16.5v94q0 9 6.5 16t16.5 7h117v117q0 10 6.5 16.5t16.5 6.5h93q10 0 17 -6.5t7 -16.5v-117h140v117q0 10 6.5 16.5t16.5 6.5h93
q10 0 17 -6.5t7 -16.5v-117h117q10 0 16.5 -7t6.5 -16v-94q0 -10 -6.5 -16.5t-16.5 -6.5h-117v-140h117q10 0 16.5 -6.5t6.5 -16.5v-94q0 -9 -6.5 -16t-16.5 -7h-117v-117q0 -10 -7 -16.5t-17 -6.5h-93q-10 0 -16.5 6.5t-6.5 16.5v117h-140v-117q0 -10 -7 -16.5t-17 -6.5
h-93q-10 0 -16.5 6.5t-6.5 16.5z" />
    <glyph glyph-name="dollar" unicode="$" horiz-adv-x="782" 
d="M572 273h-113v-136h113q10 0 16.5 6.5t6.5 16.5v90q0 10 -6.5 16.5t-16.5 6.5zM323 546h-114q-10 0 -16.5 -7t-6.5 -16v-91q0 -10 6.5 -16.5t16.5 -6.5h114v137zM322 682v45q1 10 7.5 16.5t15.5 6.5h91q10 0 16.5 -6.5t6.5 -16.5v-45h136q57 0 97 -40t39 -97v-45
q0 -9 -6.5 -16t-15.5 -7h-91q-10 0 -16.5 7t-6.5 16v23q0 9 -6.5 16t-16.5 7h-113v-137h136q57 0 97 -40t40 -97q0 -23 -0.5 -67.5t-0.5 -67.5q0 -56 -39.5 -96t-96.5 -40q-91 0 -136 -1v-45q0 -9 -6.5 -15.5t-16.5 -6.5h-91q-9 0 -16 6.5t-7 15.5v46h-136q-56 0 -96 40
t-40 96v45q0 10 6.5 16.5t16.5 6.5h91q9 0 15.5 -6.5t6.5 -16.5v-22q0 -10 6.5 -16.5t16.5 -6.5h106q8 0 8 8v128h-137q-56 0 -96 40t-40 96v137q0 56 40 96t96 40h136z" />
    <glyph glyph-name="percent" unicode="%" horiz-adv-x="940" 
d="M190 700h70q58 0 99 -41t41 -99v-70q0 -58 -41 -99t-99 -41h-70q-58 0 -99 41t-41 99v70q0 58 41 99t99 41zM143 0q-10 0 -12.5 6t3.5 13q330 441 497 662q14 19 37 19h128q10 0 12.5 -6t-2.5 -13q-371 -493 -497 -662q-15 -19 -38 -19h-128zM213 560q-10 0 -16.5 -6.5
t-6.5 -16.5v-24q0 -10 6.5 -16.5t16.5 -6.5h24q10 0 16.5 6.5t6.5 16.5v24q0 10 -6.5 16.5t-16.5 6.5h-24zM680 350h70q58 0 99 -41t41 -99v-70q0 -58 -41 -99t-99 -41h-70q-58 0 -99 41t-41 99v70q0 58 41 99t99 41zM703 210q-10 0 -16.5 -6.5t-6.5 -16.5v-24
q0 -10 6.5 -16.5t16.5 -6.5h24q9 0 16 6.5t7 16.5v24q0 10 -7 16.5t-16 6.5h-24z" />
    <glyph glyph-name="ampersand" unicode="&#x26;" horiz-adv-x="853" 
d="M371 283h-159q-10 0 -16.5 -6.5t-6.5 -16.5v-92q0 -10 6.5 -17t16.5 -7h320zM583 561h-297q-6 0 -8 -6q-4 -5 2 -9l143 -124h137q30 0 38 7t8 39v70q0 10 -7 16.5t-16 6.5zM105 700h501q58 0 98.5 -40.5t40.5 -98.5v-116q0 -33 -2 -46q-7 -43 -39 -75t-75 -39
q-13 -2 -45 -2l55 -47l94 81q18 16 40 16h19q10 0 10 -10v-119q0 -10 -7 -17l-50 -43l50 -43q3 -3 3 -7q0 -3 -3 -6l-84 -85q-7 -7 -15 0q-45 39 -57 49l-37 -32q-19 -15 -41 -15h-372q-58 0 -98.5 41t-40.5 98v139q0 57 40 98t97 41q7 0 8 6q4 5 -2 9l-125 109
q-18 14 -18 38v61q0 23 16 39t39 16z" />
    <glyph glyph-name="quotesingle" unicode="'" horiz-adv-x="241" 
d="M190 375q0 -10 -7 -16.5t-16 -6.5h-93q-10 0 -17 6.5t-7 16.5v306q0 9 7 16t17 7h93q9 0 16 -7t7 -16v-306z" />
    <glyph glyph-name="parenleft" unicode="(" horiz-adv-x="322" 
d="M50 -77v849q0 58 41.5 99t100.5 41h57q10 0 16.5 -7t6.5 -17v-93q0 -10 -6.5 -16.5t-16.5 -6.5h-36q-10 0 -16.5 -7t-6.5 -17v-802q0 -10 6.5 -16.5t16.5 -6.5h36q10 0 16.5 -7t6.5 -17v-93q0 -9 -6.5 -16t-16.5 -7h-57q-59 0 -100.5 41t-41.5 99z" />
    <glyph glyph-name="parenright" unicode=")" horiz-adv-x="322" 
d="M272 772v-849q0 -58 -41.5 -99t-100.5 -41h-57q-10 0 -16.5 7t-6.5 16v93q0 10 6.5 17t16.5 7h36q10 0 16.5 6.5t6.5 16.5v802q0 10 -6.5 17t-16.5 7h-36q-10 0 -16.5 6.5t-6.5 16.5v93q0 10 6.5 17t16.5 7h57q59 0 100.5 -41t41.5 -99z" />
    <glyph glyph-name="asterisk" unicode="*" horiz-adv-x="650" 
d="M423 889l80 -46q8 -5 11 -14t-3 -18l-66 -111h130q10 0 17 -7t7 -16v-94q-1 -9 -7.5 -16t-15.5 -7h-130l67 -112q4 -7 1 -17q-1 -7 -10 -14l-81 -48q-5 -3 -11 -3q-14 0 -21 12l-65 112l-64 -112q-7 -10 -22 -10q-4 0 -10 2l-81 47q-20 11 -9 31l65 113l-130 -1
q-10 0 -17 7t-7 16l1 92q0 11 7 18t16 7h130l-66 111q-4 7 -2 17q6 12 10 15l81 46q8 4 13 4q13 0 19 -11l65 -113l65 113q6 11 20 11q5 0 13 -4z" />
    <glyph glyph-name="plus" unicode="+" horiz-adv-x="538" 
d="M200 160v129h-131q-8 0 -13.5 7t-5.5 17v92q0 10 5.5 17t13.5 7h131v133q0 7 7 12.5t17 5.5h92q10 0 17 -5.5t7 -12.5v-133h130q18 0 18 -24v-92q0 -24 -18 -24h-130v-129q0 -7 -7 -12.5t-17 -5.5h-92q-10 0 -17 5.5t-7 12.5z" />
    <glyph glyph-name="comma" unicode="," horiz-adv-x="240" 
d="M50 116q0 10 6.5 17t16.5 7h94q10 0 16.5 -7t6.5 -17v-93q0 -23 -21 -34l-119 -59v186z" />
    <glyph glyph-name="hyphen" unicode="-" horiz-adv-x="449" 
d="M73 289q-9 0 -16 6.5t-7 16.5v94q0 10 7 16.5t16 6.5h302q10 0 16.5 -6.5t6.5 -16.5v-94q0 -10 -6.5 -16.5t-16.5 -6.5h-302z" />
    <glyph glyph-name="period" unicode="." horiz-adv-x="240" 
d="M50 23v94q0 10 6.5 16.5t16.5 6.5h94q10 0 16.5 -6.5t6.5 -16.5v-94q0 -10 -6.5 -16.5t-16.5 -6.5h-94q-10 0 -16.5 6.5t-6.5 16.5z" />
    <glyph glyph-name="slash" unicode="/" horiz-adv-x="726" 
d="M513 721q13 25 42 25h105q8 0 13 -9q5 -8 0 -16l-459 -795q-15 -24 -42 -24h-105q-8 0 -14 8q-5 8 0 16z" />
    <glyph glyph-name="zero" unicode="0" horiz-adv-x="800" 
d="M50 140v420q0 58 41 99t99 41h420q58 0 99 -41t41 -99v-420q0 -58 -41 -99t-99 -41h-420q-58 0 -99 41t-41 99zM213 140h374q10 0 16.5 6.5t6.5 16.5v374q0 10 -6.5 16.5t-16.5 6.5h-374q-10 0 -16.5 -6.5t-6.5 -16.5v-374q0 -10 6.5 -16.5t16.5 -6.5z" />
    <glyph glyph-name="one" unicode="1" horiz-adv-x="439" 
d="M234 681q14 19 38 19h93q10 0 16.5 -6.5t6.5 -16.5v-654q0 -10 -6.5 -16.5t-16.5 -6.5h-93q-10 0 -17 6.5t-7 16.5v444l-21 -28q-13 -19 -37 -19h-128q-8 0 -11 6t1 13z" />
    <glyph glyph-name="two" unicode="2" 
d="M50 560q0 58 41 99t99 41h420q58 0 99 -41t41 -99v-176q0 -47 -26 -86.5t-70 -57.5l-220 -91q-1 0 -2 -1q0 -6 3 -8h292q10 0 16.5 -6.5t6.5 -16.5v-94q0 -10 -6.5 -16.5t-16.5 -6.5h-654q-10 0 -16.5 6.5t-6.5 16.5v94q0 24 22 32l516 215q22 9 22 33v140
q0 10 -6.5 16.5t-16.5 6.5h-374q-10 0 -16.5 -6.5t-6.5 -16.5v-94q0 -10 -6.5 -16.5t-16.5 -6.5h-94q-10 0 -16.5 6.5t-6.5 16.5v117z" />
    <glyph glyph-name="three" unicode="3" 
d="M50 560q0 58 41 99t99 41h420q58 0 99 -41t41 -99v-91q0 -20 -10.5 -45t-24.5 -39l-35 -35q17 -18 35 -35q14 -14 24.5 -39t10.5 -45v-91q0 -58 -41 -99t-99 -41h-420q-58 0 -99 41t-41 99v47q0 10 6.5 16.5t16.5 6.5h94q10 0 16.5 -6.5t6.5 -16.5v-24q0 -10 6.5 -16.5
t16.5 -6.5h374q10 0 16.5 6.5t6.5 16.5v94q0 10 -6.5 16.5t-16.5 6.5h-304q-10 0 -16.5 6.5t-6.5 16.5v94q0 10 6.5 16.5t16.5 6.5h304q10 0 16.5 6.5t6.5 16.5v94q0 10 -6.5 16.5t-16.5 6.5h-374q-10 0 -16.5 -6.5t-6.5 -16.5v-24q0 -10 -6.5 -16.5t-16.5 -6.5h-94
q-10 0 -16.5 6.5t-6.5 16.5v47z" />
    <glyph glyph-name="four" unicode="4" horiz-adv-x="759" 
d="M201 678q3 9 12 15.5t19 6.5h102q9 0 14 -7q4 -5 2 -15l-135 -376q-3 -8 2 -15t13 -7h315q10 0 16.5 6.5t6.5 16.5v374q0 10 7 16.5t16 6.5h94q10 0 16.5 -6.5t6.5 -16.5v-654q0 -10 -6.5 -16.5t-16.5 -6.5h-94q-9 0 -16 6.5t-7 16.5v94q0 10 -6.5 16.5t-16.5 6.5h-388
q-61 0 -90 41t-9 99q24 67 71.5 199.5t71.5 198.5z" />
    <glyph glyph-name="five" unicode="5" 
d="M50 676q0 10 7 17t17 7h653q10 0 16.5 -6.5t6.5 -16.5v-94q0 -10 -6.5 -16.5t-16.5 -6.5h-514q-10 0 -16 -7q-7 -7 -7 -16v-94q0 -10 7 -16.5t17 -6.5h396q58 0 99.5 -41t41.5 -99v-140q0 -58 -41.5 -99t-99.5 -41h-420q-58 0 -99 41t-41 99v47q0 10 7 16.5t17 6.5h93
q10 0 16.5 -6.5t6.5 -16.5v-24q0 -10 7 -16.5t17 -6.5h373q10 0 17 6.5t7 16.5v94q0 10 -7 16.5t-17 6.5h-397q-58 0 -99 41t-41 99v256z" />
    <glyph glyph-name="six" unicode="6" 
d="M587 420h-374q-10 0 -16.5 -6.5t-6.5 -16.5v-234q0 -10 6.5 -16.5t16.5 -6.5h374q10 0 16.5 6.5t6.5 16.5v234q0 10 -6.5 16.5t-16.5 6.5zM64 579l77 102q14 19 37 19h129q7 0 10 -6q3 -7 -1 -13l-77 -102q-5 -6 -1 -13q3 -6 10 -6h362q58 0 99 -41t41 -99v-280
q0 -58 -41 -99t-99 -41h-420q-58 0 -99 41t-41 99v397q0 23 14 42z" />
    <glyph glyph-name="seven" unicode="7" 
d="M50 677q0 10 6.5 16.5t16.5 6.5h654q10 0 16.5 -6.5t6.5 -16.5v-94q0 -23 -15 -41l-421 -524q-15 -18 -38 -18h-133q-7 0 -10 6q-3 7 2 12l421 524q4 6 1 12t-10 6h-474q-10 0 -16.5 6.5t-6.5 16.5v94z" />
    <glyph glyph-name="eight" unicode="8" 
d="M213 140h374q10 0 16.5 6.5t6.5 16.5v94q0 10 -6.5 16.5t-16.5 6.5h-374q-10 0 -16.5 -6.5t-6.5 -16.5v-94q0 -10 6.5 -16.5t16.5 -6.5zM213 420h374q10 0 16.5 6.5t6.5 16.5v94q0 10 -6.5 16.5t-16.5 6.5h-374q-10 0 -16.5 -6.5t-6.5 -16.5v-94q0 -10 6.5 -16.5
t16.5 -6.5zM50 140v91q0 20 10.5 44.5t24.5 39.5l35 35l-35 35q-14 14 -24.5 39t-10.5 45v91q0 58 41 99t99 41h420q58 0 99 -41t41 -99v-91q0 -20 -10.5 -44.5t-24.5 -39.5l-35 -35l35 -35q14 -14 24.5 -39t10.5 -45v-91q0 -58 -41 -99t-99 -41h-420q-58 0 -99 41t-41 99z
" />
    <glyph glyph-name="nine" unicode="9" 
d="M213 280h374q10 0 16.5 6.5t6.5 16.5v234q0 10 -6.5 16.5t-16.5 6.5h-374q-10 0 -16.5 -6.5t-6.5 -16.5v-234q0 -10 6.5 -16.5t16.5 -6.5zM736 121l-77 -102q-14 -19 -37 -19h-129q-7 0 -10 6q-3 7 1 13l77 102q5 6 1 13q-3 6 -10 6h-362q-58 0 -99 41t-41 99v280
q0 58 41 99t99 41h420q58 0 99 -41t41 -99v-397q0 -23 -14 -42z" />
    <glyph glyph-name="colon" unicode=":" horiz-adv-x="240" 
d="M50 583v94q0 10 6.5 16.5t16.5 6.5h94q10 0 16.5 -6.5t6.5 -16.5v-94q0 -10 -6.5 -16.5t-16.5 -6.5h-94q-10 0 -16.5 6.5t-6.5 16.5zM50 23v94q0 10 6.5 16.5t16.5 6.5h94q10 0 16.5 -6.5t6.5 -16.5v-94q0 -10 -6.5 -16.5t-16.5 -6.5h-94q-10 0 -16.5 6.5t-6.5 16.5z" />
    <glyph glyph-name="semicolon" unicode=";" horiz-adv-x="240" 
d="M50 677q0 10 6.5 16.5t16.5 6.5h94q10 0 16.5 -6.5t6.5 -16.5v-94q0 -10 -6.5 -16.5t-16.5 -6.5h-94q-10 0 -16.5 6.5t-6.5 16.5v94zM50 116q0 10 6.5 17t16.5 7h94q10 0 16.5 -7t6.5 -17v-93q0 -23 -21 -34l-119 -59v186z" />
    <glyph glyph-name="less" unicode="&#x3c;" horiz-adv-x="431" 
d="M275 112l-108.5 108.5t-109.5 108.5q-16 17 0 33q145 145 219 218q6 7 15 7t16 -7l65 -65q17 -17 1 -34l-135 -136l134 -134q18 -17 1 -34l-66 -65q-6 -7 -16 -7q-9 0 -16 7z" />
    <glyph glyph-name="equal" unicode="=" horiz-adv-x="596" 
d="M50 420v94q0 10 6.5 16.5t16.5 6.5h450q10 0 16.5 -6.5t6.5 -16.5v-94q0 -10 -6.5 -16.5t-16.5 -6.5h-450q-10 0 -16.5 6.5t-6.5 16.5zM50 179v94q0 10 6.5 16.5t16.5 6.5h450q10 0 16.5 -6.5t6.5 -16.5v-94q0 -10 -6.5 -16.5t-16.5 -6.5h-450q-10 0 -16.5 6.5t-6.5 16.5
z" />
    <glyph glyph-name="greater" unicode="&#x3e;" horiz-adv-x="431" 
d="M374 329l-218 -218q-7 -7 -16 -7q-7 0 -16 7l-66 66q-16 17 0 33l135 135l-135 136q-16 17 0 33l66 66q7 7 16 7q10 0 16 -7l218 -218q16 -16 0 -33z" />
    <glyph glyph-name="question" unicode="?" horiz-adv-x="800" 
d="M50 559q0 58 41 99.5t99 41.5h419q58 0 99.5 -41t41.5 -99v-139q0 -59 -41 -100t-100 -41h-116q-10 0 -16.5 -6.5t-6.5 -16.5v-24q0 -9 -7 -16t-16 -7h-94q-10 0 -16.5 7t-6.5 16v47q0 58 41 99t99 41h116q11 0 17 7q7 7 7 16v94q0 10 -7 16.5t-17 6.5h-373
q-9 0 -16 -6.5t-7 -16.5v-94q0 -10 -6.5 -16.5t-16.5 -6.5h-93q-10 0 -17 6.5t-7 16.5v116zM330 117q0 9 6.5 16t16.5 7h94q9 0 16 -7t7 -16v-94q0 -10 -7 -16.5t-16 -6.5h-94q-10 0 -16.5 6.5t-6.5 16.5v94z" />
    <glyph glyph-name="at" unicode="@" horiz-adv-x="942" 
d="M518 425h-93q-10 0 -17 -6.5t-7 -15.5v-94q0 -10 7 -17t17 -7h93q10 0 16.5 7t6.5 17v94q0 9 -6.5 15.5t-16.5 6.5zM51 285v141q0 145 102.5 247.5t247.5 102.5h140q145 0 248 -103t103 -248v-140q0 -58 -41 -99t-99 -41t-175 0.5t-176 0.5q-58 0 -99.5 41t-41.5 98v140
q0 59 41.5 100.5t99.5 41.5h140q58 0 99 -41.5t41 -100.5v-116q0 -10 7 -17t17 -7h24q10 0 16.5 7t6.5 17v116q0 88 -62 149.5t-149 61.5h-140q-87 0 -148.5 -61.5t-61.5 -148.5v-141q0 -86 61.5 -148t148.5 -62h397q10 0 17 -6.5t7 -16.5v-94q0 -10 -7 -16.5t-17 -6.5h-397
q-145 0 -247.5 102.5t-102.5 247.5z" />
    <glyph glyph-name="A" unicode="A" horiz-adv-x="800" 
d="M587 560h-374q-10 0 -16.5 -6.5t-6.5 -16.5v-234q0 -10 6.5 -16.5t16.5 -6.5h374q10 0 16.5 6.5t6.5 16.5v234q0 10 -6.5 16.5t-16.5 6.5zM50 23v537q0 58 41 99t99 41h420q58 0 99 -41t41 -99v-537q0 -10 -6.5 -16.5t-16.5 -6.5h-94q-10 0 -16.5 6.5t-6.5 16.5v94
q0 10 -6.5 16.5t-16.5 6.5h-374q-10 0 -16.5 -6.5t-6.5 -16.5v-94q0 -10 -6.5 -16.5t-16.5 -6.5h-94q-10 0 -16.5 6.5t-6.5 16.5z" />
    <glyph glyph-name="B" unicode="B" 
d="M213 140h374q10 0 16.5 6.5t6.5 16.5v94q0 10 -6.5 16.5t-16.5 6.5h-374q-10 0 -16.5 -6.5t-6.5 -16.5v-94q0 -10 6.5 -16.5t16.5 -6.5zM213 420h374q10 0 16.5 6.5t6.5 16.5v94q0 10 -6.5 16.5t-16.5 6.5h-374q-10 0 -16.5 -6.5t-6.5 -16.5v-94q0 -10 6.5 -16.5
t16.5 -6.5zM50 140v420q0 58 41 99t99 41h420q58 0 99 -41t41 -99v-90q0 -50 -35 -85l-35 -35l35 -35q35 -35 35 -85v-90q0 -58 -41 -99t-99 -41h-420q-58 0 -99 41t-41 99z" />
    <glyph glyph-name="C" unicode="C" horiz-adv-x="731" 
d="M50 140v420q0 58 41 99t99 41h467q10 0 16.5 -6.5t6.5 -16.5v-94q0 -10 -6.5 -16.5t-16.5 -6.5h-444q-10 0 -16.5 -6.5t-6.5 -16.5v-374q0 -10 6.5 -16.5t16.5 -6.5h444q10 0 16.5 -6.5t6.5 -16.5v-94q0 -10 -6.5 -16.5t-16.5 -6.5h-467q-58 0 -99 41t-41 99z" />
    <glyph glyph-name="D" unicode="D" 
d="M50 677q0 10 6.5 16.5t16.5 6.5h537q58 0 99 -41t41 -99v-420q0 -58 -41 -99t-99 -41h-537q-10 0 -16.5 6.5t-6.5 16.5v654zM213 560q-10 0 -16.5 -6.5t-6.5 -16.5v-374q0 -10 6.5 -16.5t16.5 -6.5h374q10 0 16.5 6.5t6.5 16.5v374q0 10 -6.5 16.5t-16.5 6.5h-374z" />
    <glyph glyph-name="E" unicode="E" horiz-adv-x="731" 
d="M50 140v420q0 58 41 99t99 41h467q10 0 16.5 -6.5t6.5 -16.5v-94q0 -10 -6.5 -16.5t-16.5 -6.5h-444q-10 0 -16.5 -6.5t-6.5 -16.5v-94q0 -10 6.5 -16.5t16.5 -6.5h444q10 0 16.5 -6.5t6.5 -16.5v-94q0 -10 -6.5 -16.5t-16.5 -6.5h-444q-10 0 -16.5 -6.5t-6.5 -16.5v-94
q0 -10 6.5 -16.5t16.5 -6.5h444q10 0 16.5 -6.5t6.5 -16.5v-94q0 -10 -6.5 -16.5t-16.5 -6.5h-467q-58 0 -99 41t-41 99z" />
    <glyph glyph-name="F" unicode="F" horiz-adv-x="730" 
d="M50 560q0 58 41 99t99 41h467q10 0 16.5 -6.5t6.5 -16.5v-94q0 -10 -6.5 -16.5t-16.5 -6.5h-444q-10 0 -16.5 -6.5t-6.5 -16.5v-94q0 -10 6.5 -16.5t16.5 -6.5h374q10 0 16.5 -6.5t6.5 -16.5v-94q0 -10 -6.5 -16.5t-16.5 -6.5h-374q-10 0 -16.5 -6.5t-6.5 -16.5v-234
q0 -10 -6.5 -16.5t-16.5 -6.5h-94q-10 0 -16.5 6.5t-6.5 16.5v537z" />
    <glyph glyph-name="G" unicode="G" 
d="M50 560q0 58 41 99t99 41h467q10 0 16.5 -6.5t6.5 -16.5v-94q0 -10 -6.5 -16.5t-16.5 -6.5h-444q-10 0 -16.5 -6.5t-6.5 -16.5v-374q0 -10 6.5 -16.5t16.5 -6.5h374q10 0 16.5 6.5t6.5 16.5v94q0 10 -6.5 16.5t-16.5 6.5h-234q-10 0 -16.5 6.5t-6.5 16.5v94
q0 10 6.5 16.5t16.5 6.5h257q58 0 99 -41t41 -99v-140q0 -58 -41 -99t-99 -41h-420q-58 0 -99 41t-41 99v420z" />
    <glyph glyph-name="H" unicode="H" 
d="M50 24v654q0 10 6.5 16.5t16.5 6.5h94q10 0 16.5 -6.5t6.5 -16.5v-234q0 -10 6.5 -16.5t16.5 -6.5h374q10 0 16.5 6.5t6.5 16.5v234q0 10 6.5 16.5t16.5 6.5h94q10 0 16.5 -6.5t6.5 -16.5v-654q0 -10 -6.5 -16.5t-16.5 -6.5h-94q-10 0 -16.5 6.5t-6.5 16.5v234
q0 10 -6.5 16.5t-16.5 6.5h-374q-10 0 -16.5 -6.5t-6.5 -16.5v-234q0 -10 -6.5 -16.5t-16.5 -6.5h-94q-10 0 -16.5 6.5t-6.5 16.5z" />
    <glyph glyph-name="I" unicode="I" horiz-adv-x="240" 
d="M190 23q0 -10 -6.5 -16.5t-16.5 -6.5h-94q-10 0 -16.5 6.5t-6.5 16.5v654q0 10 6.5 16.5t16.5 6.5h94q10 0 16.5 -6.5t6.5 -16.5v-654z" />
    <glyph glyph-name="J" unicode="J" 
d="M610 677q0 10 6.5 16.5t16.5 6.5h94q10 0 16.5 -6.5t6.5 -16.5v-537q0 -58 -41 -99t-99 -41h-420q-58 0 -99 41t-41 99v187q0 10 6.5 16.5t16.5 6.5h94q10 0 16.5 -6.5t6.5 -16.5v-164q0 -10 6.5 -16.5t16.5 -6.5h374q10 0 16.5 6.5t6.5 16.5v514z" />
    <glyph glyph-name="K" unicode="K" horiz-adv-x="788" 
d="M50 23v654q0 10 6.5 16.5t16.5 6.5h94q10 0 16.5 -6.5t6.5 -16.5v-234q0 -10 6.5 -16.5t16.5 -6.5h87q24 0 38 18l212 244q14 18 38 18h139q7 0 9 -6q2 -5 -1 -12l-272 -314q-16 -18 0 -36l272 -314q3 -7 1 -12q-2 -6 -9 -6h-139q-24 0 -38 18l-212 244q-14 18 -38 18
h-87q-10 0 -16.5 -6.5t-6.5 -16.5v-234q0 -10 -6.5 -16.5t-16.5 -6.5h-94q-10 0 -16.5 6.5t-6.5 16.5z" />
    <glyph glyph-name="L" unicode="L" horiz-adv-x="731" 
d="M50 140v537q0 10 6.5 16.5t16.5 6.5h94q10 0 16.5 -6.5t6.5 -16.5v-514q0 -10 6.5 -16.5t16.5 -6.5h444q10 0 16.5 -6.5t6.5 -16.5v-94q0 -10 -6.5 -16.5t-16.5 -6.5h-467q-58 0 -99 41t-41 99z" />
    <glyph glyph-name="M" unicode="M" horiz-adv-x="1080" 
d="M50 677q0 10 6.5 16.5t16.5 6.5h94q25 0 38 -18l335 -387q111 129 335 387q14 18 38 18h94q10 0 16.5 -6.5t6.5 -16.5v-654q0 -10 -7 -16.5t-16 -6.5h-94q-10 0 -16.5 6.5t-6.5 16.5v440q0 9 -4.5 10.5t-10.5 -5.5q-90 -103 -320 -370q-7 -7 -15 -7t-15 7
q-230 267 -320 370q-6 7 -10.5 5.5t-4.5 -11.5v-439q0 -10 -6.5 -16.5t-16.5 -6.5h-93q-10 0 -17 6.5t-7 16.5v654z" />
    <glyph glyph-name="N" unicode="N" horiz-adv-x="800" 
d="M50 23v654q0 9 7 16t17 7h93q23 0 39 -18l389 -450q4 -4 10 -3q5 2 5 8v440q0 9 7 16t16 7h94q10 0 16.5 -7t6.5 -16v-654q0 -9 -6.5 -16t-16.5 -7h-94q-24 0 -38 18q-140 160 -389 450q-7 7 -11.5 5.5t-4.5 -11.5v-439q0 -9 -6.5 -16t-16.5 -7h-93q-10 0 -17 7t-7 16z
" />
    <glyph glyph-name="O" unicode="O" horiz-adv-x="800" 
d="M50 140v420q0 58 41 99t99 41h420q58 0 99 -41t41 -99v-420q0 -58 -41 -99t-99 -41h-420q-58 0 -99 41t-41 99zM213 140h374q10 0 16.5 6.5t6.5 16.5v374q0 10 -6.5 16.5t-16.5 6.5h-374q-10 0 -16.5 -6.5t-6.5 -16.5v-374q0 -10 6.5 -16.5t16.5 -6.5z" />
    <glyph glyph-name="P" unicode="P" 
d="M587 560h-374q-10 0 -16.5 -6.5t-6.5 -16.5v-234q0 -10 6.5 -16.5t16.5 -6.5h374q10 0 16.5 6.5t6.5 16.5v234q0 10 -6.5 16.5t-16.5 6.5zM50 23v537q0 58 41 99t99 41h420q58 0 99 -41t41 -99v-280q0 -58 -41 -99t-99 -41h-397q-10 0 -16.5 -6.5t-6.5 -16.5v-94
q0 -10 -6.5 -16.5t-16.5 -6.5h-94q-10 0 -16.5 6.5t-6.5 16.5z" />
    <glyph glyph-name="Q" unicode="Q" 
d="M586 560h-373q-9 0 -16 -7t-7 -16v-374q0 -10 7 -16.5t16 -6.5h373q10 0 17 6.5t7 16.5v374q0 9 -7 16t-17 7zM50 140v420q0 58 41 99t99 41h420q58 0 98.5 -41t40.5 -99v-467q0 -9 7 -16t17 -7h23q10 0 17 -6.5t7 -16.5v-94q0 -10 -7 -16.5t-17 -6.5h-93
q-10 0 -16.5 6.5t-6.5 16.5v23q0 10 -7 17t-16 7h-467q-58 0 -99 41t-41 99z" />
    <glyph glyph-name="R" unicode="R" 
d="M587 560h-374q-10 0 -16.5 -6.5t-6.5 -16.5v-234q0 -10 6.5 -16.5t16.5 -6.5h374q10 0 16.5 6.5t6.5 16.5v234q0 10 -6.5 16.5t-16.5 6.5zM750 560v-280q0 -58 -41 -99t-99 -41h-47q-6 0 -9 -6q-2 -6 2 -10l108 -107q3 -5 2 -11q-3 -6 -9 -6h-152q-24 0 -39 17l-107 107
q-18 16 -40 16h-106q-10 0 -16.5 -6.5t-6.5 -16.5v-94q0 -10 -6.5 -16.5t-16.5 -6.5h-94q-10 0 -16.5 6.5t-6.5 16.5v537q0 58 41 99t99 41h420q58 0 99 -41t41 -99z" />
    <glyph glyph-name="S" unicode="S" horiz-adv-x="799" 
d="M50 560q0 58 41 99t99 41h466q10 0 17 -7t7 -16v-94q0 -10 -7 -16.5t-17 -6.5h-443q-10 0 -16.5 -7t-6.5 -16v-93q0 -10 6.5 -17t16.5 -7h397q58 0 98.5 -41t40.5 -99v-140q0 -58 -40.5 -99t-98.5 -41q-77 0 -263 0.5t-274 0.5q-10 0 -16.5 6.5t-6.5 16.5v93
q0 10 6.5 16.5t16.5 6.5h513q10 0 17 7t7 17v93q0 9 -7 16t-17 7h-396q-58 0 -99 41t-41 99v140z" />
    <glyph glyph-name="T" unicode="T" 
d="M50 677q0 10 6.5 16.5t16.5 6.5h654q10 0 16.5 -6.5t6.5 -16.5v-94q0 -10 -6.5 -16.5t-16.5 -6.5h-234q-10 0 -16.5 -6.5t-6.5 -16.5v-514q0 -10 -6.5 -16.5t-16.5 -6.5h-94q-10 0 -16.5 6.5t-6.5 16.5v514q0 10 -6.5 16.5t-16.5 6.5h-234q-10 0 -16.5 6.5t-6.5 16.5v94z
" />
    <glyph glyph-name="U" unicode="U" 
d="M50 140v537q0 10 6.5 16.5t16.5 6.5h94q10 0 16.5 -6.5t6.5 -16.5v-514q0 -10 6.5 -16.5t16.5 -6.5h374q10 0 16.5 6.5t6.5 16.5v514q0 10 6.5 16.5t16.5 6.5h94q10 0 16.5 -6.5t6.5 -16.5v-537q0 -58 -41 -99t-99 -41h-420q-58 0 -99 41t-41 99z" />
    <glyph glyph-name="V" unicode="V" horiz-adv-x="800" 
d="M51 677q-3 10 3 16q5 7 14 7h100q23 0 30 -23l140 -514q7 -23 30 -23h64q23 0 30 23l140 514q7 23 30 23h100q9 0 14 -7q6 -6 3 -16l-178 -654q-5 -23 -30 -23h-282q-25 0 -30 23z" />
    <glyph glyph-name="W" unicode="W" horiz-adv-x="1070" 
d="M51 677q-3 9 3 16q5 7 14 7h98q23 0 30 -23l137 -514q7 -23 30 -23h63q23 0 30 23v1q6 23 0 45l-125 468q-3 10 3 16q5 7 14 7h98q23 0 30 -23l59 -220l59 220q5 23 29 23h98q9 0 14 -7q6 -6 3 -16l-125 -468q-6 -22 0 -45v-1q7 -23 30 -23h63q23 0 30 23l138 514
q5 23 29 23h98q9 0 14 -7q6 -6 3 -16l-175 -654q-2 -10 -10.5 -16.5t-18.5 -6.5h-160q-20 0 -45 10.5t-39 24.5l-35 35q-12 -11 -36 -35q-14 -14 -38.5 -24.5t-44.5 -10.5h-161q-22 0 -29 23z" />
    <glyph glyph-name="X" unicode="X" horiz-adv-x="780" 
d="M54 19l234 312q14 20 0 38l-234 312q-6 8 -3.5 13.5t12.5 5.5h128q24 0 38 -19l147 -196q5 -7 14 -7t14 7l147 196q14 19 37 19h128q10 0 13 -5.5t-3 -13.5q-156 -208 -235 -312q-12 -19 0 -38l235 -312q6 -7 3 -13t-13 -6h-128q-23 0 -37 19l-147 196q-5 7 -14 7t-14 -7
l-147 -196q-14 -19 -38 -19h-128q-10 0 -12.5 6t3.5 13z" />
    <glyph glyph-name="Y" unicode="Y" 
d="M50 677q0 10 6.5 16.5t16.5 6.5h94q10 0 16.5 -6.5t6.5 -16.5v-374q0 -10 6.5 -16.5t16.5 -6.5h374q10 0 16.5 6.5t6.5 16.5v374q0 10 6.5 16.5t16.5 6.5h94q10 0 16.5 -6.5t6.5 -16.5v-397q0 -58 -41 -99t-99 -41h-117q-10 0 -16.5 -6.5t-6.5 -16.5v-94
q0 -10 -6.5 -16.5t-16.5 -6.5h-94q-10 0 -16.5 6.5t-6.5 16.5v94q0 10 -6.5 16.5t-16.5 6.5h-117q-58 0 -99 41t-41 99v397z" />
    <glyph glyph-name="Z" unicode="Z" 
d="M751 23q0 -10 -6.5 -16.5t-16.5 -6.5h-654q-10 0 -16.5 6.5t-6.5 16.5v94q0 25 18 38l450 390q3 1 3 6v3q-3 6 -8 6h-440q-10 0 -16.5 6.5t-6.5 16.5v94q0 10 6.5 16.5t16.5 6.5h654q10 0 16.5 -6.5t6.5 -16.5v-94q0 -25 -18 -38l-450 -390q-3 -1 -3 -6v-3q3 -6 8 -6h440
q10 0 16.5 -6.5t6.5 -16.5v-94z" />
    <glyph glyph-name="bracketleft" unicode="[" horiz-adv-x="322" 
d="M50 -191v1079q0 10 7 17.5t18 7.5h172q10 0 17.5 -7t7.5 -17v-93q0 -10 -8 -16.5t-19 -6.5h-28q-11 0 -19 -7.5t-8 -17.5v-800q0 -10 8 -17t19 -7h28q11 0 19 -6.5t8 -16.5v-94q0 -10 -7.5 -16.5t-17.5 -6.5h-172q-11 0 -18 7t-7 18z" />
    <glyph glyph-name="backslash" unicode="\" horiz-adv-x="726" 
d="M214 721l459 -795q5 -8 0 -16q-6 -8 -13 -8h-105q-28 0 -42 24l-460 795q-5 8 0 16q5 9 14 9h105q27 0 42 -25z" />
    <glyph glyph-name="bracketright" unicode="]" horiz-adv-x="322" 
d="M272 888v-1079q0 -11 -7 -18t-18 -7h-172q-10 0 -17.5 6.5t-7.5 16.5v94q0 10 8 16.5t19 6.5h28q11 0 19 7t8 17v800q0 10 -8 17.5t-19 7.5h-28q-11 0 -19 6.5t-8 16.5v93q0 10 7.5 17t17.5 7h172q11 0 18 -7.5t7 -17.5z" />
    <glyph glyph-name="asciicircum" unicode="^" horiz-adv-x="583" 
d="M57 482l131 131l87 87q7 7 17 7t16 -7l218 -218q16 -16 0 -32l-66 -66q-6 -7 -16 -7t-17 7l-136 135l-135 -135q-6 -7 -16 -7t-17 7l-66 66q-16 16 0 32z" />
    <glyph glyph-name="underscore" unicode="_" horiz-adv-x="800" 
d="M727 -77q10 0 16.5 -6.5t6.5 -16.5v-93q0 -10 -6.5 -16.5t-16.5 -6.5h-654q-10 0 -16.5 6.5t-6.5 16.5v93q0 10 6.5 16.5t16.5 6.5h654z" />
    <glyph glyph-name="a" unicode="a" horiz-adv-x="800" 
d="M587 560h-374q-10 0 -16.5 -6.5t-6.5 -16.5v-234q0 -10 6.5 -16.5t16.5 -6.5h374q10 0 16.5 6.5t6.5 16.5v234q0 10 -6.5 16.5t-16.5 6.5zM50 23v537q0 58 41 99t99 41h420q58 0 99 -41t41 -99v-537q0 -10 -6.5 -16.5t-16.5 -6.5h-94q-10 0 -16.5 6.5t-6.5 16.5v94
q0 10 -6.5 16.5t-16.5 6.5h-374q-10 0 -16.5 -6.5t-6.5 -16.5v-94q0 -10 -6.5 -16.5t-16.5 -6.5h-94q-10 0 -16.5 6.5t-6.5 16.5z" />
    <glyph glyph-name="b" unicode="b" 
d="M213 140h374q10 0 16.5 6.5t6.5 16.5v94q0 10 -6.5 16.5t-16.5 6.5h-374q-10 0 -16.5 -6.5t-6.5 -16.5v-94q0 -10 6.5 -16.5t16.5 -6.5zM213 420h374q10 0 16.5 6.5t6.5 16.5v94q0 10 -6.5 16.5t-16.5 6.5h-374q-10 0 -16.5 -6.5t-6.5 -16.5v-94q0 -10 6.5 -16.5
t16.5 -6.5zM50 140v420q0 58 41 99t99 41h420q58 0 99 -41t41 -99v-90q0 -50 -35 -85l-35 -35l35 -35q35 -35 35 -85v-90q0 -58 -41 -99t-99 -41h-420q-58 0 -99 41t-41 99z" />
    <glyph glyph-name="c" unicode="c" horiz-adv-x="731" 
d="M50 140v420q0 58 41 99t99 41h467q10 0 16.5 -6.5t6.5 -16.5v-94q0 -10 -6.5 -16.5t-16.5 -6.5h-444q-10 0 -16.5 -6.5t-6.5 -16.5v-374q0 -10 6.5 -16.5t16.5 -6.5h444q10 0 16.5 -6.5t6.5 -16.5v-94q0 -10 -6.5 -16.5t-16.5 -6.5h-467q-58 0 -99 41t-41 99z" />
    <glyph glyph-name="d" unicode="d" 
d="M50 677q0 10 6.5 16.5t16.5 6.5h537q58 0 99 -41t41 -99v-420q0 -58 -41 -99t-99 -41h-537q-10 0 -16.5 6.5t-6.5 16.5v654zM213 560q-10 0 -16.5 -6.5t-6.5 -16.5v-374q0 -10 6.5 -16.5t16.5 -6.5h374q10 0 16.5 6.5t6.5 16.5v374q0 10 -6.5 16.5t-16.5 6.5h-374z" />
    <glyph glyph-name="e" unicode="e" horiz-adv-x="731" 
d="M50 140v420q0 58 41 99t99 41h467q10 0 16.5 -6.5t6.5 -16.5v-94q0 -10 -6.5 -16.5t-16.5 -6.5h-444q-10 0 -16.5 -6.5t-6.5 -16.5v-94q0 -10 6.5 -16.5t16.5 -6.5h444q10 0 16.5 -6.5t6.5 -16.5v-94q0 -10 -6.5 -16.5t-16.5 -6.5h-444q-10 0 -16.5 -6.5t-6.5 -16.5v-94
q0 -10 6.5 -16.5t16.5 -6.5h444q10 0 16.5 -6.5t6.5 -16.5v-94q0 -10 -6.5 -16.5t-16.5 -6.5h-467q-58 0 -99 41t-41 99z" />
    <glyph glyph-name="f" unicode="f" horiz-adv-x="730" 
d="M50 560q0 58 41 99t99 41h467q10 0 16.5 -6.5t6.5 -16.5v-94q0 -10 -6.5 -16.5t-16.5 -6.5h-444q-10 0 -16.5 -6.5t-6.5 -16.5v-94q0 -10 6.5 -16.5t16.5 -6.5h374q10 0 16.5 -6.5t6.5 -16.5v-94q0 -10 -6.5 -16.5t-16.5 -6.5h-374q-10 0 -16.5 -6.5t-6.5 -16.5v-234
q0 -10 -6.5 -16.5t-16.5 -6.5h-94q-10 0 -16.5 6.5t-6.5 16.5v537z" />
    <glyph glyph-name="g" unicode="g" 
d="M50 560q0 58 41 99t99 41h467q10 0 16.5 -6.5t6.5 -16.5v-94q0 -10 -6.5 -16.5t-16.5 -6.5h-444q-10 0 -16.5 -6.5t-6.5 -16.5v-374q0 -10 6.5 -16.5t16.5 -6.5h374q10 0 16.5 6.5t6.5 16.5v94q0 10 -6.5 16.5t-16.5 6.5h-234q-10 0 -16.5 6.5t-6.5 16.5v94
q0 10 6.5 16.5t16.5 6.5h257q58 0 99 -41t41 -99v-140q0 -58 -41 -99t-99 -41h-420q-58 0 -99 41t-41 99v420z" />
    <glyph glyph-name="h" unicode="h" 
d="M50 24v654q0 10 6.5 16.5t16.5 6.5h94q10 0 16.5 -6.5t6.5 -16.5v-234q0 -10 6.5 -16.5t16.5 -6.5h374q10 0 16.5 6.5t6.5 16.5v234q0 10 6.5 16.5t16.5 6.5h94q10 0 16.5 -6.5t6.5 -16.5v-654q0 -10 -6.5 -16.5t-16.5 -6.5h-94q-10 0 -16.5 6.5t-6.5 16.5v234
q0 10 -6.5 16.5t-16.5 6.5h-374q-10 0 -16.5 -6.5t-6.5 -16.5v-234q0 -10 -6.5 -16.5t-16.5 -6.5h-94q-10 0 -16.5 6.5t-6.5 16.5z" />
    <glyph glyph-name="i" unicode="i" horiz-adv-x="240" 
d="M190 23q0 -10 -6.5 -16.5t-16.5 -6.5h-94q-10 0 -16.5 6.5t-6.5 16.5v654q0 10 6.5 16.5t16.5 6.5h94q10 0 16.5 -6.5t6.5 -16.5v-654z" />
    <glyph glyph-name="j" unicode="j" 
d="M610 677q0 10 6.5 16.5t16.5 6.5h94q10 0 16.5 -6.5t6.5 -16.5v-537q0 -58 -41 -99t-99 -41h-420q-58 0 -99 41t-41 99v187q0 10 6.5 16.5t16.5 6.5h94q10 0 16.5 -6.5t6.5 -16.5v-164q0 -10 6.5 -16.5t16.5 -6.5h374q10 0 16.5 6.5t6.5 16.5v514z" />
    <glyph glyph-name="k" unicode="k" horiz-adv-x="788" 
d="M50 23v654q0 10 6.5 16.5t16.5 6.5h94q10 0 16.5 -6.5t6.5 -16.5v-234q0 -10 6.5 -16.5t16.5 -6.5h87q24 0 38 18l212 244q14 18 38 18h139q7 0 9 -6q2 -5 -1 -12l-272 -314q-16 -18 0 -36l272 -314q3 -7 1 -12q-2 -6 -9 -6h-139q-24 0 -38 18l-212 244q-14 18 -38 18
h-87q-10 0 -16.5 -6.5t-6.5 -16.5v-234q0 -10 -6.5 -16.5t-16.5 -6.5h-94q-10 0 -16.5 6.5t-6.5 16.5z" />
    <glyph glyph-name="l" unicode="l" horiz-adv-x="731" 
d="M50 140v537q0 10 6.5 16.5t16.5 6.5h94q10 0 16.5 -6.5t6.5 -16.5v-514q0 -10 6.5 -16.5t16.5 -6.5h444q10 0 16.5 -6.5t6.5 -16.5v-94q0 -10 -6.5 -16.5t-16.5 -6.5h-467q-58 0 -99 41t-41 99z" />
    <glyph glyph-name="m" unicode="m" horiz-adv-x="1080" 
d="M50 677q0 10 6.5 16.5t16.5 6.5h94q25 0 38 -18l335 -387q111 129 335 387q14 18 38 18h94q10 0 16.5 -6.5t6.5 -16.5v-654q0 -10 -7 -16.5t-16 -6.5h-94q-10 0 -16.5 6.5t-6.5 16.5v440q0 9 -4.5 10.5t-10.5 -5.5q-90 -103 -320 -370q-7 -7 -15 -7t-15 7
q-230 267 -320 370q-6 7 -10.5 5.5t-4.5 -11.5v-439q0 -10 -6.5 -16.5t-16.5 -6.5h-93q-10 0 -17 6.5t-7 16.5v654z" />
    <glyph glyph-name="n" unicode="n" horiz-adv-x="800" 
d="M50 23v654q0 9 7 16t17 7h93q23 0 39 -18l389 -450q4 -4 10 -3q5 2 5 8v440q0 9 7 16t16 7h94q10 0 16.5 -7t6.5 -16v-654q0 -9 -6.5 -16t-16.5 -7h-94q-24 0 -38 18q-140 160 -389 450q-7 7 -11.5 5.5t-4.5 -11.5v-439q0 -9 -6.5 -16t-16.5 -7h-93q-10 0 -17 7t-7 16z
" />
    <glyph glyph-name="o" unicode="o" horiz-adv-x="800" 
d="M50 140v420q0 58 41 99t99 41h420q58 0 99 -41t41 -99v-420q0 -58 -41 -99t-99 -41h-420q-58 0 -99 41t-41 99zM213 140h374q10 0 16.5 6.5t6.5 16.5v374q0 10 -6.5 16.5t-16.5 6.5h-374q-10 0 -16.5 -6.5t-6.5 -16.5v-374q0 -10 6.5 -16.5t16.5 -6.5z" />
    <glyph glyph-name="p" unicode="p" 
d="M587 560h-374q-10 0 -16.5 -6.5t-6.5 -16.5v-234q0 -10 6.5 -16.5t16.5 -6.5h374q10 0 16.5 6.5t6.5 16.5v234q0 10 -6.5 16.5t-16.5 6.5zM50 23v537q0 58 41 99t99 41h420q58 0 99 -41t41 -99v-280q0 -58 -41 -99t-99 -41h-397q-10 0 -16.5 -6.5t-6.5 -16.5v-94
q0 -10 -6.5 -16.5t-16.5 -6.5h-94q-10 0 -16.5 6.5t-6.5 16.5z" />
    <glyph glyph-name="q" unicode="q" 
d="M586 560h-373q-9 0 -16 -7t-7 -16v-374q0 -10 7 -16.5t16 -6.5h373q10 0 17 6.5t7 16.5v374q0 9 -7 16t-17 7zM50 140v420q0 58 41 99t99 41h420q58 0 98.5 -41t40.5 -99v-467q0 -9 7 -16t17 -7h23q10 0 17 -6.5t7 -16.5v-94q0 -10 -7 -16.5t-17 -6.5h-93
q-10 0 -16.5 6.5t-6.5 16.5v23q0 10 -7 17t-16 7h-467q-58 0 -99 41t-41 99z" />
    <glyph glyph-name="r" unicode="r" 
d="M587 560h-374q-10 0 -16.5 -6.5t-6.5 -16.5v-234q0 -10 6.5 -16.5t16.5 -6.5h374q10 0 16.5 6.5t6.5 16.5v234q0 10 -6.5 16.5t-16.5 6.5zM750 560v-280q0 -58 -41 -99t-99 -41h-47q-6 0 -9 -6q-2 -6 2 -10l108 -107q3 -5 2 -11q-3 -6 -9 -6h-152q-24 0 -39 17l-107 107
q-18 16 -40 16h-106q-10 0 -16.5 -6.5t-6.5 -16.5v-94q0 -10 -6.5 -16.5t-16.5 -6.5h-94q-10 0 -16.5 6.5t-6.5 16.5v537q0 58 41 99t99 41h420q58 0 99 -41t41 -99z" />
    <glyph glyph-name="s" unicode="s" horiz-adv-x="799" 
d="M50 560q0 58 41 99t99 41h466q10 0 17 -7t7 -16v-94q0 -10 -7 -16.5t-17 -6.5h-443q-10 0 -16.5 -7t-6.5 -16v-93q0 -10 6.5 -17t16.5 -7h397q58 0 98.5 -41t40.5 -99v-140q0 -58 -40.5 -99t-98.5 -41q-77 0 -263 0.5t-274 0.5q-10 0 -16.5 6.5t-6.5 16.5v93
q0 10 6.5 16.5t16.5 6.5h513q10 0 17 7t7 17v93q0 9 -7 16t-17 7h-396q-58 0 -99 41t-41 99v140z" />
    <glyph glyph-name="t" unicode="t" 
d="M50 677q0 10 6.5 16.5t16.5 6.5h654q10 0 16.5 -6.5t6.5 -16.5v-94q0 -10 -6.5 -16.5t-16.5 -6.5h-234q-10 0 -16.5 -6.5t-6.5 -16.5v-514q0 -10 -6.5 -16.5t-16.5 -6.5h-94q-10 0 -16.5 6.5t-6.5 16.5v514q0 10 -6.5 16.5t-16.5 6.5h-234q-10 0 -16.5 6.5t-6.5 16.5v94z
" />
    <glyph glyph-name="u" unicode="u" 
d="M50 140v537q0 10 6.5 16.5t16.5 6.5h94q10 0 16.5 -6.5t6.5 -16.5v-514q0 -10 6.5 -16.5t16.5 -6.5h374q10 0 16.5 6.5t6.5 16.5v514q0 10 6.5 16.5t16.5 6.5h94q10 0 16.5 -6.5t6.5 -16.5v-537q0 -58 -41 -99t-99 -41h-420q-58 0 -99 41t-41 99z" />
    <glyph glyph-name="v" unicode="v" horiz-adv-x="800" 
d="M51 677q-3 10 3 16q5 7 14 7h100q23 0 30 -23l140 -514q7 -23 30 -23h64q23 0 30 23l140 514q7 23 30 23h100q9 0 14 -7q6 -6 3 -16l-178 -654q-5 -23 -30 -23h-282q-25 0 -30 23z" />
    <glyph glyph-name="w" unicode="w" horiz-adv-x="1070" 
d="M51 677q-3 9 3 16q5 7 14 7h98q23 0 30 -23l137 -514q7 -23 30 -23h63q23 0 30 23v1q6 23 0 45l-125 468q-3 10 3 16q5 7 14 7h98q23 0 30 -23l59 -220l59 220q5 23 29 23h98q9 0 14 -7q6 -6 3 -16l-125 -468q-6 -22 0 -45v-1q7 -23 30 -23h63q23 0 30 23l138 514
q5 23 29 23h98q9 0 14 -7q6 -6 3 -16l-175 -654q-2 -10 -10.5 -16.5t-18.5 -6.5h-160q-20 0 -45 10.5t-39 24.5l-35 35q-12 -11 -36 -35q-14 -14 -38.5 -24.5t-44.5 -10.5h-161q-22 0 -29 23z" />
    <glyph glyph-name="x" unicode="x" horiz-adv-x="780" 
d="M54 19l234 312q14 20 0 38l-234 312q-6 8 -3.5 13.5t12.5 5.5h128q24 0 38 -19l147 -196q5 -7 14 -7t14 7l147 196q14 19 37 19h128q10 0 13 -5.5t-3 -13.5q-156 -208 -235 -312q-12 -19 0 -38l235 -312q6 -7 3 -13t-13 -6h-128q-23 0 -37 19l-147 196q-5 7 -14 7t-14 -7
l-147 -196q-14 -19 -38 -19h-128q-10 0 -12.5 6t3.5 13z" />
    <glyph glyph-name="y" unicode="y" 
d="M50 677q0 10 6.5 16.5t16.5 6.5h94q10 0 16.5 -6.5t6.5 -16.5v-374q0 -10 6.5 -16.5t16.5 -6.5h374q10 0 16.5 6.5t6.5 16.5v374q0 10 6.5 16.5t16.5 6.5h94q10 0 16.5 -6.5t6.5 -16.5v-397q0 -58 -41 -99t-99 -41h-117q-10 0 -16.5 -6.5t-6.5 -16.5v-94
q0 -10 -6.5 -16.5t-16.5 -6.5h-94q-10 0 -16.5 6.5t-6.5 16.5v94q0 10 -6.5 16.5t-16.5 6.5h-117q-58 0 -99 41t-41 99v397z" />
    <glyph glyph-name="z" unicode="z" 
d="M751 23q0 -10 -6.5 -16.5t-16.5 -6.5h-654q-10 0 -16.5 6.5t-6.5 16.5v94q0 25 18 38l450 390q3 1 3 6v3q-3 6 -8 6h-440q-10 0 -16.5 6.5t-6.5 16.5v94q0 10 6.5 16.5t16.5 6.5h654q10 0 16.5 -6.5t6.5 -16.5v-94q0 -25 -18 -38l-450 -390q-3 -1 -3 -6v-3q3 -6 8 -6h440
q10 0 16.5 -6.5t6.5 -16.5v-94z" />
    <glyph glyph-name="braceleft" unicode="{" horiz-adv-x="371" 
d="M110 -76v336q0 24 -16 39l-37 37q-7 6 -7 17q0 10 7 16l37 37q16 15 16 40v326q0 58 41 99t99 41h47q10 0 17 -6.5t7 -16.5v-93q0 -10 -7 -17t-17 -7h-23q-10 0 -17 -6.5t-7 -16.5v-278q0 -48 -34 -84l-36 -34l36 -35q34 -34 34 -84v-286q0 -10 7 -17t17 -7h23
q10 0 17 -6.5t7 -16.5v-93q0 -10 -7 -17t-17 -7h-47q-58 0 -99 41t-41 99z" />
    <glyph glyph-name="bar" unicode="|" horiz-adv-x="240" 
d="M190 -185q0 -13 -10 -23t-23 -10h-74q-13 0 -23 10t-10 23v1064q0 13 10 23t23 10h74q13 0 23 -10t10 -23v-1064z" />
    <glyph glyph-name="braceright" unicode="}" horiz-adv-x="371" 
d="M260 260v-336q0 -58 -41 -99t-99 -41h-47q-9 0 -16 7t-7 17v93q0 10 7 16.5t16 6.5h24q10 0 16.5 7t6.5 17v286q0 49 35 84l36 35l-36 34q-35 37 -35 84v278q0 10 -6.5 16.5t-16.5 6.5h-24q-9 0 -16 7t-7 17v93q0 10 7 16.5t16 6.5h47q58 0 99 -41t41 -99v-326
q0 -25 17 -40l37 -37q7 -6 7 -16q0 -11 -7 -17l-37 -37q-17 -15 -17 -39z" />
    <glyph glyph-name="asciitilde" unicode="~" horiz-adv-x="775" 
d="M189 211l-133 133q-13 20 0 33l64 66q8 7 17 7q10 0 17 -7l115 -116q7 -7 18 -7q10 0 16 7q16 15 45 45t38 39q39 41 97 41t101 -43l135 -131q14 -20 0 -34l-67 -67q-7 -7 -16 -7t-18 7l-119 119q-6 6 -16 6q-9 0 -16 -6q-23 -21 -81 -85q-42 -40 -99 -40q-56 0 -98 40z
" />
    <glyph glyph-name="copyright" unicode="&#xa9;" horiz-adv-x="940" 
d="M213 78h514q10 0 16.5 6.5t6.5 16.5v514q0 10 -6.5 16.5t-16.5 6.5h-514q-10 0 -16.5 -6.5t-6.5 -16.5v-514q0 -10 6.5 -16.5t16.5 -6.5zM50 78v560q0 58 41 99t99 41h560q58 0 99 -41t41 -99v-560q0 -58 -41 -99t-99 -41h-560q-58 0 -99 41t-41 99zM260 288v140
q0 58 41 99t99 41h140q58 0 99 -41t41 -99v-12q0 -10 -7 -16.5t-17 -6.5h-93q-9 0 -16 6.5t-7 16.5q-7 17 -23 12h-94q-10 0 -16.5 -6.5t-6.5 -16.5v-94q0 -10 6.5 -16.5t16.5 -6.5h94q10 0 16.5 6.5t6.5 16.5q2 7 9 10.5t14 1.5h93q10 0 17 -6.5t7 -16.5v-12q0 -58 -41 -99
t-99 -41h-140q-58 0 -99 41t-41 99z" />
    <glyph glyph-name="guillemotleft" unicode="&#xab;" horiz-adv-x="700" 
d="M275 110l-218 219q-6 7 -6.5 16.5t6.5 16.5l218 218q7 7 17 7t16 -7l66 -67q16 -16 0 -32l-136 -136l136 -136q6 -6 6.5 -15.5t-6.5 -16.5l-66 -66q-7 -7 -17 -7t-16 6zM543 111l-218 218q-7 7 -6.5 16.5t6.5 15.5l219 219q6 6 16 6q9 0 15 -6l66 -67q16 -16 0 -32
l-134 -136l135 -135q16 -16 0 -33l-66 -66q-7 -7 -16 -7q-8 0 -17 7z" />
    <glyph glyph-name="registered" unicode="&#xae;" horiz-adv-x="503" 
d="M394 863h-286q-8 0 -8 -8v-285q0 -9 8 -9h286q8 0 8 9v285q0 8 -8 8zM318 787h-134q-8 0 -8 -8v-84q0 -8 8 -8h134q8 0 8 8v84q0 8 -8 8zM100 913h302q21 0 35.5 -14.5t14.5 -35.5v-302q0 -20 -14.5 -35t-35.5 -15h-302q-21 0 -35.5 15t-14.5 35v302q0 21 14.5 35.5
t35.5 14.5zM377 787v-100q0 -21 -15 -35.5t-36 -14.5h-16q-3 0 -3 -1q-1 -1 -1 -3t2 -2l38 -38q1 -1 1 -2q-1 -5 -4 -5h-54q-7 0 -14 7l-38 38q-6 6 -15 6h-38q-8 0 -8 -9v-33q0 -9 -9 -9h-33q-9 0 -9 9v192q0 21 15 36t36 15h150q21 0 36 -15t15 -36z" />
    <glyph glyph-name="guillemotright" unicode="&#xbb;" horiz-adv-x="700" 
d="M643 329l-218 -219q-6 -6 -16 -6t-17 7l-66 66q-7 7 -6.5 16.5t6.5 15.5l136 136l-136 136q-16 16 0 32l66 67q6 7 16 7q11 0 17 -7l218 -218q7 -7 6.5 -16.5t-6.5 -16.5zM375 329l-218 -218q-7 -7 -17 -7q-9 0 -16 7l-66 66q-16 17 0 33l135 135l-134 136q-16 16 0 32
l66 67q6 6 15 6q10 0 16 -6l219 -219q6 -6 6.5 -15.5t-6.5 -16.5z" />
    <glyph glyph-name="tilde" unicode="&#x2dc;" horiz-adv-x="775" 
d="M189 460l-133 133q-13 20 0 33l64 66q8 7 17 7q10 0 17 -7l115 -116q7 -7 18 -7q10 0 16 7q16 15 45 45t38 39q39 41 97 41t101 -43l135 -131q14 -20 0 -34l-67 -67q-7 -7 -16 -7t-18 7l-119 119q-6 6 -16 6q-9 0 -16 -6q-23 -21 -81 -85q-42 -40 -99 -40q-56 0 -98 40z
" />
    <glyph glyph-name="uni0401" unicode="&#x401;" horiz-adv-x="729" 
d="M190 883q0 10 6.5 17t15.5 7h94q10 0 17 -7t7 -17v-92q0 -10 -7 -17t-17 -7h-94q-9 0 -15.5 7t-6.5 17v92zM469 883q0 10 6.5 17t16.5 7h95q9 0 15.5 -7t6.5 -17v-92q0 -10 -6.5 -17t-15.5 -7h-95q-10 0 -16.5 7t-6.5 17v92zM50 557q0 58 41 99t99 41h466q9 0 15.5 -6.5
t6.5 -16.5v-93q0 -10 -6.5 -17t-15.5 -7h-444q-9 0 -15.5 -6.5t-6.5 -15.5v-94q0 -10 6.5 -16.5t15.5 -6.5h444q9 0 15.5 -6.5t6.5 -16.5v-94q0 -9 -6.5 -15.5t-15.5 -6.5h-444q-9 0 -15.5 -7t-6.5 -17v-93q0 -10 6.5 -16.5t15.5 -6.5h444q9 0 15.5 -7t6.5 -17v-92
q0 -10 -6.5 -17t-15.5 -7h-466q-58 0 -99 41t-41 99v418z" />
    <glyph glyph-name="uni0410" unicode="&#x410;" horiz-adv-x="800" 
d="M587 560h-374q-10 0 -16.5 -6.5t-6.5 -16.5v-234q0 -10 6.5 -16.5t16.5 -6.5h374q10 0 16.5 6.5t6.5 16.5v234q0 10 -6.5 16.5t-16.5 6.5zM50 23v537q0 58 41 99t99 41h420q58 0 99 -41t41 -99v-537q0 -10 -6.5 -16.5t-16.5 -6.5h-94q-10 0 -16.5 6.5t-6.5 16.5v94
q0 10 -6.5 16.5t-16.5 6.5h-374q-10 0 -16.5 -6.5t-6.5 -16.5v-94q0 -10 -6.5 -16.5t-16.5 -6.5h-94q-10 0 -16.5 6.5t-6.5 16.5z" />
    <glyph glyph-name="uni0411" unicode="&#x411;" horiz-adv-x="800" 
d="M587 280h-374q-10 0 -16.5 -6.5t-6.5 -16.5v-94q0 -10 6.5 -16.5t16.5 -6.5h374q10 0 16.5 6.5t6.5 16.5v94q0 10 -6.5 16.5t-16.5 6.5zM50 140v420q0 58 41 99t99 41h467q10 0 16.5 -6.5t6.5 -16.5v-94q0 -10 -6.5 -16.5t-16.5 -6.5h-444q-10 0 -16.5 -6.5t-6.5 -16.5
v-94q0 -10 6.5 -16.5t16.5 -6.5h397q58 0 99 -41t41 -99v-140q0 -58 -41 -99t-99 -41h-420q-58 0 -99 41t-41 99z" />
    <glyph glyph-name="uni0412" unicode="&#x412;" 
d="M213 140h374q10 0 16.5 6.5t6.5 16.5v94q0 10 -6.5 16.5t-16.5 6.5h-374q-10 0 -16.5 -6.5t-6.5 -16.5v-94q0 -10 6.5 -16.5t16.5 -6.5zM213 420h374q10 0 16.5 6.5t6.5 16.5v94q0 10 -6.5 16.5t-16.5 6.5h-374q-10 0 -16.5 -6.5t-6.5 -16.5v-94q0 -10 6.5 -16.5
t16.5 -6.5zM50 140v420q0 58 41 99t99 41h420q58 0 99 -41t41 -99v-90q0 -50 -35 -85l-35 -35l35 -35q35 -35 35 -85v-90q0 -58 -41 -99t-99 -41h-420q-58 0 -99 41t-41 99z" />
    <glyph glyph-name="uni0413" unicode="&#x413;" horiz-adv-x="730" 
d="M50 560q0 58 41 99t99 41h467q10 0 16.5 -6.5t6.5 -16.5v-94q0 -10 -6.5 -16.5t-16.5 -6.5h-444q-10 0 -16.5 -6.5t-6.5 -16.5v-514q0 -10 -6.5 -16.5t-16.5 -6.5h-94q-10 0 -16.5 6.5t-6.5 16.5v537z" />
    <glyph glyph-name="uni0414" unicode="&#x414;" horiz-adv-x="840" 
d="M607 560h-374q-10 0 -16.5 -6.5t-6.5 -16.5v-374q0 -10 6.5 -16.5t16.5 -6.5h374q10 0 16.5 6.5t6.5 16.5v374q0 10 -6.5 16.5t-16.5 6.5zM70 163v397q0 58 41 99t99 41h420q58 0 99 -41t41 -99v-397q0 -10 6.5 -16.5t16.5 -6.5h24q10 0 16.5 -6.5t6.5 -16.5v-94
q0 -10 -6.5 -16.5t-16.5 -6.5h-794q-10 0 -16.5 6.5t-6.5 16.5v94q0 10 6.5 16.5t16.5 6.5h24q10 0 16.5 6.5t6.5 16.5z" />
    <glyph glyph-name="uni0415" unicode="&#x415;" horiz-adv-x="731" 
d="M50 140v420q0 58 41 99t99 41h467q10 0 16.5 -6.5t6.5 -16.5v-94q0 -10 -6.5 -16.5t-16.5 -6.5h-444q-10 0 -16.5 -6.5t-6.5 -16.5v-94q0 -10 6.5 -16.5t16.5 -6.5h444q10 0 16.5 -6.5t6.5 -16.5v-94q0 -10 -6.5 -16.5t-16.5 -6.5h-444q-10 0 -16.5 -6.5t-6.5 -16.5v-94
q0 -10 6.5 -16.5t16.5 -6.5h444q10 0 16.5 -6.5t6.5 -16.5v-94q0 -10 -6.5 -16.5t-16.5 -6.5h-467q-58 0 -99 41t-41 99z" />
    <glyph glyph-name="uni0416" unicode="&#x416;" horiz-adv-x="1081" 
d="M50 23v208q0 49 49 98l21 21l-35 35q-14 14 -24.5 39t-10.5 45v208q0 10 6.5 16.5t16.5 6.5h94q10 0 16.5 -6.5t6.5 -16.5v-234q0 -10 6.5 -16.5t16.5 -6.5h234q10 0 16.5 6.5t6.5 16.5v234q0 10 6.5 16.5t16.5 6.5h94q10 0 16.5 -6.5t6.5 -16.5v-234q0 -10 6.5 -16.5
t16.5 -6.5h234q10 0 16.5 6.5t6.5 16.5v234q0 10 6.5 16.5t16.5 6.5h94q10 0 16.5 -6.5t6.5 -16.5v-208q0 -49 -35 -84l-35 -35l35 -35q35 -35 35 -84v-208q0 -10 -6.5 -16.5t-16.5 -6.5h-94q-10 0 -16.5 6.5t-6.5 16.5v234q0 10 -6.5 16.5t-16.5 6.5h-234q-10 0 -16.5 -6.5
t-6.5 -16.5v-234q0 -10 -6.5 -16.5t-16.5 -6.5h-94q-10 0 -16.5 6.5t-6.5 16.5v234q0 10 -6.5 16.5t-16.5 6.5h-234q-10 0 -16.5 -6.5t-6.5 -16.5v-234q0 -10 -6.5 -16.5t-16.5 -6.5h-94q-10 0 -16.5 6.5t-6.5 16.5z" />
    <glyph glyph-name="uni0417" unicode="&#x417;" horiz-adv-x="731" 
d="M50 23v94q0 10 6.5 16.5t16.5 6.5h444q10 0 16.5 6.5t6.5 16.5v94q0 10 -6.5 16.5t-16.5 6.5h-444q-10 0 -16.5 6.5t-6.5 16.5v94q0 10 6.5 16.5t16.5 6.5h444q10 0 16.5 6.5t6.5 16.5v94q0 10 -6.5 16.5t-16.5 6.5h-444q-10 0 -16.5 6.5t-6.5 16.5v94q0 10 6.5 16.5
t16.5 6.5h467q58 0 99 -41t41 -99v-91q0 -49 -35 -84l-35 -35l35 -35q35 -35 35 -84v-91q0 -58 -41 -99t-99 -41h-467q-10 0 -16.5 6.5t-6.5 16.5z" />
    <glyph glyph-name="uni0418" unicode="&#x418;" horiz-adv-x="800" 
d="M750 23q0 -9 -7 -16t-17 -7h-93q-10 0 -16.5 7t-6.5 16v439q0 10 -4.5 11.5t-11.5 -5.5q-249 -290 -389 -450q-14 -18 -38 -18h-94q-10 0 -16.5 7t-6.5 16v654q0 9 6.5 16t16.5 7h94q9 0 16 -7t7 -16v-440q0 -6 5 -8q6 -1 10 3l389 450q16 18 39 18h93q10 0 17 -7t7 -16
q-1 0 0 -327v-327z" />
    <glyph glyph-name="uni0419" unicode="&#x419;" horiz-adv-x="802" 
d="M271 884q0 10 6.5 16.5t16.5 6.5h339q6 0 9 -6t-1 -12l-355 -423q-5 -5 -10 -2q-5 2 -5 8v412zM50 678q0 10 7 16.5t16 6.5h94q10 0 16.5 -6.5t6.5 -16.5v-440q0 -6 6 -8q5 -2 10 2l389 452q15 17 39 17h94q10 0 16.5 -6.5t6.5 -16.5v-654q0 -10 -6.5 -17t-16.5 -7h-94
q-10 0 -16.5 7t-6.5 17v440q0 6 -6 8h-3q-4 0 -6 -3l-390 -451q-16 -18 -39 -18h-94q-9 0 -16 7.5t-7 16.5v654z" />
    <glyph glyph-name="uni041A" unicode="&#x41a;" horiz-adv-x="788" 
d="M50 23v654q0 10 6.5 16.5t16.5 6.5h94q10 0 16.5 -6.5t6.5 -16.5v-234q0 -10 6.5 -16.5t16.5 -6.5h87q24 0 38 18l212 244q14 18 38 18h139q7 0 9 -6q2 -5 -1 -12l-272 -314q-16 -18 0 -36l272 -314q3 -7 1 -12q-2 -6 -9 -6h-139q-24 0 -38 18l-212 244q-14 18 -38 18
h-87q-10 0 -16.5 -6.5t-6.5 -16.5v-234q0 -10 -6.5 -16.5t-16.5 -6.5h-94q-10 0 -16.5 6.5t-6.5 16.5z" />
    <glyph glyph-name="uni041B" unicode="&#x41b;" horiz-adv-x="795" 
d="M195 560q17 62 67.5 101t114.5 39h344q10 0 17 -6.5t7 -16.5v-654q0 -10 -7 -16.5t-17 -6.5h-93q-10 0 -16.5 6.5t-6.5 16.5v514q0 10 -7 16.5t-17 6.5h-218q-24 0 -29 -23l-138 -514q-7 -23 -30 -23h-98q-9 0 -14 7q-6 6 -3 16z" />
    <glyph glyph-name="uni041C" unicode="&#x41c;" horiz-adv-x="1080" 
d="M50 677q0 10 6.5 16.5t16.5 6.5h94q25 0 38 -18l335 -387q111 129 335 387q14 18 38 18h94q10 0 16.5 -6.5t6.5 -16.5v-654q0 -10 -7 -16.5t-16 -6.5h-94q-10 0 -16.5 6.5t-6.5 16.5v440q0 9 -4.5 10.5t-10.5 -5.5q-90 -103 -320 -370q-7 -7 -15 -7t-15 7
q-230 267 -320 370q-6 7 -10.5 5.5t-4.5 -11.5v-439q0 -10 -6.5 -16.5t-16.5 -6.5h-93q-10 0 -17 6.5t-7 16.5v654z" />
    <glyph glyph-name="uni041D" unicode="&#x41d;" 
d="M50 24v654q0 10 6.5 16.5t16.5 6.5h94q10 0 16.5 -6.5t6.5 -16.5v-234q0 -10 6.5 -16.5t16.5 -6.5h374q10 0 16.5 6.5t6.5 16.5v234q0 10 6.5 16.5t16.5 6.5h94q10 0 16.5 -6.5t6.5 -16.5v-654q0 -10 -6.5 -16.5t-16.5 -6.5h-94q-10 0 -16.5 6.5t-6.5 16.5v234
q0 10 -6.5 16.5t-16.5 6.5h-374q-10 0 -16.5 -6.5t-6.5 -16.5v-234q0 -10 -6.5 -16.5t-16.5 -6.5h-94q-10 0 -16.5 6.5t-6.5 16.5z" />
    <glyph glyph-name="uni041E" unicode="&#x41e;" horiz-adv-x="800" 
d="M50 140v420q0 58 41 99t99 41h420q58 0 99 -41t41 -99v-420q0 -58 -41 -99t-99 -41h-420q-58 0 -99 41t-41 99zM213 140h374q10 0 16.5 6.5t6.5 16.5v374q0 10 -6.5 16.5t-16.5 6.5h-374q-10 0 -16.5 -6.5t-6.5 -16.5v-374q0 -10 6.5 -16.5t16.5 -6.5z" />
    <glyph glyph-name="uni041F" unicode="&#x41f;" horiz-adv-x="800" 
d="M50 560q0 58 41 99t99 41h420q58 0 99 -41t41 -99v-537q0 -10 -6.5 -16.5t-16.5 -6.5h-94q-10 0 -16.5 6.5t-6.5 16.5v514q0 10 -6.5 16.5t-16.5 6.5h-374q-10 0 -16.5 -6.5t-6.5 -16.5v-514q0 -10 -6.5 -16.5t-16.5 -6.5h-94q-10 0 -16.5 6.5t-6.5 16.5v537z" />
    <glyph glyph-name="uni0420" unicode="&#x420;" 
d="M587 560h-374q-10 0 -16.5 -6.5t-6.5 -16.5v-234q0 -10 6.5 -16.5t16.5 -6.5h374q10 0 16.5 6.5t6.5 16.5v234q0 10 -6.5 16.5t-16.5 6.5zM50 23v537q0 58 41 99t99 41h420q58 0 99 -41t41 -99v-280q0 -58 -41 -99t-99 -41h-397q-10 0 -16.5 -6.5t-6.5 -16.5v-94
q0 -10 -6.5 -16.5t-16.5 -6.5h-94q-10 0 -16.5 6.5t-6.5 16.5z" />
    <glyph glyph-name="uni0421" unicode="&#x421;" horiz-adv-x="731" 
d="M50 140v420q0 58 41 99t99 41h467q10 0 16.5 -6.5t6.5 -16.5v-94q0 -10 -6.5 -16.5t-16.5 -6.5h-444q-10 0 -16.5 -6.5t-6.5 -16.5v-374q0 -10 6.5 -16.5t16.5 -6.5h444q10 0 16.5 -6.5t6.5 -16.5v-94q0 -10 -6.5 -16.5t-16.5 -6.5h-467q-58 0 -99 41t-41 99z" />
    <glyph glyph-name="uni0422" unicode="&#x422;" 
d="M50 677q0 10 6.5 16.5t16.5 6.5h654q10 0 16.5 -6.5t6.5 -16.5v-94q0 -10 -6.5 -16.5t-16.5 -6.5h-234q-10 0 -16.5 -6.5t-6.5 -16.5v-514q0 -10 -6.5 -16.5t-16.5 -6.5h-94q-10 0 -16.5 6.5t-6.5 16.5v514q0 10 -6.5 16.5t-16.5 6.5h-234q-10 0 -16.5 6.5t-6.5 16.5v94z
" />
    <glyph glyph-name="uni0423" unicode="&#x423;" horiz-adv-x="800" 
d="M50 677q0 10 6.5 16.5t16.5 6.5h94q10 0 16.5 -6.5t6.5 -16.5v-234q0 -10 6.5 -16.5t16.5 -6.5h374q10 0 16.5 6.5t6.5 16.5v234q0 10 6.5 16.5t16.5 6.5h94q10 0 16.5 -6.5t6.5 -16.5v-537q0 -58 -41 -99t-99 -41h-467q-10 0 -16.5 6.5t-6.5 16.5v94q0 10 6.5 16.5
t16.5 6.5h444q10 0 16.5 6.5t6.5 16.5v94q0 10 -6.5 16.5t-16.5 6.5h-397q-58 0 -99 41t-41 99v257z" />
    <glyph glyph-name="uni0424" unicode="&#x424;" horiz-adv-x="1081" 
d="M447 560h-234q-10 0 -16.5 -6.5t-6.5 -16.5v-234q0 -10 6.5 -16.5t16.5 -6.5h234q10 0 16.5 6.5t6.5 16.5v234q0 10 -6.5 16.5t-16.5 6.5zM867 560h-234q-10 0 -16.5 -6.5t-6.5 -16.5v-234q0 -10 6.5 -16.5t16.5 -6.5h234q10 0 16.5 6.5t6.5 16.5v234q0 10 -6.5 16.5
t-16.5 6.5zM50 280v280q0 58 41 99t99 41h700q58 0 99 -41t41 -99v-280q0 -58 -41 -99t-99 -41h-257q-10 0 -16.5 -6.5t-6.5 -16.5v-94q0 -10 -6.5 -16.5t-16.5 -6.5h-94q-10 0 -16.5 6.5t-6.5 16.5v94q0 10 -6.5 16.5t-16.5 6.5h-257q-58 0 -99 41t-41 99z" />
    <glyph glyph-name="uni0425" unicode="&#x425;" horiz-adv-x="780" 
d="M54 19l234 312q14 20 0 38l-234 312q-6 8 -3.5 13.5t12.5 5.5h128q24 0 38 -19l147 -196q5 -7 14 -7t14 7l147 196q14 19 37 19h128q10 0 13 -5.5t-3 -13.5q-156 -208 -235 -312q-12 -19 0 -38l235 -312q6 -7 3 -13t-13 -6h-128q-23 0 -37 19l-147 196q-5 7 -14 7t-14 -7
l-147 -196q-14 -19 -38 -19h-128q-10 0 -12.5 6t3.5 13z" />
    <glyph glyph-name="uni0426" unicode="&#x426;" horiz-adv-x="871" 
d="M50 677q0 10 6.5 16.5t16.5 6.5h94q10 0 16.5 -6.5t6.5 -16.5v-514q0 -10 6.5 -16.5t16.5 -6.5h374q10 0 16.5 6.5t6.5 16.5v514q0 10 6.5 16.5t16.5 6.5h94q10 0 16.5 -6.5t6.5 -16.5v-514q0 -10 6.5 -16.5t16.5 -6.5h24q10 0 16.5 -6.5t6.5 -16.5v-94q0 -10 -6.5 -16.5
t-16.5 -6.5h-607q-58 0 -99 41t-41 99v537z" />
    <glyph glyph-name="uni0427" unicode="&#x427;" 
d="M50 677q0 10 6.5 16.5t16.5 6.5h94q10 0 16.5 -6.5t6.5 -16.5v-374q0 -10 6.5 -16.5t16.5 -6.5h374q10 0 16.5 6.5t6.5 16.5v374q0 10 6.5 16.5t16.5 6.5h94q10 0 16.5 -6.5t6.5 -16.5v-654q0 -10 -6.5 -16.5t-16.5 -6.5h-94q-10 0 -16.5 6.5t-6.5 16.5v94
q0 10 -6.5 16.5t-16.5 6.5h-397q-58 0 -99 41t-41 99v397z" />
    <glyph glyph-name="uni0428" unicode="&#x428;" horiz-adv-x="1081" 
d="M50 677q0 10 6.5 16.5t16.5 6.5h94q10 0 16.5 -6.5t6.5 -16.5v-514q0 -10 6.5 -16.5t16.5 -6.5h234q10 0 16.5 6.5t6.5 16.5v514q0 10 6.5 16.5t16.5 6.5h94q10 0 16.5 -6.5t6.5 -16.5v-514q0 -10 6.5 -16.5t16.5 -6.5h234q10 0 16.5 6.5t6.5 16.5v514q0 10 6.5 16.5
t16.5 6.5h94q10 0 16.5 -6.5t6.5 -16.5v-537q0 -58 -41 -99t-99 -41h-700q-58 0 -99 41t-41 99v537z" />
    <glyph glyph-name="uni0429" unicode="&#x429;" horiz-adv-x="1151" 
d="M50 677q0 10 6.5 16.5t16.5 6.5h94q10 0 16.5 -6.5t6.5 -16.5v-514q0 -10 6.5 -16.5t16.5 -6.5h234q10 0 16.5 6.5t6.5 16.5v514q0 10 6.5 16.5t16.5 6.5h94q10 0 16.5 -6.5t6.5 -16.5v-514q0 -10 6.5 -16.5t16.5 -6.5h234q10 0 16.5 6.5t6.5 16.5v514q0 10 6.5 16.5
t16.5 6.5h94q10 0 16.5 -6.5t6.5 -16.5v-514q0 -10 6.5 -16.5t16.5 -6.5h24q10 0 16.5 -6.5t6.5 -16.5v-94q0 -10 -6.5 -16.5t-16.5 -6.5h-887q-58 0 -99 41t-41 99v537z" />
    <glyph glyph-name="uni042A" unicode="&#x42a;" horiz-adv-x="871" 
d="M657 420h-374q-10 0 -16.5 -6.5t-6.5 -16.5v-234q0 -10 6.5 -16.5t16.5 -6.5h374q10 0 16.5 6.5t6.5 16.5v234q0 10 -6.5 16.5t-16.5 6.5zM50 583v94q0 10 6.5 16.5t16.5 6.5h164q10 0 16.5 -6.5t6.5 -16.5v-94q0 -10 6.5 -16.5t16.5 -6.5h397q58 0 99 -41t41 -99v-280
q0 -58 -41 -99t-99 -41h-420q-58 0 -99 41t-41 99v397q0 10 -6.5 16.5t-16.5 6.5h-24q-10 0 -16.5 6.5t-6.5 16.5z" />
    <glyph glyph-name="uni042B" unicode="&#x42b;" horiz-adv-x="1011" 
d="M587 420h-374q-10 0 -16.5 -6.5t-6.5 -16.5v-234q0 -10 6.5 -16.5t16.5 -6.5h374q10 0 16.5 6.5t6.5 16.5v234q0 10 -6.5 16.5t-16.5 6.5zM50 140v537q0 10 6.5 16.5t16.5 6.5h94q10 0 16.5 -6.5t6.5 -16.5v-94q0 -10 6.5 -16.5t16.5 -6.5h397q58 0 99 -41t41 -99v-280
q0 -58 -41 -99t-99 -41h-420q-58 0 -99 41t-41 99zM820 23v654q0 10 6.5 16.5t16.5 6.5h94q10 0 16.5 -6.5t6.5 -16.5v-654q0 -10 -6.5 -16.5t-16.5 -6.5h-94q-10 0 -16.5 6.5t-6.5 16.5z" />
    <glyph glyph-name="uni042C" unicode="&#x42c;" 
d="M213 140h374q10 0 16.5 6.5t6.5 16.5v234q0 10 -6.5 16.5t-16.5 6.5h-374q-10 0 -16.5 -6.5t-6.5 -16.5v-234q0 -10 6.5 -16.5t16.5 -6.5zM50 140v537q0 10 6.5 16.5t16.5 6.5h94q10 0 16.5 -6.5t6.5 -16.5v-94q0 -10 6.5 -16.5t16.5 -6.5h397q58 0 99 -41t41 -99v-280
q0 -58 -41 -99t-99 -41h-420q-58 0 -99 41t-41 99z" />
    <glyph glyph-name="uni042D" unicode="&#x42d;" horiz-adv-x="731" 
d="M50 23v94q0 10 6.5 16.5t16.5 6.5h444q10 0 16.5 6.5t6.5 16.5v94q0 10 -6.5 16.5t-16.5 6.5h-444q-10 0 -16.5 6.5t-6.5 16.5v94q0 10 6.5 16.5t16.5 6.5h444q10 0 16.5 6.5t6.5 16.5v94q0 10 -6.5 16.5t-16.5 6.5h-444q-10 0 -16.5 6.5t-6.5 16.5v94q0 10 6.5 16.5
t16.5 6.5h467q58 0 99 -41t41 -99v-420q0 -58 -41 -99t-99 -41h-467q-10 0 -16.5 6.5t-6.5 16.5z" />
    <glyph glyph-name="uni042E" unicode="&#x42e;" horiz-adv-x="1081" 
d="M493 140h374q10 0 16.5 6.5t6.5 16.5v374q0 10 -6.5 16.5t-16.5 6.5h-374q-10 0 -16.5 -6.5t-6.5 -16.5v-374q0 -10 6.5 -16.5t16.5 -6.5zM50 23v654q0 10 6.5 16.5t16.5 6.5h94q10 0 16.5 -6.5t6.5 -16.5v-234q0 -10 6.5 -16.5t16.5 -6.5h94q10 0 16.5 6.5t6.5 16.5v117
q0 58 41 99t99 41h420q58 0 99 -41t41 -99v-420q0 -58 -41 -99t-99 -41h-420q-58 0 -99 41t-41 99v117q0 10 -6.5 16.5t-16.5 6.5h-94q-10 0 -16.5 -6.5t-6.5 -16.5v-234q0 -10 -6.5 -16.5t-16.5 -6.5h-94q-10 0 -16.5 6.5t-6.5 16.5z" />
    <glyph glyph-name="uni042F" unicode="&#x42f;" 
d="M588 560h-374q-10 0 -16.5 -6.5t-6.5 -16.5v-234q0 -10 6.5 -16.5t16.5 -6.5h374q10 0 16.5 6.5t6.5 16.5v234q0 10 -6.5 16.5t-16.5 6.5zM51 280v280q0 58 41 99t99 41h420q58 0 99 -41t41 -99v-537q0 -10 -6.5 -16.5t-16.5 -6.5h-94q-10 0 -16.5 6.5t-6.5 16.5v94
q0 10 -6.5 16.5t-16.5 6.5h-106q-22 0 -40 -16l-107 -107q-15 -17 -39 -17h-152q-6 0 -9 6q-1 6 2 11l108 107q4 4 2 10q-3 6 -9 6h-47q-58 0 -99 41t-41 99z" />
    <glyph glyph-name="uni0430" unicode="&#x430;" horiz-adv-x="800" 
d="M587 560h-374q-10 0 -16.5 -6.5t-6.5 -16.5v-234q0 -10 6.5 -16.5t16.5 -6.5h374q10 0 16.5 6.5t6.5 16.5v234q0 10 -6.5 16.5t-16.5 6.5zM50 23v537q0 58 41 99t99 41h420q58 0 99 -41t41 -99v-537q0 -10 -6.5 -16.5t-16.5 -6.5h-94q-10 0 -16.5 6.5t-6.5 16.5v94
q0 10 -6.5 16.5t-16.5 6.5h-374q-10 0 -16.5 -6.5t-6.5 -16.5v-94q0 -10 -6.5 -16.5t-16.5 -6.5h-94q-10 0 -16.5 6.5t-6.5 16.5z" />
    <glyph glyph-name="uni0431" unicode="&#x431;" horiz-adv-x="800" 
d="M587 280h-374q-10 0 -16.5 -6.5t-6.5 -16.5v-94q0 -10 6.5 -16.5t16.5 -6.5h374q10 0 16.5 6.5t6.5 16.5v94q0 10 -6.5 16.5t-16.5 6.5zM50 140v420q0 58 41 99t99 41h467q10 0 16.5 -6.5t6.5 -16.5v-94q0 -10 -6.5 -16.5t-16.5 -6.5h-444q-10 0 -16.5 -6.5t-6.5 -16.5
v-94q0 -10 6.5 -16.5t16.5 -6.5h397q58 0 99 -41t41 -99v-140q0 -58 -41 -99t-99 -41h-420q-58 0 -99 41t-41 99z" />
    <glyph glyph-name="uni0432" unicode="&#x432;" 
d="M213 140h374q10 0 16.5 6.5t6.5 16.5v94q0 10 -6.5 16.5t-16.5 6.5h-374q-10 0 -16.5 -6.5t-6.5 -16.5v-94q0 -10 6.5 -16.5t16.5 -6.5zM213 420h374q10 0 16.5 6.5t6.5 16.5v94q0 10 -6.5 16.5t-16.5 6.5h-374q-10 0 -16.5 -6.5t-6.5 -16.5v-94q0 -10 6.5 -16.5
t16.5 -6.5zM50 140v420q0 58 41 99t99 41h420q58 0 99 -41t41 -99v-90q0 -50 -35 -85l-35 -35l35 -35q35 -35 35 -85v-90q0 -58 -41 -99t-99 -41h-420q-58 0 -99 41t-41 99z" />
    <glyph glyph-name="uni0433" unicode="&#x433;" horiz-adv-x="730" 
d="M50 560q0 58 41 99t99 41h467q10 0 16.5 -6.5t6.5 -16.5v-94q0 -10 -6.5 -16.5t-16.5 -6.5h-444q-10 0 -16.5 -6.5t-6.5 -16.5v-514q0 -10 -6.5 -16.5t-16.5 -6.5h-94q-10 0 -16.5 6.5t-6.5 16.5v537z" />
    <glyph glyph-name="uni0434" unicode="&#x434;" horiz-adv-x="840" 
d="M607 560h-374q-10 0 -16.5 -6.5t-6.5 -16.5v-374q0 -10 6.5 -16.5t16.5 -6.5h374q10 0 16.5 6.5t6.5 16.5v374q0 10 -6.5 16.5t-16.5 6.5zM70 163v397q0 58 41 99t99 41h420q58 0 99 -41t41 -99v-397q0 -10 6.5 -16.5t16.5 -6.5h24q10 0 16.5 -6.5t6.5 -16.5v-94
q0 -10 -6.5 -16.5t-16.5 -6.5h-794q-10 0 -16.5 6.5t-6.5 16.5v94q0 10 6.5 16.5t16.5 6.5h24q10 0 16.5 6.5t6.5 16.5z" />
    <glyph glyph-name="uni0435" unicode="&#x435;" horiz-adv-x="731" 
d="M50 140v420q0 58 41 99t99 41h467q10 0 16.5 -6.5t6.5 -16.5v-94q0 -10 -6.5 -16.5t-16.5 -6.5h-444q-10 0 -16.5 -6.5t-6.5 -16.5v-94q0 -10 6.5 -16.5t16.5 -6.5h444q10 0 16.5 -6.5t6.5 -16.5v-94q0 -10 -6.5 -16.5t-16.5 -6.5h-444q-10 0 -16.5 -6.5t-6.5 -16.5v-94
q0 -10 6.5 -16.5t16.5 -6.5h444q10 0 16.5 -6.5t6.5 -16.5v-94q0 -10 -6.5 -16.5t-16.5 -6.5h-467q-58 0 -99 41t-41 99z" />
    <glyph glyph-name="uni0436" unicode="&#x436;" horiz-adv-x="1081" 
d="M50 23v208q0 49 49 98l21 21l-35 35q-14 14 -24.5 39t-10.5 45v208q0 10 6.5 16.5t16.5 6.5h94q10 0 16.5 -6.5t6.5 -16.5v-234q0 -10 6.5 -16.5t16.5 -6.5h234q10 0 16.5 6.5t6.5 16.5v234q0 10 6.5 16.5t16.5 6.5h94q10 0 16.5 -6.5t6.5 -16.5v-234q0 -10 6.5 -16.5
t16.5 -6.5h234q10 0 16.5 6.5t6.5 16.5v234q0 10 6.5 16.5t16.5 6.5h94q10 0 16.5 -6.5t6.5 -16.5v-208q0 -49 -35 -84l-35 -35l35 -35q35 -35 35 -84v-208q0 -10 -6.5 -16.5t-16.5 -6.5h-94q-10 0 -16.5 6.5t-6.5 16.5v234q0 10 -6.5 16.5t-16.5 6.5h-234q-10 0 -16.5 -6.5
t-6.5 -16.5v-234q0 -10 -6.5 -16.5t-16.5 -6.5h-94q-10 0 -16.5 6.5t-6.5 16.5v234q0 10 -6.5 16.5t-16.5 6.5h-234q-10 0 -16.5 -6.5t-6.5 -16.5v-234q0 -10 -6.5 -16.5t-16.5 -6.5h-94q-10 0 -16.5 6.5t-6.5 16.5z" />
    <glyph glyph-name="uni0437" unicode="&#x437;" horiz-adv-x="731" 
d="M50 23v94q0 10 6.5 16.5t16.5 6.5h444q10 0 16.5 6.5t6.5 16.5v94q0 10 -6.5 16.5t-16.5 6.5h-444q-10 0 -16.5 6.5t-6.5 16.5v94q0 10 6.5 16.5t16.5 6.5h444q10 0 16.5 6.5t6.5 16.5v94q0 10 -6.5 16.5t-16.5 6.5h-444q-10 0 -16.5 6.5t-6.5 16.5v94q0 10 6.5 16.5
t16.5 6.5h467q58 0 99 -41t41 -99v-91q0 -49 -35 -84l-35 -35l35 -35q35 -35 35 -84v-91q0 -58 -41 -99t-99 -41h-467q-10 0 -16.5 6.5t-6.5 16.5z" />
    <glyph glyph-name="uni0438" unicode="&#x438;" horiz-adv-x="800" 
d="M750 23q0 -9 -7 -16t-17 -7h-93q-10 0 -16.5 7t-6.5 16v439q0 10 -4.5 11.5t-11.5 -5.5q-249 -290 -389 -450q-14 -18 -38 -18h-94q-10 0 -16.5 7t-6.5 16v654q0 9 6.5 16t16.5 7h94q9 0 16 -7t7 -16v-440q0 -6 5 -8q6 -1 10 3l389 450q16 18 39 18h93q10 0 17 -7t7 -16
q-1 0 0 -327v-327z" />
    <glyph glyph-name="uni0439" unicode="&#x439;" horiz-adv-x="802" 
d="M271 884q0 10 6.5 16.5t16.5 6.5h339q6 0 9 -6t-1 -12l-355 -423q-5 -5 -10 -2q-5 2 -5 8v412zM50 678q0 10 7 16.5t16 6.5h94q10 0 16.5 -6.5t6.5 -16.5v-440q0 -6 6 -8q5 -2 10 2l389 452q15 17 39 17h94q10 0 16.5 -6.5t6.5 -16.5v-654q0 -10 -6.5 -17t-16.5 -7h-94
q-10 0 -16.5 7t-6.5 17v440q0 6 -6 8h-3q-4 0 -6 -3l-390 -451q-16 -18 -39 -18h-94q-9 0 -16 7.5t-7 16.5v654z" />
    <glyph glyph-name="uni043A" unicode="&#x43a;" horiz-adv-x="788" 
d="M50 23v654q0 10 6.5 16.5t16.5 6.5h94q10 0 16.5 -6.5t6.5 -16.5v-234q0 -10 6.5 -16.5t16.5 -6.5h87q24 0 38 18l212 244q14 18 38 18h139q7 0 9 -6q2 -5 -1 -12l-272 -314q-16 -18 0 -36l272 -314q3 -7 1 -12q-2 -6 -9 -6h-139q-24 0 -38 18l-212 244q-14 18 -38 18
h-87q-10 0 -16.5 -6.5t-6.5 -16.5v-234q0 -10 -6.5 -16.5t-16.5 -6.5h-94q-10 0 -16.5 6.5t-6.5 16.5z" />
    <glyph glyph-name="uni043B" unicode="&#x43b;" horiz-adv-x="795" 
d="M195 560q17 62 67.5 101t114.5 39h344q10 0 17 -6.5t7 -16.5v-654q0 -10 -7 -16.5t-17 -6.5h-93q-10 0 -16.5 6.5t-6.5 16.5v514q0 10 -7 16.5t-17 6.5h-218q-24 0 -29 -23l-138 -514q-7 -23 -30 -23h-98q-9 0 -14 7q-6 6 -3 16z" />
    <glyph glyph-name="uni043C" unicode="&#x43c;" horiz-adv-x="1080" 
d="M50 677q0 10 6.5 16.5t16.5 6.5h94q25 0 38 -18l335 -387q111 129 335 387q14 18 38 18h94q10 0 16.5 -6.5t6.5 -16.5v-654q0 -10 -7 -16.5t-16 -6.5h-94q-10 0 -16.5 6.5t-6.5 16.5v440q0 9 -4.5 10.5t-10.5 -5.5q-90 -103 -320 -370q-7 -7 -15 -7t-15 7
q-230 267 -320 370q-6 7 -10.5 5.5t-4.5 -11.5v-439q0 -10 -6.5 -16.5t-16.5 -6.5h-93q-10 0 -17 6.5t-7 16.5v654z" />
    <glyph glyph-name="uni043D" unicode="&#x43d;" 
d="M50 24v654q0 10 6.5 16.5t16.5 6.5h94q10 0 16.5 -6.5t6.5 -16.5v-234q0 -10 6.5 -16.5t16.5 -6.5h374q10 0 16.5 6.5t6.5 16.5v234q0 10 6.5 16.5t16.5 6.5h94q10 0 16.5 -6.5t6.5 -16.5v-654q0 -10 -6.5 -16.5t-16.5 -6.5h-94q-10 0 -16.5 6.5t-6.5 16.5v234
q0 10 -6.5 16.5t-16.5 6.5h-374q-10 0 -16.5 -6.5t-6.5 -16.5v-234q0 -10 -6.5 -16.5t-16.5 -6.5h-94q-10 0 -16.5 6.5t-6.5 16.5z" />
    <glyph glyph-name="uni043E" unicode="&#x43e;" horiz-adv-x="800" 
d="M50 140v420q0 58 41 99t99 41h420q58 0 99 -41t41 -99v-420q0 -58 -41 -99t-99 -41h-420q-58 0 -99 41t-41 99zM213 140h374q10 0 16.5 6.5t6.5 16.5v374q0 10 -6.5 16.5t-16.5 6.5h-374q-10 0 -16.5 -6.5t-6.5 -16.5v-374q0 -10 6.5 -16.5t16.5 -6.5z" />
    <glyph glyph-name="uni043F" unicode="&#x43f;" horiz-adv-x="800" 
d="M50 560q0 58 41 99t99 41h420q58 0 99 -41t41 -99v-537q0 -10 -6.5 -16.5t-16.5 -6.5h-94q-10 0 -16.5 6.5t-6.5 16.5v514q0 10 -6.5 16.5t-16.5 6.5h-374q-10 0 -16.5 -6.5t-6.5 -16.5v-514q0 -10 -6.5 -16.5t-16.5 -6.5h-94q-10 0 -16.5 6.5t-6.5 16.5v537z" />
    <glyph glyph-name="uni0440" unicode="&#x440;" 
d="M587 560h-374q-10 0 -16.5 -6.5t-6.5 -16.5v-234q0 -10 6.5 -16.5t16.5 -6.5h374q10 0 16.5 6.5t6.5 16.5v234q0 10 -6.5 16.5t-16.5 6.5zM50 23v537q0 58 41 99t99 41h420q58 0 99 -41t41 -99v-280q0 -58 -41 -99t-99 -41h-397q-10 0 -16.5 -6.5t-6.5 -16.5v-94
q0 -10 -6.5 -16.5t-16.5 -6.5h-94q-10 0 -16.5 6.5t-6.5 16.5z" />
    <glyph glyph-name="uni0441" unicode="&#x441;" horiz-adv-x="731" 
d="M50 140v420q0 58 41 99t99 41h467q10 0 16.5 -6.5t6.5 -16.5v-94q0 -10 -6.5 -16.5t-16.5 -6.5h-444q-10 0 -16.5 -6.5t-6.5 -16.5v-374q0 -10 6.5 -16.5t16.5 -6.5h444q10 0 16.5 -6.5t6.5 -16.5v-94q0 -10 -6.5 -16.5t-16.5 -6.5h-467q-58 0 -99 41t-41 99z" />
    <glyph glyph-name="uni0442" unicode="&#x442;" 
d="M50 677q0 10 6.5 16.5t16.5 6.5h654q10 0 16.5 -6.5t6.5 -16.5v-94q0 -10 -6.5 -16.5t-16.5 -6.5h-234q-10 0 -16.5 -6.5t-6.5 -16.5v-514q0 -10 -6.5 -16.5t-16.5 -6.5h-94q-10 0 -16.5 6.5t-6.5 16.5v514q0 10 -6.5 16.5t-16.5 6.5h-234q-10 0 -16.5 6.5t-6.5 16.5v94z
" />
    <glyph glyph-name="uni0443" unicode="&#x443;" horiz-adv-x="800" 
d="M50 677q0 10 6.5 16.5t16.5 6.5h94q10 0 16.5 -6.5t6.5 -16.5v-234q0 -10 6.5 -16.5t16.5 -6.5h374q10 0 16.5 6.5t6.5 16.5v234q0 10 6.5 16.5t16.5 6.5h94q10 0 16.5 -6.5t6.5 -16.5v-537q0 -58 -41 -99t-99 -41h-467q-10 0 -16.5 6.5t-6.5 16.5v94q0 10 6.5 16.5
t16.5 6.5h444q10 0 16.5 6.5t6.5 16.5v94q0 10 -6.5 16.5t-16.5 6.5h-397q-58 0 -99 41t-41 99v257z" />
    <glyph glyph-name="uni0444" unicode="&#x444;" horiz-adv-x="1081" 
d="M447 560h-234q-10 0 -16.5 -6.5t-6.5 -16.5v-234q0 -10 6.5 -16.5t16.5 -6.5h234q10 0 16.5 6.5t6.5 16.5v234q0 10 -6.5 16.5t-16.5 6.5zM867 560h-234q-10 0 -16.5 -6.5t-6.5 -16.5v-234q0 -10 6.5 -16.5t16.5 -6.5h234q10 0 16.5 6.5t6.5 16.5v234q0 10 -6.5 16.5
t-16.5 6.5zM50 280v280q0 58 41 99t99 41h700q58 0 99 -41t41 -99v-280q0 -58 -41 -99t-99 -41h-257q-10 0 -16.5 -6.5t-6.5 -16.5v-94q0 -10 -6.5 -16.5t-16.5 -6.5h-94q-10 0 -16.5 6.5t-6.5 16.5v94q0 10 -6.5 16.5t-16.5 6.5h-257q-58 0 -99 41t-41 99z" />
    <glyph glyph-name="uni0445" unicode="&#x445;" horiz-adv-x="780" 
d="M54 19l234 312q14 20 0 38l-234 312q-6 8 -3.5 13.5t12.5 5.5h128q24 0 38 -19l147 -196q5 -7 14 -7t14 7l147 196q14 19 37 19h128q10 0 13 -5.5t-3 -13.5q-156 -208 -235 -312q-12 -19 0 -38l235 -312q6 -7 3 -13t-13 -6h-128q-23 0 -37 19l-147 196q-5 7 -14 7t-14 -7
l-147 -196q-14 -19 -38 -19h-128q-10 0 -12.5 6t3.5 13z" />
    <glyph glyph-name="uni0446" unicode="&#x446;" horiz-adv-x="871" 
d="M50 677q0 10 6.5 16.5t16.5 6.5h94q10 0 16.5 -6.5t6.5 -16.5v-514q0 -10 6.5 -16.5t16.5 -6.5h374q10 0 16.5 6.5t6.5 16.5v514q0 10 6.5 16.5t16.5 6.5h94q10 0 16.5 -6.5t6.5 -16.5v-514q0 -10 6.5 -16.5t16.5 -6.5h24q10 0 16.5 -6.5t6.5 -16.5v-94q0 -10 -6.5 -16.5
t-16.5 -6.5h-607q-58 0 -99 41t-41 99v537z" />
    <glyph glyph-name="uni0447" unicode="&#x447;" 
d="M50 677q0 10 6.5 16.5t16.5 6.5h94q10 0 16.5 -6.5t6.5 -16.5v-374q0 -10 6.5 -16.5t16.5 -6.5h374q10 0 16.5 6.5t6.5 16.5v374q0 10 6.5 16.5t16.5 6.5h94q10 0 16.5 -6.5t6.5 -16.5v-654q0 -10 -6.5 -16.5t-16.5 -6.5h-94q-10 0 -16.5 6.5t-6.5 16.5v94
q0 10 -6.5 16.5t-16.5 6.5h-397q-58 0 -99 41t-41 99v397z" />
    <glyph glyph-name="uni0448" unicode="&#x448;" horiz-adv-x="1081" 
d="M50 677q0 10 6.5 16.5t16.5 6.5h94q10 0 16.5 -6.5t6.5 -16.5v-514q0 -10 6.5 -16.5t16.5 -6.5h234q10 0 16.5 6.5t6.5 16.5v514q0 10 6.5 16.5t16.5 6.5h94q10 0 16.5 -6.5t6.5 -16.5v-514q0 -10 6.5 -16.5t16.5 -6.5h234q10 0 16.5 6.5t6.5 16.5v514q0 10 6.5 16.5
t16.5 6.5h94q10 0 16.5 -6.5t6.5 -16.5v-537q0 -58 -41 -99t-99 -41h-700q-58 0 -99 41t-41 99v537z" />
    <glyph glyph-name="uni0449" unicode="&#x449;" horiz-adv-x="1151" 
d="M50 677q0 10 6.5 16.5t16.5 6.5h94q10 0 16.5 -6.5t6.5 -16.5v-514q0 -10 6.5 -16.5t16.5 -6.5h234q10 0 16.5 6.5t6.5 16.5v514q0 10 6.5 16.5t16.5 6.5h94q10 0 16.5 -6.5t6.5 -16.5v-514q0 -10 6.5 -16.5t16.5 -6.5h234q10 0 16.5 6.5t6.5 16.5v514q0 10 6.5 16.5
t16.5 6.5h94q10 0 16.5 -6.5t6.5 -16.5v-514q0 -10 6.5 -16.5t16.5 -6.5h24q10 0 16.5 -6.5t6.5 -16.5v-94q0 -10 -6.5 -16.5t-16.5 -6.5h-887q-58 0 -99 41t-41 99v537z" />
    <glyph glyph-name="uni044A" unicode="&#x44a;" horiz-adv-x="871" 
d="M657 420h-374q-10 0 -16.5 -6.5t-6.5 -16.5v-234q0 -10 6.5 -16.5t16.5 -6.5h374q10 0 16.5 6.5t6.5 16.5v234q0 10 -6.5 16.5t-16.5 6.5zM50 583v94q0 10 6.5 16.5t16.5 6.5h164q10 0 16.5 -6.5t6.5 -16.5v-94q0 -10 6.5 -16.5t16.5 -6.5h397q58 0 99 -41t41 -99v-280
q0 -58 -41 -99t-99 -41h-420q-58 0 -99 41t-41 99v397q0 10 -6.5 16.5t-16.5 6.5h-24q-10 0 -16.5 6.5t-6.5 16.5z" />
    <glyph glyph-name="uni044B" unicode="&#x44b;" horiz-adv-x="1011" 
d="M587 420h-374q-10 0 -16.5 -6.5t-6.5 -16.5v-234q0 -10 6.5 -16.5t16.5 -6.5h374q10 0 16.5 6.5t6.5 16.5v234q0 10 -6.5 16.5t-16.5 6.5zM50 140v537q0 10 6.5 16.5t16.5 6.5h94q10 0 16.5 -6.5t6.5 -16.5v-94q0 -10 6.5 -16.5t16.5 -6.5h397q58 0 99 -41t41 -99v-280
q0 -58 -41 -99t-99 -41h-420q-58 0 -99 41t-41 99zM820 23v654q0 10 6.5 16.5t16.5 6.5h94q10 0 16.5 -6.5t6.5 -16.5v-654q0 -10 -6.5 -16.5t-16.5 -6.5h-94q-10 0 -16.5 6.5t-6.5 16.5z" />
    <glyph glyph-name="uni044C" unicode="&#x44c;" 
d="M213 140h374q10 0 16.5 6.5t6.5 16.5v234q0 10 -6.5 16.5t-16.5 6.5h-374q-10 0 -16.5 -6.5t-6.5 -16.5v-234q0 -10 6.5 -16.5t16.5 -6.5zM50 140v537q0 10 6.5 16.5t16.5 6.5h94q10 0 16.5 -6.5t6.5 -16.5v-94q0 -10 6.5 -16.5t16.5 -6.5h397q58 0 99 -41t41 -99v-280
q0 -58 -41 -99t-99 -41h-420q-58 0 -99 41t-41 99z" />
    <glyph glyph-name="uni044D" unicode="&#x44d;" horiz-adv-x="731" 
d="M50 23v94q0 10 6.5 16.5t16.5 6.5h444q10 0 16.5 6.5t6.5 16.5v94q0 10 -6.5 16.5t-16.5 6.5h-444q-10 0 -16.5 6.5t-6.5 16.5v94q0 10 6.5 16.5t16.5 6.5h444q10 0 16.5 6.5t6.5 16.5v94q0 10 -6.5 16.5t-16.5 6.5h-444q-10 0 -16.5 6.5t-6.5 16.5v94q0 10 6.5 16.5
t16.5 6.5h467q58 0 99 -41t41 -99v-420q0 -58 -41 -99t-99 -41h-467q-10 0 -16.5 6.5t-6.5 16.5z" />
    <glyph glyph-name="uni044E" unicode="&#x44e;" horiz-adv-x="1081" 
d="M493 140h374q10 0 16.5 6.5t6.5 16.5v374q0 10 -6.5 16.5t-16.5 6.5h-374q-10 0 -16.5 -6.5t-6.5 -16.5v-374q0 -10 6.5 -16.5t16.5 -6.5zM50 23v654q0 10 6.5 16.5t16.5 6.5h94q10 0 16.5 -6.5t6.5 -16.5v-234q0 -10 6.5 -16.5t16.5 -6.5h94q10 0 16.5 6.5t6.5 16.5v117
q0 58 41 99t99 41h420q58 0 99 -41t41 -99v-420q0 -58 -41 -99t-99 -41h-420q-58 0 -99 41t-41 99v117q0 10 -6.5 16.5t-16.5 6.5h-94q-10 0 -16.5 -6.5t-6.5 -16.5v-234q0 -10 -6.5 -16.5t-16.5 -6.5h-94q-10 0 -16.5 6.5t-6.5 16.5z" />
    <glyph glyph-name="uni044F" unicode="&#x44f;" 
d="M588 560h-374q-10 0 -16.5 -6.5t-6.5 -16.5v-234q0 -10 6.5 -16.5t16.5 -6.5h374q10 0 16.5 6.5t6.5 16.5v234q0 10 -6.5 16.5t-16.5 6.5zM51 280v280q0 58 41 99t99 41h420q58 0 99 -41t41 -99v-537q0 -10 -6.5 -16.5t-16.5 -6.5h-94q-10 0 -16.5 6.5t-6.5 16.5v94
q0 10 -6.5 16.5t-16.5 6.5h-106q-22 0 -40 -16l-107 -107q-15 -17 -39 -17h-152q-6 0 -9 6q-1 6 2 11l108 107q4 4 2 10q-3 6 -9 6h-47q-58 0 -99 41t-41 99z" />
    <glyph glyph-name="uni0451" unicode="&#x451;" horiz-adv-x="729" 
d="M190 883q0 10 6.5 17t15.5 7h94q10 0 17 -7t7 -17v-92q0 -10 -7 -17t-17 -7h-94q-9 0 -15.5 7t-6.5 17v92zM469 883q0 10 6.5 17t16.5 7h95q9 0 15.5 -7t6.5 -17v-92q0 -10 -6.5 -17t-15.5 -7h-95q-10 0 -16.5 7t-6.5 17v92zM50 557q0 58 41 99t99 41h466q9 0 15.5 -6.5
t6.5 -16.5v-93q0 -10 -6.5 -17t-15.5 -7h-444q-9 0 -15.5 -6.5t-6.5 -15.5v-94q0 -10 6.5 -16.5t15.5 -6.5h444q9 0 15.5 -6.5t6.5 -16.5v-94q0 -9 -6.5 -15.5t-15.5 -6.5h-444q-9 0 -15.5 -7t-6.5 -17v-93q0 -10 6.5 -16.5t15.5 -6.5h444q9 0 15.5 -7t6.5 -17v-92
q0 -10 -6.5 -17t-15.5 -7h-466q-58 0 -99 41t-41 99v418z" />
    <glyph glyph-name="endash" unicode="&#x2013;" horiz-adv-x="448" 
d="M73 289q-9 0 -16 6.5t-7 16.5v94q0 10 7 16.5t16 6.5h302q10 0 16.5 -6.5t6.5 -16.5v-94q0 -10 -6.5 -16.5t-16.5 -6.5h-302z" />
    <glyph glyph-name="emdash" unicode="&#x2014;" horiz-adv-x="800" 
d="M727 428q10 0 16.5 -6.5t6.5 -16.5v-93q0 -10 -6.5 -16.5t-16.5 -6.5h-654q-10 0 -16.5 6.5t-6.5 16.5v93q0 10 6.5 16.5t16.5 6.5h654z" />
    <glyph glyph-name="quoteleft" unicode="&#x2018;" horiz-adv-x="240" 
d="M190 514q0 -10 -6.5 -17t-16.5 -7h-94q-10 0 -16.5 7t-6.5 17v93q0 23 21 34l119 59v-186z" />
    <glyph glyph-name="quoteright" unicode="&#x2019;" horiz-adv-x="240" 
d="M50 676q0 10 6.5 17t16.5 7h94q10 0 16.5 -7t6.5 -17v-93q0 -23 -21 -34l-119 -59v186z" />
    <glyph glyph-name="quotesinglbase" unicode="&#x201a;" horiz-adv-x="240" 
d="M50 116q0 10 6.5 17t16.5 7h94q10 0 16.5 -7t6.5 -17v-93q0 -23 -21 -34l-119 -59v186z" />
    <glyph glyph-name="quotedblleft" unicode="&#x201c;" horiz-adv-x="449" 
d="M190 677v-186l-119 60q-21 10 -21 33v93q0 10 6.5 16.5t16.5 6.5h93q10 0 17 -6.5t7 -16.5zM399 677v-186l-119 60q-21 10 -21 33v93q0 10 7 16.5t17 6.5h92q10 0 17 -6.5t7 -16.5z" />
    <glyph glyph-name="quotedblright" unicode="&#x201d;" horiz-adv-x="449" 
d="M378 551l-119 -60v186q0 10 7 16.5t17 6.5h93q10 0 16.5 -6.5t6.5 -16.5v-93q0 -23 -21 -33zM169 551l-119 -60v186q0 10 7 16.5t17 6.5h92q10 0 17 -6.5t7 -16.5v-93q0 -23 -21 -33z" />
    <glyph glyph-name="quotedblbase" unicode="&#x201e;" horiz-adv-x="449" 
d="M378 -10l-119 -60v186q0 10 7 16.5t17 6.5h93q10 0 16.5 -6.5t6.5 -16.5v-93q0 -23 -21 -33zM169 -10l-119 -60v186q0 10 7 16.5t17 6.5h92q10 0 17 -6.5t7 -16.5v-93q0 -23 -21 -33z" />
    <glyph glyph-name="ellipsis" unicode="&#x2026;" horiz-adv-x="660" 
d="M74 0q-10 0 -17 7t-7 17v93q0 10 7 16.5t17 6.5h92q10 0 17 -6.5t7 -16.5v-93q0 -10 -7 -17t-17 -7h-92zM284 0q-10 0 -17 7t-7 17v93q0 10 7 16.5t17 6.5h92q10 0 17 -6.5t7 -16.5v-93q0 -10 -7 -17t-17 -7h-92zM493 0q-10 0 -16.5 7t-6.5 17v93q0 10 6.5 16.5t16.5 6.5
h94q9 0 16 -6.5t7 -16.5v-93q0 -10 -7 -17t-16 -7h-94z" />
    <glyph glyph-name="perthousand" unicode="&#x2030;" horiz-adv-x="1330" 
d="M190 700h70q58 0 99 -41t41 -99v-70q0 -58 -41 -99t-99 -41h-70q-58 0 -99 41t-41 99v70q0 58 41 99t99 41zM143 0q-10 0 -12.5 6t3.5 13q330 441 497 662q14 19 37 19h128q10 0 12.5 -6t-2.5 -13q-371 -493 -497 -662q-15 -19 -38 -19h-128zM213 560q-10 0 -16.5 -6.5
t-6.5 -16.5v-24q0 -10 6.5 -16.5t16.5 -6.5h24q10 0 16.5 6.5t6.5 16.5v24q0 10 -6.5 16.5t-16.5 6.5h-24zM680 350h70q58 0 99 -41t41 -99v-70q0 -58 -41 -99t-99 -41h-70q-58 0 -99 41t-41 99v70q0 58 41 99t99 41zM1070 350h70q58 0 99 -41t41 -99v-70q0 -58 -41 -99
t-99 -41h-70q-58 0 -99 41t-41 99v70q0 58 41 99t99 41zM703 210q-10 0 -16.5 -6.5t-6.5 -16.5v-24q0 -10 6.5 -16.5t16.5 -6.5h24q9 0 16 6.5t7 16.5v24q0 10 -7 16.5t-16 6.5h-24zM1093 210q-10 0 -16.5 -6.5t-6.5 -16.5v-24q0 -10 6.5 -16.5t16.5 -6.5h24q9 0 16 6.5
t7 16.5v24q0 10 -7 16.5t-16 6.5h-24z" />
    <glyph glyph-name="guilsinglleft" unicode="&#x2039;" horiz-adv-x="431" 
d="M275 112l-108.5 108.5t-109.5 108.5q-16 17 0 33q145 145 219 218q6 7 15 7t16 -7l65 -65q17 -17 1 -34l-135 -136l134 -134q18 -17 1 -34l-66 -65q-6 -7 -16 -7q-9 0 -16 7z" />
    <glyph glyph-name="guilsinglright" unicode="&#x203a;" horiz-adv-x="431" 
d="M374 329l-218 -218q-7 -7 -16 -7q-7 0 -16 7l-66 66q-16 17 0 33l135 135l-135 136q-16 17 0 33l66 66q7 7 16 7q10 0 16 -7l218 -218q16 -16 0 -33z" />
    <glyph glyph-name="Euro" unicode="&#x20ac;" horiz-adv-x="870" 
d="M120 140v51l-1 1h-46q-10 0 -16.5 7t-6.5 17v93q0 10 6.5 16.5t16.5 6.5h46l1 1v34l-1 1h-46q-10 0 -16.5 6.5t-6.5 16.5v93q0 10 6.5 17t16.5 7l47 1v51q0 58 41 99t99 41h420q58 0 99 -41t41 -99v-47q0 -10 -6.5 -16.5t-16.5 -6.5h-94q-9 0 -16 6.5t-7 16.5v24
q0 10 -6.5 16.5t-16.5 6.5h-374q-10 0 -16.5 -6.5t-6.5 -16.5v-28l1 -1h256q10 0 16.5 -7t6.5 -17v-93q0 -10 -6.5 -16.5t-16.5 -6.5h-256l-1 -1l1 -35h256q10 0 16.5 -6.5t6.5 -16.5v-93q0 -10 -6.5 -17t-16.5 -7l-257 -1v-28q0 -10 6.5 -16.5t16.5 -6.5h374q10 0 16.5 6.5
t6.5 16.5v24q0 10 7 16.5t16 6.5h94q10 0 16.5 -6.5t6.5 -16.5v-47q0 -58 -41 -99t-99 -41h-420q-58 0 -99 41t-41 99z" />
    <glyph glyph-name="uni20BD" unicode="&#x20bd;" horiz-adv-x="871" 
d="M657 560h-374q-9 0 -16 -6.5t-7 -16.5v-117h397q10 0 16.5 7t6.5 16v94q0 10 -6.5 16.5t-16.5 6.5zM120 23v82h-47q-9 0 -16 6.5t-7 16.5v94q0 10 7 16.5t16 6.5h47v35h-47q-9 0 -16 7t-7 16v93q0 10 7 17t16 7h47v23q0 86 1 119q0 57 41 97.5t98 40.5h422
q58 0 98.5 -40.5t40.5 -97.5v-143q0 -58 -40.5 -98.5t-98.5 -40.5h-422v-35h397q10 0 16.5 -6.5t6.5 -16.5v-94q0 -10 -6.5 -16.5t-16.5 -6.5h-397v-82q0 -10 -6.5 -16.5t-16.5 -6.5h-94q-9 0 -16 6.5t-7 16.5z" />
    <glyph glyph-name="uni2116" unicode="&#x2116;" horiz-adv-x="1223" 
d="M1009 561h-24q-9 0 -16 -7t-7 -16v-24q0 -10 7 -16.5t16 -6.5h24q10 0 16.5 6.5t6.5 16.5v24q0 9 -6.5 16t-16.5 7zM50 23v655q0 10 7 16.5t16 6.5h94q24 0 39 -17l390 -452q4 -4 10 -3q5 2 5 8v441q0 10 7 16.5t16 6.5h94q10 0 17 -6.5t7 -16.5v-655q0 -10 -7 -16.5
t-17 -6.5h-94q-23 0 -38 17l-390 452q-4 4 -10 2q-6 -1 -6 -8v-440q0 -10 -6.5 -16.5t-16.5 -6.5h-94q-9 0 -16 6.5t-7 16.5zM822 163v94q0 10 6.5 16.5t16.5 6.5h304q10 0 17 -6.5t7 -16.5v-94q0 -10 -7 -16.5t-17 -6.5h-304q-10 0 -16.5 6.5t-6.5 16.5zM822 491v70
q0 59 41 99.5t99 40.5h70q58 0 99.5 -41t41.5 -99v-70q0 -58 -41.5 -99.5t-99.5 -41.5h-70q-58 0 -99 41t-41 100z" />
    <glyph glyph-name="trademark" unicode="&#x2122;" horiz-adv-x="853" 
d="M342 913q9 0 9 -9v-33q0 -9 -9 -9h-109q-7 0 -7 -8v-233q0 -9 -9 -9h-33q-9 0 -9 9v233q0 8 -8 8h-108q-9 0 -9 9v33q0 9 9 9h283zM401 904q0 9 8 9h34q8 0 14 -7l145 -167q48 55 144 167q5 7 14 7h34q8 0 8 -9v-283q0 -9 -8 -9h-34q-8 0 -8 9v207q0 8 -6 2
q-16 -19 -64.5 -75t-74.5 -87q-5 -6 -11 0q-21 25 -67.5 79t-71.5 83q-6 4 -6 -2v-207q0 -9 -8 -9h-34q-8 0 -8 9v283z" />
    <glyph glyph-name="guillemotleft.1" horiz-adv-x="700" 
d="M275 110l-218 219q-6 7 -6.5 16.5t6.5 16.5l218 218q7 7 17 7t16 -7l66 -67q16 -16 0 -32l-136 -136l136 -136q6 -6 6.5 -15.5t-6.5 -16.5l-66 -66q-7 -7 -17 -7t-16 6zM543 111l-218 218q-7 7 -6.5 16.5t6.5 15.5l219 219q6 6 16 6q9 0 15 -6l66 -67q16 -16 0 -32
l-134 -136l135 -135q16 -16 0 -33l-66 -66q-7 -7 -16 -7q-8 0 -17 7z" />
    <glyph glyph-name="guillemotright.1" horiz-adv-x="700" 
d="M643 329l-218 -219q-6 -6 -16 -6t-17 7l-66 66q-7 7 -6.5 16.5t6.5 15.5l136 136l-136 136q-16 16 0 32l66 67q6 7 16 7q11 0 17 -7l218 -218q7 -7 6.5 -16.5t-6.5 -16.5zM375 329l-218 -218q-7 -7 -17 -7q-9 0 -16 7l-66 66q-16 17 0 33l135 135l-134 136q-16 16 0 32
l66 67q6 6 15 6q10 0 16 -6l219 -219q6 -6 6.5 -15.5t-6.5 -16.5z" />
    </font>
</defs>
</svg>
