<svg width="92" height="129" viewBox="0 0 92 129" fill="none" xmlns="http://www.w3.org/2000/svg">
<path d="M71.0818 71.2387L71.0818 71.2387L101.194 79.8477L71.0818 71.2387ZM71.0818 71.2387L71.0779 71.2376M71.0818 71.2387L71.0779 71.2376M112.664 83.3504L112.732 83.1098C114.516 83.6139 115.681 82.936 116.008 82.1018C116.173 81.6808 116.143 81.1893 115.857 80.7178C115.571 80.2454 115.018 79.7809 114.119 79.4501L68.8414 67.7771C68.8411 67.777 68.8408 67.7769 68.8405 67.7769C68.7074 67.7431 68.5828 67.682 68.4747 67.5973C68.3667 67.5126 68.2775 67.4063 68.213 67.2851C68.2128 67.2848 68.2127 67.2845 68.2125 67.2842L40.8482 16.7027L40.846 16.6988L38.9618 13.3614L38.9611 13.3601C38.9409 13.3238 38.9132 13.2921 38.8799 13.267C38.8465 13.2419 38.8082 13.224 38.7673 13.2145C38.7263 13.205 38.6837 13.2041 38.6421 13.212C38.6005 13.2199 38.5609 13.2363 38.5259 13.2603L38.5258 13.2604L38.3913 13.3522L38.391 13.3525C38.2646 13.4385 38.1741 13.5677 38.1364 13.7159C38.0987 13.864 38.1164 14.0208 38.1862 14.1567L38.1865 14.1573L45.7683 29.0217L112.664 83.3504ZM112.664 83.3504L112.732 83.1098C108.885 82.0229 105.039 80.9356 101.195 79.8479L112.664 83.3504ZM71.0779 71.2376C71.006 71.2183 70.93 71.2204 70.8592 71.2437M71.0779 71.2376L70.8592 71.2437M70.6797 71.3688L70.6797 71.3687C70.7261 71.3105 70.7884 71.267 70.8592 71.2437M70.6797 71.3688L70.8592 71.2437M70.6797 71.3688C70.6333 71.4271 70.605 71.4976 70.5982 71.5718L70.8471 71.5947M70.6797 71.3688L70.8471 71.5947M70.8471 71.5947L70.5982 71.5718C70.5913 71.646 70.6063 71.7205 70.6413 71.7863L70.6422 71.7879M70.8471 71.5947L70.6422 71.7879M70.6422 71.7879L84.9916 98.3036L84.9916 98.3037L91.384 110.127L91.3841 110.127M70.6422 71.7879L91.3841 110.127M91.3841 110.127C91.7617 110.825 91.834 111.901 91.5227 112.664C91.3696 113.039 91.134 113.315 90.8215 113.449C90.511 113.582 90.0792 113.594 89.4924 113.351C88.4802 112.93 87.8964 111.906 87.348 110.726L87.3482 110.726M91.3841 110.127L87.3482 110.726M87.3482 110.726L87.3441 110.717M87.3482 110.726L87.3441 110.717M87.3441 110.717L66.7302 70.2684L87.3441 110.717ZM7.54824 53.1486L7.54831 53.1486C9.90099 53.8047 12.2484 54.4703 14.5905 55.1454L66.2315 69.8595C66.2315 69.8595 66.2316 69.8595 66.2316 69.8595L66.2321 69.8596L66.1636 70.1C66.2375 70.1209 66.3062 70.1567 66.3653 70.2052L7.54824 53.1486ZM7.54824 53.1486C7.32437 53.0863 7.18563 52.9867 7.10225 52.8655C7.01796 52.7429 6.96981 52.5684 6.98432 52.3186L6.98439 52.3172M7.54824 53.1486L6.98439 52.3172M6.98439 52.3172C6.98534 52.2992 6.98905 52.2912 6.99073 52.2882C6.99233 52.2853 6.99642 52.2788 7.00932 52.2698L7.01111 52.2685M6.98439 52.3172L7.01111 52.2685M7.01111 52.2685C7.32928 52.0412 7.66413 51.9799 8.03625 52.0788L8.03699 52.079M7.01111 52.2685L8.03699 52.079M8.03699 52.079C13.2818 53.455 18.5691 54.8239 23.8989 56.1858C23.9968 56.2111 24.1006 56.1971 24.1883 56.1471L24.0644 55.9299L24.1883 56.147C24.2765 56.0967 24.3415 56.0139 24.3693 55.9162C24.399 55.8121 24.3945 55.6984 24.3379 55.5928C24.2851 55.4941 24.2002 55.4278 24.1165 55.3824L24.1155 55.3819M8.03699 52.079L24.1155 55.3819M24.1155 55.3819C18.69 52.4733 15.1071 47.0943 14.8657 40.8887C14.3292 26.9257 30.0038 18.249 41.5092 26.2022C42.7994 27.095 43.9597 28.1514 44.9902 29.3721L44.9908 29.3728C45.0632 29.458 45.162 29.5363 45.2912 29.561C45.4247 29.5866 45.5459 29.5466 45.643 29.4822M24.1155 55.3819L45.643 29.4822M45.643 29.4822C45.7148 29.4357 45.7688 29.3644 45.793 29.2804L45.5528 29.2112L45.793 29.2804C45.8176 29.195 45.8096 29.1026 45.7684 29.0219L45.643 29.4822ZM64.0167 66.5337L64.0169 66.5338C64.1027 66.5558 64.1921 66.5707 64.2762 66.5657C64.3591 66.5608 64.4749 66.5334 64.5568 66.4314C64.6387 66.3294 64.6404 66.2105 64.6274 66.1285C64.6142 66.0453 64.5804 65.9613 64.5404 65.8821L64.5398 65.8809C59.4166 55.8857 54.2814 45.8102 49.1341 35.6544L49.1322 35.6508C49.0952 35.5806 49.0416 35.5075 48.962 35.4561L48.962 35.456L48.9563 35.4525C48.8717 35.401 48.7704 35.3708 48.6598 35.3843L48.6559 35.3848C48.5984 35.3928 48.5432 35.4127 48.4939 35.4432C48.4446 35.4737 48.4022 35.5142 48.3695 35.5621L48.5758 35.7032L48.3695 35.5621C48.3367 35.6099 48.3143 35.6641 48.3038 35.7211C48.2932 35.778 48.2947 35.8364 48.3079 35.8926C49.0361 38.9874 49.0288 42.1744 48.0913 45.2169L48.3302 45.2905L48.0913 45.2169C45.8607 52.4601 39.0125 57.4801 31.2567 57.1652C31.1469 57.1606 31.0201 57.1792 30.9142 57.2619C30.803 57.3486 30.7576 57.4722 30.7471 57.5878L30.747 57.5883C30.7383 57.6858 30.7638 57.7839 30.8199 57.865C30.8762 57.9462 30.9597 58.0052 31.0562 58.0304L31.0568 58.0306L64.0167 66.5337ZM28.7477 25.7743C24.9225 26.5975 21.5811 28.9065 19.4584 32.1934C17.3357 35.4803 16.6056 39.4758 17.4289 43.3009C18.2521 47.1261 20.5611 50.4675 23.848 52.5902C27.1348 54.7129 31.1303 55.443 34.9555 54.6198C38.7806 53.7966 42.1221 51.4875 44.2448 48.2006C46.3675 44.9138 47.0975 40.9183 46.2743 37.0931C45.4511 33.268 43.1421 29.9265 39.8552 27.8038C36.5683 25.6811 32.5728 24.9511 28.7477 25.7743Z" stroke="#FF00FF" stroke-width="0.5"/>
<path d="M28.8003 26.019C32.5606 25.2098 36.4884 25.9274 39.7196 28.0142C42.9508 30.1009 45.2207 33.3857 46.0299 37.1461C46.8392 40.9064 46.1215 44.8342 44.0348 48.0653C41.9481 51.2965 38.6633 53.5664 34.9029 54.3757C31.1426 55.1849 27.2148 54.4673 23.9836 52.3806C20.7525 50.2938 18.4826 47.009 17.6733 43.2487C16.864 39.4883 17.5817 35.5606 19.6684 32.3294C21.7552 29.0982 25.04 26.8283 28.8003 26.019ZM25.8424 50.0235C26.7379 50.588 27.7157 50.989 28.7757 51.2265C28.9145 51.2575 28.9349 51.2206 28.8369 51.1158C27.3871 49.5841 26.2926 48.2066 25.5532 46.9834C23.2595 43.1823 22.0585 37.5288 23.1257 33.0578C23.2038 32.7285 23.1369 32.6957 22.9252 32.9594C18.5394 38.4718 19.9158 46.2711 25.8424 50.0235ZM36.2082 50.7188C29.5222 46.0695 25.4244 38.3587 27.1179 30.0875C27.1777 29.7999 27.0778 29.7259 26.8185 29.8656L25.8835 30.3752C25.6281 30.514 25.4544 30.7203 25.3622 30.9939C22.8158 38.445 25.4753 46.3583 31.5344 51.2967C32.595 52.1602 35.0272 51.2687 36.1813 50.9007C36.1994 50.8952 36.2154 50.8848 36.2276 50.8704C36.2399 50.8561 36.2478 50.8386 36.2506 50.8197C36.2534 50.8008 36.2509 50.7814 36.2434 50.7636C36.2359 50.7458 36.2238 50.7302 36.2082 50.7188ZM28.9719 29.3456C27.0783 37.5057 30.6213 45.3138 37.723 49.7163C37.8441 49.7912 37.986 49.8253 38.1279 49.8135C38.2698 49.8016 38.4042 49.7445 38.5112 49.6505L40.0801 48.2714C40.3291 48.0542 40.3148 47.8559 40.0371 47.6766C33.6555 43.5501 30.1695 36.5478 30.653 28.9114C30.6598 28.7967 30.608 28.7512 30.4978 28.7749L29.3188 29.0129C29.1315 29.049 29.0158 29.1599 28.9719 29.3456ZM32.3501 29.0339C31.636 36.1693 35.3981 42.7 41.1684 46.5301C41.1977 46.5491 41.2304 46.5621 41.2647 46.5685C41.299 46.5748 41.3342 46.5743 41.3683 46.5669C41.4024 46.5596 41.4347 46.5456 41.4634 46.5257C41.492 46.5058 41.5165 46.4805 41.5353 46.4511C42.1457 45.4766 42.6041 44.434 42.9105 43.3235C42.9697 43.1115 42.9073 42.9435 42.7233 42.8194C37.8754 39.5229 34.9288 34.954 33.8836 29.1128C33.8666 29.0166 33.8151 28.9298 33.7389 28.8687C33.6626 28.8075 33.5668 28.7761 33.4691 28.7804L32.572 28.8225C32.5158 28.8251 32.4623 28.8479 32.4216 28.8867C32.3808 28.9256 32.3554 28.9778 32.3501 29.0339ZM36.2813 31.9792C37.6183 35.7355 39.901 38.7744 43.1296 41.0959C43.1492 41.1102 43.1723 41.1189 43.1965 41.1209C43.2207 41.1229 43.2449 41.1183 43.2666 41.1074C43.2883 41.0966 43.3067 41.08 43.3196 41.0594C43.3325 41.0389 43.3395 41.0152 43.3398 40.9909C43.4178 36.5483 41.7006 33.0772 38.1884 30.5776C37.4824 30.0751 36.6943 29.7319 35.8848 29.4499C35.751 29.4032 35.693 29.4503 35.7107 29.5912C35.8097 30.3921 35.9999 31.1881 36.2813 31.9792Z" fill="white"/>
<path d="M25.842 50.0229C19.9153 46.2706 18.5389 38.4713 22.9248 32.9589C23.1365 32.6952 23.2033 32.728 23.1253 33.0573C22.0581 37.5282 23.259 43.1818 25.5527 46.9829C26.2921 48.2061 27.3867 49.5835 28.8364 51.1153C28.9345 51.22 28.9141 51.2569 28.7753 51.226C27.7152 50.9885 26.7375 50.5874 25.842 50.0229Z" fill="#FC6806"/>
<path d="M27.1183 30.0871C25.4248 38.3583 29.5226 46.0691 36.2086 50.7184C36.2241 50.7299 36.2363 50.7454 36.2438 50.7632C36.2513 50.781 36.2537 50.8004 36.2509 50.8193C36.2482 50.8382 36.2402 50.8558 36.228 50.8701C36.2158 50.8844 36.1997 50.8948 36.1817 50.9003C35.0275 51.2683 32.5953 52.1598 31.5348 51.2963C25.4756 46.358 22.8161 38.4446 25.3626 30.9935C25.4547 30.7199 25.6285 30.5136 25.8839 30.3748L26.8188 29.8652C27.0782 29.7255 27.178 29.7995 27.1183 30.0871Z" fill="#FC6806"/>
<path d="M28.9722 29.345C29.0161 29.1594 29.1317 29.0485 29.319 29.0124L30.498 28.7744C30.6083 28.7507 30.66 28.7962 30.6533 28.9109C30.1698 36.5473 33.6558 43.5496 40.0373 47.6761C40.3151 47.8554 40.3294 48.0537 40.0804 48.2709L38.5114 49.65C38.4044 49.744 38.2701 49.8011 38.1282 49.8129C37.9863 49.8248 37.8443 49.7907 37.7233 49.7158C30.6216 45.3133 27.0785 37.5052 28.9722 29.345Z" fill="#FC6806"/>
<path d="M32.3498 29.0333C32.3551 28.9773 32.3805 28.925 32.4213 28.8862C32.4621 28.8474 32.5155 28.8246 32.5717 28.822L33.4688 28.7799C33.5665 28.7756 33.6624 28.807 33.7386 28.8681C33.8149 28.9293 33.8663 29.0161 33.8833 29.1123C34.9286 34.9535 37.8751 39.5224 42.7231 42.8189C42.9071 42.9429 42.9695 43.111 42.9102 43.323C42.6038 44.4335 42.1454 45.476 41.535 46.4506C41.5162 46.48 41.4918 46.5053 41.4631 46.5252C41.4344 46.5451 41.4021 46.5591 41.368 46.5664C41.3339 46.5738 41.2987 46.5743 41.2644 46.568C41.2301 46.5616 41.1974 46.5486 41.1682 46.5296C35.3979 42.6995 31.6358 36.1687 32.3498 29.0333Z" fill="#FC6806"/>
<path d="M36.2814 31.979C36 31.1879 35.8098 30.3919 35.7109 29.591C35.6931 29.4501 35.7512 29.403 35.885 29.4497C36.6945 29.7317 37.4826 30.075 38.1885 30.5775C41.7008 33.077 43.4179 36.5481 43.3399 40.9907C43.3396 41.015 43.3326 41.0387 43.3197 41.0592C43.3068 41.0798 43.2885 41.0964 43.2668 41.1072C43.2451 41.1181 43.2208 41.1228 43.1966 41.1207C43.1725 41.1187 43.1493 41.1101 43.1297 41.0958C39.9012 38.7743 37.6184 35.7353 36.2814 31.979Z" fill="#FC6806"/>
</svg>
