<svg width="69" height="23" viewBox="0 0 69 23" fill="none" xmlns="http://www.w3.org/2000/svg">
<path d="M42.8571 15.888C42.909 14.9322 42.0476 14.3061 41.2912 13.8834C38.6965 12.4319 35.0902 11.0002 35.2231 7.31416C35.2967 5.291 36.1159 3.67106 37.6809 2.45433C40.9549 -0.0912264 45.836 -0.06597 49.562 1.29787C49.581 1.30504 49.5967 1.31876 49.6065 1.33656C49.6162 1.35435 49.6193 1.37504 49.6151 1.3949L48.682 5.75226C48.6723 5.7948 48.6474 5.80765 48.6076 5.79081C46.8702 5.06768 45.1621 4.69815 43.3024 4.86298C41.1756 5.05306 39.7626 6.96988 42.243 8.33903C45.0172 9.87035 48.5238 11.2076 48.6169 14.9894C48.7232 19.3255 45.0119 21.7328 41.145 22.2007C38.4492 22.5277 35.7619 22.2375 33.083 21.33C33.0378 21.3145 32.9999 21.283 32.9764 21.2416C32.9529 21.2002 32.9454 21.1518 32.9554 21.1054L33.9098 16.635C33.912 16.6246 33.9167 16.6149 33.9233 16.6066C33.93 16.5982 33.9384 16.5916 33.9481 16.5871C33.9577 16.5826 33.9683 16.5803 33.979 16.5806C33.9896 16.5808 34 16.5835 34.0095 16.5885C35.7615 17.5208 37.6402 17.9621 39.6456 17.9125C40.8486 17.8819 42.772 17.4246 42.8571 15.888Z" fill="#1A2ADF"/>
<path d="M0 1.3616V1.26722L0.122293 0.828564C0.133814 0.786028 0.161728 0.764758 0.206037 0.764758C3.19602 0.765644 6.18422 0.765202 9.17066 0.763429C10.3156 0.762543 11.138 1.16354 11.6378 1.96642C11.8336 2.28279 12.0095 2.85482 12.1655 3.68251C12.886 7.51703 13.6051 11.3391 14.3229 15.1488C14.3353 15.2126 14.3535 15.2144 14.3774 15.1541L20.0388 0.833881C20.0574 0.787799 20.0911 0.764758 20.1398 0.764758H25.7932C25.7983 0.764794 25.8032 0.766073 25.8076 0.76848C25.8121 0.770887 25.8158 0.774348 25.8186 0.778556C25.8213 0.782765 25.823 0.787589 25.8235 0.792602C25.8239 0.797616 25.8231 0.802663 25.8211 0.807295L16.9429 21.9933C16.9349 22.011 16.9217 22.0198 16.903 22.0198H11.1659C11.1523 22.0199 11.1391 22.0154 11.1282 22.007C11.1174 21.9986 11.1096 21.9867 11.1061 21.9733C9.69794 16.5109 8.28581 11.0449 6.86969 5.5754C6.59719 4.52262 6.46692 3.82209 5.6853 3.3276C4.57137 2.62308 2.70241 2.0382 1.4622 1.7338C0.688564 1.54327 0.201163 1.4192 0 1.3616Z" fill="#1A2ADF"/>
<path d="M23.6637 21.9708L28.1966 0.798124C28.1984 0.788852 28.2034 0.78049 28.2106 0.77444C28.2179 0.76839 28.227 0.765019 28.2364 0.764893H33.6466C33.6526 0.764973 33.6586 0.766383 33.664 0.769018C33.6695 0.771654 33.6742 0.775451 33.678 0.780143C33.6819 0.784836 33.6846 0.790309 33.686 0.796173C33.6875 0.802037 33.6876 0.80815 33.6865 0.814077L29.155 21.9868C29.1531 21.996 29.1482 22.0044 29.1409 22.0104C29.1337 22.0165 29.1245 22.0199 29.1151 22.02H23.7036C23.6976 22.0199 23.6916 22.0185 23.6862 22.0159C23.6808 22.0132 23.676 22.0094 23.6722 22.0047C23.6684 22 23.6656 21.9946 23.6642 21.9887C23.6627 21.9828 23.6626 21.9767 23.6637 21.9708Z" fill="#1A2ADF"/>
<path d="M68.0588 21.9627V22.0159L63.0527 22.0172C63.0299 22.0171 63.0077 22.0093 62.9901 21.995C62.9724 21.9807 62.9603 21.9609 62.9557 21.9388L62.3256 18.9133C62.3168 18.8681 62.2893 18.8455 62.2432 18.8455H55.327C55.2774 18.8455 55.2437 18.869 55.226 18.916L54.1267 21.96C54.1125 21.9999 54.0846 22.0198 54.0429 22.0198H48.3895C48.384 22.0198 48.3786 22.0184 48.3737 22.0157C48.3688 22.0131 48.3647 22.0094 48.3615 22.0048C48.3584 22.0003 48.3564 21.995 48.3557 21.9896C48.3551 21.9841 48.3557 21.9785 48.3576 21.9733C51.0986 15.4253 53.8404 8.87643 56.5832 2.32665C56.8747 1.63011 57.3475 1.16575 58.0015 0.933575C58.3196 0.821029 58.9386 0.764314 59.8585 0.763428C61.0885 0.763428 62.3185 0.764314 63.5486 0.766087C63.5946 0.766087 63.6225 0.788684 63.6323 0.833879L68.0588 21.9627ZM59.7641 6.6561C59.7621 6.64657 59.757 6.63796 59.7497 6.63155C59.7423 6.62514 59.7331 6.62128 59.7234 6.62053C59.7137 6.61978 59.704 6.62219 59.6957 6.62741C59.6875 6.63262 59.6812 6.64035 59.6777 6.64945L56.8557 14.4297C56.8531 14.4366 56.8522 14.4439 56.8531 14.4512C56.854 14.4585 56.8567 14.4654 56.8608 14.4715C56.865 14.4775 56.8706 14.4824 56.8771 14.4858C56.8836 14.4891 56.8909 14.4909 56.8982 14.4908H61.3433C61.35 14.4908 61.3566 14.4892 61.3626 14.4863C61.3686 14.4834 61.3739 14.4792 61.3781 14.474C61.3823 14.4688 61.3853 14.4627 61.3869 14.4562C61.3884 14.4497 61.3885 14.4429 61.3871 14.4363L59.7641 6.6561Z" fill="#1A2ADF"/>
</svg>
