<svg width="36" height="23" viewBox="0 0 36 23" fill="none" xmlns="http://www.w3.org/2000/svg">
<path d="M17.9796 2.63086C17.5458 2.97108 17.1403 3.33167 16.7631 3.7126C16.7601 3.71545 16.7581 3.71914 16.7572 3.72318C16.7564 3.72723 16.7568 3.73143 16.7584 3.73524C16.76 3.73905 16.7627 3.74228 16.7662 3.74451C16.7697 3.74673 16.7737 3.74785 16.7779 3.7477L19.1695 3.7484C19.1935 3.74842 19.2172 3.75364 19.2389 3.7637C19.2606 3.77376 19.2798 3.78843 19.2951 3.80667L20.1635 4.83226C20.1664 4.83573 20.1683 4.83998 20.1689 4.8445C20.1696 4.84902 20.1689 4.85361 20.1669 4.85775C20.165 4.86189 20.162 4.86538 20.1581 4.86783C20.1543 4.87028 20.1498 4.87158 20.1452 4.87157L15.7958 4.87086C15.7802 4.87089 15.7649 4.87475 15.7512 4.8821C15.7375 4.88944 15.7258 4.90005 15.7172 4.91298L15.0285 5.94699C15.0255 5.95169 15.0237 5.95713 15.0234 5.96274C15.0231 5.96834 15.0244 5.9739 15.027 5.97881C15.0296 5.98372 15.0334 5.9878 15.0382 5.99061C15.0429 5.99341 15.0483 5.99484 15.0538 5.99473H20.8921C20.9188 5.99473 20.9382 6.00643 20.9504 6.02983L21.4987 7.07156C21.5012 7.07638 21.5025 7.08179 21.5023 7.08724C21.5021 7.09269 21.5006 7.09801 21.4977 7.10267C21.4949 7.10734 21.4909 7.11119 21.4862 7.11386C21.4814 7.11653 21.476 7.11791 21.4706 7.11789H14.4684C14.4408 7.11789 14.422 7.13076 14.4122 7.1565L14.0205 8.19823C14.0097 8.22678 14.0196 8.24105 14.05 8.24105H21.8918C21.9208 8.24105 21.9388 8.25509 21.9458 8.28317L22.2133 9.30805C22.2231 9.34549 22.2086 9.36421 22.1697 9.36421H13.7523C13.7247 9.36421 13.7088 9.37778 13.7046 9.40493L13.5425 10.4607C13.5419 10.464 13.5421 10.4674 13.543 10.4707C13.5439 10.4739 13.5455 10.4769 13.5477 10.4794C13.5498 10.482 13.5524 10.484 13.5554 10.4854C13.5584 10.4868 13.5616 10.4874 13.5649 10.4874H22.3445C22.3645 10.4874 22.3838 10.4951 22.3982 10.509C22.4126 10.5229 22.421 10.5418 22.4218 10.5618L22.4625 11.5572C22.4627 11.5641 22.4616 11.571 22.4592 11.5774C22.4567 11.5839 22.453 11.5898 22.4482 11.5948C22.4434 11.5998 22.4377 11.6037 22.4313 11.6064C22.425 11.6092 22.4181 11.6105 22.4112 11.6105H13.5102C13.5051 11.6105 13.5001 11.6115 13.4954 11.6135C13.4908 11.6155 13.4866 11.6184 13.4831 11.622C13.4796 11.6256 13.4769 11.6299 13.4752 11.6345C13.4734 11.6392 13.4727 11.6442 13.473 11.6491L13.5319 12.6579C13.5347 12.7084 13.5614 12.7337 13.612 12.7337H22.3649C22.3939 12.7337 22.4061 12.7482 22.4014 12.7772L22.2308 13.8358C22.2298 13.8417 22.2268 13.8471 22.2223 13.851C22.2178 13.8548 22.2121 13.8569 22.2062 13.8569H13.772C13.7651 13.8569 13.7582 13.8584 13.752 13.8615C13.7457 13.8646 13.7403 13.869 13.736 13.8745C13.7317 13.88 13.7288 13.8863 13.7273 13.8931C13.7259 13.8999 13.7261 13.907 13.7278 13.9137L13.9952 14.9386C14.0027 14.9662 14.0207 14.98 14.0493 14.98H21.8918C21.8971 14.98 21.9024 14.9813 21.9072 14.9838C21.912 14.9863 21.916 14.9899 21.9191 14.9943C21.9221 14.9988 21.924 15.0039 21.9247 15.0092C21.9253 15.0145 21.9246 15.0199 21.9226 15.0249L21.5309 16.0653C21.5268 16.0764 21.5193 16.086 21.5095 16.0928C21.4997 16.0996 21.4881 16.1032 21.4762 16.1032H14.4571C14.454 16.1032 14.4509 16.1041 14.4482 16.1056C14.4455 16.1071 14.4432 16.1093 14.4416 16.1119C14.44 16.1145 14.439 16.1175 14.4389 16.1205C14.4388 16.1235 14.4395 16.1265 14.441 16.1292L14.9766 17.1863C14.9827 17.1984 14.992 17.2085 15.0036 17.2156C15.0151 17.2226 15.0284 17.2264 15.0419 17.2263H20.8704C20.8774 17.2263 20.8844 17.2281 20.8905 17.2317C20.8965 17.2353 20.9015 17.2405 20.9048 17.2467C20.9082 17.253 20.9097 17.26 20.9093 17.267C20.909 17.2741 20.9067 17.2809 20.9027 17.2867L20.2077 18.313C20.2001 18.3243 20.1899 18.3335 20.1779 18.3398C20.1659 18.3462 20.1525 18.3495 20.1389 18.3495L15.8105 18.3488C15.7768 18.3488 15.7703 18.3621 15.7909 18.3888C16.0459 18.7239 16.3108 19.0438 16.5855 19.3484C16.667 19.4387 16.7893 19.4811 16.9527 19.4755C17.3935 19.4591 18.1299 19.4614 19.1618 19.4825C19.1922 19.483 19.1969 19.4942 19.1758 19.5162C18.807 19.8939 18.4083 20.2505 17.9796 20.586" stroke="#FC813E" stroke-width="2"/>
<path d="M10.9256 0.378906H11.5468C13.926 0.465483 16.0703 1.21613 17.9797 2.63085C17.5459 2.97107 17.1404 3.33165 16.7632 3.71259C16.7602 3.71544 16.7581 3.71913 16.7573 3.72317C16.7564 3.72721 16.7568 3.73142 16.7584 3.73523C16.76 3.73904 16.7628 3.74227 16.7662 3.74449C16.7697 3.74672 16.7738 3.74783 16.7779 3.74769L19.1696 3.74839C19.1936 3.7484 19.2172 3.75362 19.2389 3.76369C19.2607 3.77375 19.2799 3.78842 19.2952 3.80665L20.1636 4.83224C20.1665 4.83572 20.1684 4.83997 20.169 4.84448C20.1696 4.849 20.1689 4.8536 20.167 4.85774C20.1651 4.86187 20.162 4.86537 20.1582 4.86782C20.1543 4.87027 20.1499 4.87156 20.1453 4.87155L15.7959 4.87085C15.7803 4.87088 15.765 4.87474 15.7513 4.88208C15.7376 4.88943 15.7259 4.90003 15.7172 4.91297L15.0286 5.94698C15.0255 5.95167 15.0237 5.95711 15.0235 5.96272C15.0232 5.96833 15.0244 5.97389 15.027 5.9788C15.0296 5.98371 15.0335 5.98779 15.0382 5.99059C15.043 5.9934 15.0484 5.99482 15.0539 5.99471H20.8922C20.9189 5.99471 20.9383 6.00641 20.9505 6.02981L21.4987 7.07155C21.5013 7.07637 21.5025 7.08177 21.5024 7.08722C21.5022 7.09268 21.5006 7.09799 21.4978 7.10266C21.495 7.10732 21.491 7.11118 21.4862 7.11384C21.4815 7.11651 21.4761 7.1179 21.4706 7.11788H14.4684C14.4408 7.11788 14.4221 7.13075 14.4123 7.15648L14.0206 8.19822C14.0098 8.22676 14.0196 8.24104 14.05 8.24104H21.8918C21.9208 8.24104 21.9389 8.25508 21.9459 8.28316L22.2133 9.30804C22.2232 9.34548 22.2086 9.3642 22.1698 9.3642H13.7524C13.7248 9.3642 13.7089 9.37777 13.7047 9.40491L13.5425 10.4607C13.542 10.464 13.5422 10.4674 13.5431 10.4707C13.544 10.4739 13.5456 10.4769 13.5477 10.4794C13.5499 10.482 13.5525 10.484 13.5555 10.4854C13.5585 10.4867 13.5617 10.4874 13.565 10.4874H22.3446C22.3646 10.4873 22.3838 10.4951 22.3982 10.509C22.4126 10.5229 22.4211 10.5418 22.4218 10.5618L22.4625 11.5572C22.4628 11.5641 22.4617 11.571 22.4593 11.5774C22.4568 11.5839 22.4531 11.5898 22.4483 11.5948C22.4435 11.5998 22.4378 11.6037 22.4314 11.6064C22.425 11.6091 22.4182 11.6105 22.4113 11.6105H13.5102C13.5052 11.6105 13.5001 11.6115 13.4955 11.6135C13.4908 11.6155 13.4866 11.6183 13.4831 11.622C13.4797 11.6256 13.477 11.6299 13.4752 11.6345C13.4735 11.6392 13.4727 11.6442 13.473 11.6491L13.532 12.6579C13.5348 12.7084 13.5615 12.7337 13.612 12.7337H22.365C22.394 12.7337 22.4061 12.7482 22.4015 12.7772L22.2309 13.8358C22.2299 13.8417 22.2269 13.8471 22.2223 13.851C22.2178 13.8548 22.2122 13.8569 22.2063 13.8568H13.7721C13.7651 13.8568 13.7583 13.8584 13.752 13.8615C13.7458 13.8645 13.7403 13.869 13.736 13.8745C13.7318 13.8799 13.7288 13.8863 13.7274 13.8931C13.726 13.8999 13.7261 13.907 13.7278 13.9137L13.9953 14.9386C14.0028 14.9662 14.0208 14.98 14.0493 14.98H21.8918C21.8972 14.98 21.9025 14.9813 21.9073 14.9838C21.912 14.9863 21.9161 14.9899 21.9191 14.9943C21.9222 14.9987 21.9241 15.0038 21.9247 15.0092C21.9253 15.0145 21.9247 15.0199 21.9227 15.0249L21.531 16.0653C21.5268 16.0764 21.5194 16.086 21.5096 16.0928C21.4998 16.0996 21.4882 16.1032 21.4763 16.1032H14.4572C14.4541 16.1032 14.451 16.1041 14.4483 16.1056C14.4455 16.1071 14.4433 16.1093 14.4416 16.1119C14.44 16.1145 14.4391 16.1175 14.439 16.1205C14.4389 16.1235 14.4396 16.1265 14.441 16.1291L14.9767 17.1863C14.9828 17.1984 14.9921 17.2085 15.0036 17.2156C15.0152 17.2226 15.0284 17.2264 15.0419 17.2263H20.8704C20.8775 17.2263 20.8844 17.2281 20.8905 17.2317C20.8966 17.2353 20.9016 17.2405 20.9049 17.2467C20.9082 17.2529 20.9098 17.26 20.9094 17.267C20.909 17.2741 20.9067 17.2809 20.9027 17.2867L20.2078 18.313C20.2002 18.3242 20.1899 18.3335 20.1779 18.3398C20.1659 18.3462 20.1526 18.3495 20.139 18.3495L15.8106 18.3488C15.7769 18.3488 15.7704 18.3621 15.7909 18.3888C16.046 18.7239 16.3109 19.0437 16.5856 19.3484C16.667 19.4387 16.7894 19.4811 16.9527 19.4755C17.3936 19.4591 18.1299 19.4614 19.1618 19.4825C19.1923 19.483 19.1969 19.4942 19.1759 19.5162C18.8071 19.8938 18.4084 20.2504 17.9797 20.586C16.0834 22.0002 13.9361 22.7523 11.5377 22.8421H10.9164C4.95525 22.6245 0.235864 17.9501 0 11.9692V11.2427C0.262539 5.28431 4.92296 0.585287 10.9256 0.378906Z" fill="#F93232"/>
<path d="M24.3164 0.378906H25.0415C31.0224 0.61477 35.7235 5.29765 35.9411 11.2869V11.9601C35.7031 17.9339 30.9985 22.6344 25.0156 22.8421H24.3248C21.9774 22.7345 19.8623 21.9825 17.9796 20.586C18.4083 20.2504 18.807 19.8938 19.1758 19.5162C19.1969 19.4942 19.1922 19.483 19.1618 19.4825C18.1299 19.4614 17.3935 19.4591 16.9527 19.4755C16.7893 19.4811 16.667 19.4387 16.5855 19.3484C16.3108 19.0437 16.0459 18.7239 15.7909 18.3888C15.7703 18.3621 15.7768 18.3488 15.8105 18.3488L20.1389 18.3495C20.1525 18.3495 20.1659 18.3462 20.1779 18.3398C20.1899 18.3335 20.2001 18.3242 20.2077 18.313L20.9027 17.2867C20.9067 17.2809 20.909 17.2741 20.9093 17.267C20.9097 17.26 20.9082 17.2529 20.9048 17.2467C20.9015 17.2405 20.8965 17.2353 20.8905 17.2317C20.8844 17.2281 20.8774 17.2263 20.8704 17.2263H15.0419C15.0284 17.2264 15.0151 17.2226 15.0036 17.2156C14.992 17.2085 14.9827 17.1984 14.9766 17.1863L14.441 16.1291C14.4395 16.1265 14.4388 16.1235 14.4389 16.1205C14.439 16.1175 14.44 16.1145 14.4416 16.1119C14.4432 16.1093 14.4455 16.1071 14.4482 16.1056C14.4509 16.1041 14.454 16.1032 14.4571 16.1032H21.4762C21.4881 16.1032 21.4997 16.0996 21.5095 16.0928C21.5193 16.086 21.5268 16.0764 21.5309 16.0653L21.9226 15.0249C21.9246 15.0199 21.9253 15.0145 21.9247 15.0092C21.924 15.0038 21.9221 14.9987 21.9191 14.9943C21.916 14.9899 21.912 14.9863 21.9072 14.9838C21.9024 14.9813 21.8971 14.98 21.8918 14.98H14.0493C14.0207 14.98 14.0027 14.9662 13.9952 14.9386L13.7278 13.9137C13.7261 13.907 13.7259 13.8999 13.7273 13.8931C13.7288 13.8863 13.7317 13.8799 13.736 13.8745C13.7403 13.869 13.7457 13.8645 13.752 13.8615C13.7582 13.8584 13.7651 13.8568 13.772 13.8568H22.2062C22.2121 13.8569 22.2178 13.8548 22.2223 13.851C22.2268 13.8471 22.2298 13.8417 22.2308 13.8358L22.4014 12.7772C22.4061 12.7482 22.3939 12.7337 22.3649 12.7337H13.612C13.5614 12.7337 13.5347 12.7084 13.5319 12.6579L13.473 11.6491C13.4727 11.6442 13.4734 11.6392 13.4752 11.6345C13.4769 11.6299 13.4796 11.6256 13.4831 11.622C13.4866 11.6183 13.4908 11.6155 13.4954 11.6135C13.5001 11.6115 13.5051 11.6105 13.5102 11.6105H22.4112C22.4181 11.6105 22.425 11.6091 22.4313 11.6064C22.4377 11.6037 22.4434 11.5998 22.4482 11.5948C22.453 11.5898 22.4567 11.5839 22.4592 11.5774C22.4616 11.571 22.4627 11.5641 22.4625 11.5572L22.4218 10.5618C22.421 10.5418 22.4126 10.5229 22.3982 10.509C22.3838 10.4951 22.3645 10.4873 22.3445 10.4874H13.5649C13.5616 10.4874 13.5584 10.4867 13.5554 10.4854C13.5524 10.484 13.5498 10.482 13.5477 10.4794C13.5455 10.4769 13.5439 10.4739 13.543 10.4707C13.5421 10.4674 13.5419 10.464 13.5425 10.4607L13.7046 9.40491C13.7088 9.37777 13.7247 9.3642 13.7523 9.3642H22.1697C22.2086 9.3642 22.2231 9.34548 22.2133 9.30804L21.9458 8.28316C21.9388 8.25508 21.9208 8.24104 21.8918 8.24104H14.05C14.0196 8.24104 14.0097 8.22676 14.0205 8.19822L14.4122 7.15648C14.422 7.13075 14.4408 7.11788 14.4684 7.11788H21.4706C21.476 7.1179 21.4814 7.11651 21.4862 7.11384C21.4909 7.11118 21.4949 7.10732 21.4977 7.10266C21.5006 7.09799 21.5021 7.09268 21.5023 7.08722C21.5024 7.08177 21.5012 7.07637 21.4987 7.07155L20.9504 6.02981C20.9382 6.00641 20.9188 5.99471 20.8921 5.99471H15.0538C15.0483 5.99482 15.0429 5.9934 15.0382 5.99059C15.0334 5.98779 15.0296 5.98371 15.027 5.9788C15.0244 5.97389 15.0231 5.96833 15.0234 5.96272C15.0237 5.95711 15.0255 5.95167 15.0285 5.94698L15.7172 4.91297C15.7258 4.90003 15.7375 4.88943 15.7512 4.88208C15.7649 4.87474 15.7802 4.87088 15.7958 4.87085L20.1452 4.87155C20.1498 4.87156 20.1543 4.87027 20.1581 4.86782C20.162 4.86537 20.165 4.86187 20.1669 4.85774C20.1689 4.8536 20.1696 4.849 20.1689 4.84448C20.1683 4.83997 20.1664 4.83572 20.1635 4.83224L19.2951 3.80665C19.2798 3.78842 19.2606 3.77375 19.2389 3.76369C19.2172 3.75362 19.1935 3.7484 19.1695 3.74839L16.7779 3.74769C16.7737 3.74783 16.7697 3.74672 16.7662 3.74449C16.7627 3.74227 16.76 3.73904 16.7584 3.73523C16.7568 3.73142 16.7564 3.72721 16.7572 3.72317C16.7581 3.71913 16.7601 3.71544 16.7631 3.71259C17.1403 3.33165 17.5458 2.97107 17.9796 2.63085C18.3348 2.38094 18.5843 2.21083 18.728 2.12051C20.4305 1.0507 22.2933 0.470163 24.3164 0.378906Z" fill="#FED049"/>
</svg>
