<svg width="160" height="100" viewBox="0 0 160 100" fill="none" xmlns="http://www.w3.org/2000/svg">
<path d="M62.3156 0.0864279C63.1326 1.4353 64.6931 1.19346 65.5157 0.0468161C65.5253 0.0335255 65.5373 0.0225531 65.5509 0.0145719C65.5645 0.00659065 65.5794 0.00176949 65.5947 0.000402999C65.6101 -0.000963493 65.6255 0.0011536 65.6401 0.00662535C65.6546 0.0120971 65.668 0.0208075 65.6795 0.0322226L66.0333 0.388724C66.0785 0.4332 66.0835 0.482542 66.0484 0.536747C64.9867 2.22127 62.7731 2.20251 61.7283 0.503389C61.7183 0.487563 61.7113 0.469628 61.7077 0.45069C61.7042 0.431752 61.7042 0.41221 61.7077 0.393267C61.7112 0.374324 61.7182 0.356382 61.7283 0.340542C61.7383 0.324702 61.7511 0.3113 61.766 0.301163L62.1331 0.0447325C62.2058 -0.00669273 62.2667 0.00720534 62.3156 0.0864279Z" fill="#FA06FB"/>
<path d="M57.6036 9.54681C56.7703 11.3828 55.3529 12.3126 53.3513 12.3363C50.0214 12.3759 47.8002 9.50094 48.7696 5.84628C49.6167 2.64819 53.1179 1.75381 55.6196 3.08808C57.4819 4.08184 58.2549 5.90535 57.9386 8.55861C57.911 8.78655 57.7993 9.11595 57.6036 9.54681ZM57.1206 7.06153C57.1191 6.58269 57.0324 6.10887 56.8656 5.66712C56.6987 5.22537 56.4549 4.82434 56.1482 4.48693C55.8414 4.14952 55.4776 3.88234 55.0776 3.70064C54.6776 3.51894 54.2492 3.42628 53.8168 3.42795L52.7514 3.43207C51.8782 3.43545 51.0421 3.82285 50.4268 4.50905C49.8115 5.19525 49.4676 6.12404 49.4706 7.09109L49.4728 7.78742C49.4743 8.26626 49.561 8.74008 49.7278 9.18183C49.8947 9.62358 50.1385 10.0246 50.4452 10.362C50.752 10.6994 51.1158 10.9666 51.5158 11.1483C51.9158 11.33 52.3442 11.4227 52.7766 11.421L53.842 11.4169C54.7152 11.4135 55.5514 11.0261 56.1666 10.3399C56.7819 9.6537 57.1258 8.72491 57.1228 7.75786L57.1206 7.06153Z" fill="#FA06FB"/>
<path d="M83.5146 10.5064C82.3224 11.8782 80.8843 12.5002 79.2002 12.3723C76.7807 12.1875 75.362 10.8455 74.9441 8.34656C74.6932 6.84967 74.9579 5.53555 75.7385 4.4042C77.6228 1.67519 81.54 2.01709 83.5108 4.36875C83.526 4.38697 83.5375 4.40857 83.5446 4.43206C83.5517 4.45555 83.5541 4.4804 83.5518 4.50491C83.5495 4.52943 83.5425 4.55304 83.5312 4.57415C83.5199 4.59526 83.5046 4.61338 83.4864 4.62727L83.0478 4.965C82.9963 5.00531 82.9486 5.00045 82.9047 4.95041C81.3819 3.21377 78.9385 2.78847 77.1428 4.14568C75.2698 5.56126 75.3074 9.4244 77.3084 10.8129C79.0948 12.0533 81.4553 11.5843 82.9028 9.84136C82.9405 9.79689 82.9819 9.79272 83.0271 9.82886L83.4901 10.1979C83.5116 10.2154 83.5294 10.2377 83.5425 10.2634C83.5556 10.289 83.5635 10.3174 83.5658 10.3467C83.5682 10.3759 83.5648 10.4053 83.5559 10.4329C83.5471 10.4604 83.533 10.4855 83.5146 10.5064Z" fill="#FA06FB"/>
<path d="M93.7618 9.4509C92.4159 13.1097 87.3015 13.314 85.3814 10.2181C84.6799 9.08676 84.4823 7.74136 84.7885 6.18193C85.4097 3.01928 88.4704 1.93309 91.0097 2.75868C93.6488 3.61553 94.7689 6.70938 93.7618 9.4509ZM93.2166 7.06155C93.2151 6.58243 93.1284 6.10834 92.9615 5.66634C92.7946 5.22433 92.5506 4.82308 92.2437 4.48548C91.9367 4.14788 91.5727 3.88054 91.1725 3.69874C90.7722 3.51694 90.3436 3.42422 89.911 3.4259L88.8607 3.42996C87.987 3.43334 87.1503 3.82096 86.5347 4.50755C85.9191 5.19414 85.575 6.12346 85.578 7.09107L85.5802 7.79156C85.5817 8.27068 85.6684 8.74477 85.8354 9.18677C86.0023 9.62877 86.2462 10.03 86.5532 10.3676C86.8601 10.7052 87.2241 10.9726 87.6244 11.1544C88.0246 11.3362 88.4533 11.4289 88.8859 11.4272L89.9362 11.4231C90.8099 11.4198 91.6465 11.0321 92.2621 10.3456C92.8778 9.65897 93.2219 8.72965 93.2189 7.76204L93.2166 7.06155Z" fill="#FA06FB"/>
<path d="M97.9638 11.9592C95.2871 10.8084 94.5774 6.87648 96.1737 4.45602C98.0128 1.66239 102.096 1.9897 103.999 4.43726C104.046 4.49702 104.04 4.54984 103.98 4.59571L103.477 4.96889C103.43 5.00502 103.386 5.00016 103.346 4.95429C101.968 3.40459 100.342 2.96261 98.4683 3.62836C96.0927 4.4727 95.5393 8.14404 97.0565 10.0704C97.8082 11.0239 98.8071 11.4999 100.053 11.4985C101.293 11.4985 102.387 10.9613 103.334 9.88694C103.386 9.82857 103.442 9.82231 103.504 9.86818L103.997 10.2309C104.052 10.2726 104.059 10.3227 104.018 10.381C102.583 12.3783 99.9817 12.8265 97.9638 11.9592Z" fill="#FA06FB"/>
<path d="M41.5359 11.1457L45.2762 2.77937C45.2886 2.75201 45.3077 2.72908 45.3313 2.71322C45.355 2.69736 45.3822 2.68921 45.4098 2.68972L46.8856 2.71891C46.9262 2.71946 46.965 2.73771 46.9935 2.76971C47.0221 2.80171 47.0381 2.84488 47.0381 2.88986L47.0437 12.0109C47.045 12.0832 47.013 12.1186 46.9477 12.1172L46.2343 12.111C46.1653 12.111 46.1301 12.072 46.1289 11.9942C46.1201 9.2089 46.1075 6.42917 46.0912 3.65499C46.09 3.47986 46.0053 3.45762 45.8371 3.58827C45.8186 3.60192 45.8037 3.62061 45.7938 3.64248L41.9895 12.0088C41.9632 12.0672 41.9205 12.0971 41.8615 12.0984L41.0389 12.1193C40.9737 12.1207 40.9254 12.0894 40.894 12.0255L36.9805 3.67792C36.9536 3.62102 36.9115 3.57506 36.86 3.54657C36.6668 3.44233 36.5708 3.49515 36.572 3.70502C36.5758 6.47364 36.5733 9.24296 36.5645 12.013C36.5645 12.0797 36.5338 12.1137 36.4723 12.1151H35.8624C35.7934 12.1151 35.7589 12.0762 35.7589 11.9984L35.7476 2.81689C35.7476 2.7335 35.7846 2.6925 35.8586 2.69389L37.3325 2.72308C37.3673 2.72378 37.4011 2.73485 37.4303 2.75507C37.4595 2.77529 37.483 2.80388 37.4982 2.83774L41.3665 11.1478C41.3743 11.1653 41.3865 11.18 41.4016 11.1902C41.4167 11.2005 41.4341 11.2058 41.4518 11.2055C41.4694 11.2053 41.4867 11.1996 41.5016 11.189C41.5165 11.1784 41.5283 11.1634 41.5359 11.1457Z" fill="#FA06FB"/>
<path d="M106.542 11.2704L113.195 11.2599C113.211 11.2599 113.227 11.2671 113.239 11.28C113.251 11.2928 113.258 11.3103 113.259 11.3287L113.276 12.0188C113.276 12.0283 113.274 12.0377 113.271 12.0466C113.268 12.0554 113.263 12.0635 113.258 12.0703C113.252 12.0771 113.244 12.0825 113.237 12.0862C113.229 12.0899 113.22 12.0918 113.212 12.0918L105.661 12.1001C105.644 12.1001 105.628 12.0926 105.616 12.0793C105.604 12.0661 105.597 12.048 105.597 12.0292L105.59 2.76644C105.59 2.74764 105.597 2.72961 105.609 2.71632C105.621 2.70302 105.637 2.69556 105.654 2.69556L112.875 2.70806C112.891 2.70803 112.907 2.71493 112.919 2.72733C112.931 2.73973 112.938 2.75671 112.939 2.77478L112.973 3.49612C112.973 3.50577 112.972 3.51544 112.969 3.52453C112.966 3.53362 112.961 3.54193 112.955 3.54896C112.949 3.55599 112.942 3.56159 112.934 3.56541C112.926 3.56923 112.917 3.57119 112.909 3.57117L106.525 3.54616C106.508 3.54616 106.492 3.55362 106.48 3.56692C106.468 3.58021 106.461 3.59824 106.461 3.61704L106.473 6.7922C106.473 6.811 106.479 6.82903 106.491 6.84232C106.503 6.85561 106.52 6.86308 106.537 6.86308L112.261 6.86933C112.269 6.86933 112.278 6.87117 112.285 6.87473C112.293 6.87829 112.3 6.88352 112.306 6.8901C112.312 6.89668 112.317 6.90449 112.32 6.91309C112.323 6.92169 112.325 6.93091 112.325 6.94022L112.331 7.65531C112.331 7.66462 112.329 7.67383 112.326 7.68243C112.323 7.69103 112.318 7.69885 112.312 7.70543C112.306 7.71201 112.299 7.71723 112.291 7.72079C112.283 7.72436 112.275 7.72619 112.267 7.72619L106.52 7.71577C106.503 7.71577 106.486 7.72324 106.474 7.73653C106.462 7.74982 106.456 7.76785 106.456 7.78665L106.478 11.1995C106.478 11.2183 106.485 11.2363 106.497 11.2496C106.509 11.2629 106.525 11.2704 106.542 11.2704Z" fill="#FA06FB"/>
<path d="M123.767 12.0998L115.36 12.0915C115.324 12.0915 115.289 12.1072 115.263 12.1352C115.237 12.1632 115.222 12.2014 115.221 12.2416L115.172 14.0783C115.171 14.1189 115.156 14.1574 115.129 14.1855C115.103 14.2136 115.068 14.229 115.031 14.2284L114.585 14.218C114.548 14.2175 114.513 14.201 114.488 14.1721C114.462 14.1432 114.447 14.1043 114.447 14.0637L114.446 11.366C114.446 11.345 114.449 11.3243 114.457 11.305C114.464 11.2857 114.475 11.2683 114.489 11.2539C114.503 11.2394 114.519 11.2282 114.537 11.221C114.555 11.2137 114.573 11.2106 114.592 11.2117L115.519 11.2638C115.552 11.2656 115.584 11.2542 115.611 11.2316C115.637 11.2091 115.655 11.1769 115.662 11.1408L117.254 2.82247C117.261 2.78788 117.278 2.75679 117.302 2.73441C117.327 2.71202 117.358 2.69968 117.39 2.69946L123.487 2.70989C123.524 2.70989 123.559 2.72614 123.585 2.75507C123.611 2.78401 123.626 2.82325 123.626 2.86416V11.1283C123.626 11.1489 123.63 11.1694 123.637 11.1883C123.644 11.2073 123.655 11.2245 123.668 11.2389C123.681 11.2533 123.697 11.2646 123.715 11.2721C123.732 11.2796 123.75 11.2832 123.769 11.2826L124.56 11.2576C124.578 11.257 124.597 11.2606 124.614 11.2681C124.631 11.2756 124.647 11.2869 124.661 11.3013C124.674 11.3157 124.684 11.3329 124.692 11.3518C124.699 11.3708 124.703 11.3913 124.703 11.4119L124.714 14.0679C124.714 14.0887 124.711 14.1093 124.704 14.1286C124.696 14.1478 124.686 14.1653 124.672 14.1799C124.659 14.1945 124.643 14.2059 124.626 14.2136C124.608 14.2212 124.59 14.2248 124.571 14.2243L124.144 14.2159C124.109 14.2155 124.075 14.2004 124.049 14.1738C124.024 14.1471 124.009 14.1108 124.006 14.0721L123.906 12.2437C123.904 12.2046 123.888 12.168 123.862 12.1413C123.837 12.1146 123.802 12.0998 123.767 12.0998ZM116.567 11.145C116.564 11.1581 116.565 11.1716 116.567 11.1846C116.57 11.1976 116.576 11.2097 116.583 11.2201C116.591 11.2305 116.6 11.2389 116.611 11.2446C116.622 11.2504 116.634 11.2534 116.646 11.2534H122.647C122.669 11.2534 122.689 11.244 122.704 11.2272C122.719 11.2103 122.728 11.1875 122.728 11.1638V3.66056C122.728 3.64879 122.726 3.63713 122.722 3.62625C122.718 3.61538 122.712 3.60549 122.704 3.59717C122.697 3.58884 122.688 3.58224 122.678 3.57774C122.668 3.57323 122.658 3.57091 122.647 3.57091L118.054 3.56049C118.036 3.56051 118.018 3.56756 118.003 3.58046C117.989 3.59336 117.979 3.61133 117.975 3.63137L116.567 11.145Z" fill="#FA06FB"/>
<path d="M60.5408 10.8173L67.2797 2.73037C67.2864 2.72229 67.2945 2.71589 67.3036 2.71157C67.3127 2.70726 67.3225 2.70514 67.3324 2.70535L68.2058 2.72203C68.2239 2.72257 68.2412 2.73094 68.2538 2.74535C68.2665 2.75976 68.2736 2.77907 68.2736 2.79917L68.2773 12.0515C68.2773 12.0618 68.2755 12.072 68.2719 12.0815C68.2682 12.091 68.2629 12.0996 68.2563 12.1068C68.2496 12.114 68.2417 12.1197 68.233 12.1234C68.2244 12.1272 68.2151 12.1289 68.2058 12.1287L67.4547 12.1141C67.4366 12.1135 67.4194 12.1052 67.4067 12.0908C67.394 12.0764 67.387 12.057 67.387 12.0369V4.11259C67.3869 4.09718 67.3826 4.08215 67.3747 4.06946C67.3668 4.05676 67.3556 4.04698 67.3427 4.04137C67.3297 4.03576 67.3155 4.03458 67.3019 4.03798C67.2884 4.04139 67.276 4.04922 67.2665 4.06047L60.5803 12.0661C60.5681 12.0809 60.5513 12.0899 60.5332 12.0911L59.6335 12.1245C59.6242 12.1248 59.6149 12.123 59.6062 12.1192C59.5976 12.1155 59.5897 12.1098 59.583 12.1027C59.5763 12.0955 59.571 12.0869 59.5674 12.0774C59.5638 12.0679 59.5619 12.0577 59.5619 12.0474L59.5525 2.78457C59.5523 2.77409 59.5539 2.76366 59.5574 2.75392C59.5609 2.74418 59.5662 2.73533 59.5729 2.72792C59.5796 2.7205 59.5876 2.71468 59.5964 2.7108C59.6052 2.70692 59.6146 2.70506 59.624 2.70535L60.3525 2.71786C60.371 2.71786 60.3887 2.72599 60.4018 2.74045C60.4148 2.75492 60.4222 2.77454 60.4222 2.795L60.4203 10.7652C60.4204 10.7806 60.4247 10.7957 60.4326 10.8083C60.4405 10.821 60.4516 10.8308 60.4646 10.8364C60.4776 10.8421 60.4917 10.8432 60.5053 10.8398C60.5189 10.8364 60.5312 10.8286 60.5408 10.8173Z" fill="#FA06FB"/>
<path d="M126.815 23.3075C126.815 23.6923 126.677 24.0614 126.431 24.3335C126.185 24.6056 125.852 24.7585 125.505 24.7585H118.336C117.989 24.7585 117.656 24.6056 117.41 24.3335C117.164 24.0614 117.026 23.6923 117.026 23.3075V19.5423C117.026 19.1575 117.164 18.7884 117.41 18.5163C117.656 18.2442 117.989 18.0913 118.336 18.0913H125.505C125.852 18.0913 126.185 18.2442 126.431 18.5163C126.677 18.7884 126.815 19.1575 126.815 19.5423V23.3075ZM125.938 19.486C125.938 19.3644 125.894 19.2477 125.816 19.1617C125.739 19.0757 125.633 19.0274 125.523 19.0274H118.269C118.159 19.0274 118.054 19.0757 117.976 19.1617C117.898 19.2477 117.855 19.3644 117.855 19.486V23.3429C117.855 23.4646 117.898 23.5812 117.976 23.6673C118.054 23.7533 118.159 23.8016 118.269 23.8016H125.523C125.633 23.8016 125.739 23.7533 125.816 23.6673C125.894 23.5812 125.938 23.4646 125.938 23.3429V19.486Z" fill="#FEFD09"/>
<path d="M140.392 23.3054C140.392 23.6908 140.253 24.0604 140.007 24.3329C139.761 24.6054 139.428 24.7585 139.08 24.7585H131.915C131.567 24.7585 131.234 24.6054 130.988 24.3329C130.741 24.0604 130.603 23.6908 130.603 23.3054V19.5444C130.603 19.159 130.741 18.7894 130.988 18.5169C131.234 18.2444 131.567 18.0913 131.915 18.0913H139.08C139.428 18.0913 139.761 18.2444 140.007 18.5169C140.253 18.7894 140.392 19.159 140.392 19.5444V23.3054ZM139.486 19.4589C139.486 19.3445 139.445 19.2347 139.372 19.1538C139.299 19.0729 139.2 19.0274 139.097 19.0274H131.819C131.716 19.0274 131.617 19.0729 131.544 19.1538C131.471 19.2347 131.43 19.3445 131.43 19.4589V23.37C131.43 23.4845 131.471 23.5943 131.544 23.6752C131.617 23.7561 131.716 23.8016 131.819 23.8016H139.097C139.2 23.8016 139.299 23.7561 139.372 23.6752C139.445 23.5943 139.486 23.4845 139.486 23.37V19.4589Z" fill="#FEFD09"/>
<path d="M153.95 23.3351C153.949 23.7149 153.812 24.079 153.569 24.3471C153.327 24.6152 152.997 24.7655 152.654 24.7648L145.467 24.7509C145.298 24.7506 145.13 24.7132 144.973 24.641C144.816 24.5687 144.674 24.4629 144.554 24.3297C144.434 24.1964 144.339 24.0384 144.274 23.8645C144.209 23.6906 144.176 23.5043 144.177 23.3162L144.183 19.5135C144.183 19.1336 144.32 18.7696 144.563 18.5015C144.806 18.2333 145.135 18.0831 145.478 18.0837L152.665 18.0976C152.835 18.098 153.003 18.1353 153.16 18.2076C153.316 18.2799 153.459 18.3857 153.579 18.5189C153.699 18.6521 153.794 18.8102 153.858 18.9841C153.923 19.158 153.956 19.3443 153.956 19.5324L153.95 23.3351ZM153.064 19.475C153.064 19.3561 153.022 19.2421 152.946 19.158C152.87 19.074 152.767 19.0268 152.66 19.0268H145.39C145.283 19.0268 145.18 19.074 145.104 19.158C145.028 19.2421 144.985 19.3561 144.985 19.475V23.3527C144.985 23.4716 145.028 23.5856 145.104 23.6697C145.18 23.7537 145.283 23.801 145.39 23.801H152.66C152.767 23.801 152.87 23.7537 152.946 23.6697C153.022 23.5856 153.064 23.4716 153.064 23.3527V19.475Z" fill="#FEFD09"/>
<path d="M26.2317 28.1924C26.1664 28.2508 26.1338 28.3265 26.1338 28.4196C26.1413 34.5684 26.1413 40.7248 26.1338 46.8889C26.1338 48.1461 25.6651 48.6944 24.5564 48.7048C21.2509 48.734 18.7743 48.734 17.1266 48.7048C16.6535 48.6964 16.2921 48.5074 16.0424 48.1377C15.8755 47.8889 15.792 47.5005 15.792 46.9723C15.782 40.7735 15.7814 34.6157 15.7901 28.4989C15.7901 28.3932 15.7523 28.292 15.6848 28.2173C15.6174 28.1426 15.526 28.1007 15.4306 28.1007C13.045 28.1007 10.6726 28.1013 8.31334 28.1027C6.98814 28.1027 6.45355 27.6774 6.4479 26.2097C6.43912 24.3501 6.44037 22.4904 6.45167 20.6308C6.4592 19.4174 6.78673 18.7107 7.95004 18.7107C16.5952 18.7121 25.2397 18.7128 33.8835 18.7128C34.7476 18.7128 35.3857 19.1026 35.3913 20.1179C35.4026 22.2792 35.4001 24.4397 35.3838 26.5996C35.3813 27.0027 35.3022 27.3182 35.1466 27.5461C34.8969 27.9116 34.5851 28.0951 34.2111 28.0965C31.6209 28.1034 29.032 28.1152 26.4444 28.1319C26.3465 28.1333 26.2756 28.1535 26.2317 28.1924ZM14.9299 27.1271C15.8541 27.1354 16.6353 27.4252 16.6372 28.5635C16.6535 34.8318 16.6535 41.0807 16.6372 47.31C16.6372 47.4245 16.6783 47.5343 16.7513 47.6152C16.8244 47.6961 16.9235 47.7416 17.0269 47.7416L24.8896 47.7458C24.9799 47.7458 25.0666 47.7058 25.1305 47.6346C25.1944 47.5635 25.2303 47.467 25.2303 47.3663C25.2278 41.1314 25.2278 34.9214 25.2303 28.7365C25.2303 27.6003 25.8703 27.1125 26.8717 27.1125C29.3263 27.1111 31.7521 27.1118 34.149 27.1145C34.2628 27.1145 34.372 27.0645 34.4524 26.9753C34.5329 26.8862 34.5781 26.7653 34.5781 26.6392L34.58 20.12C34.58 20.0587 34.5692 19.998 34.5481 19.9413C34.527 19.8847 34.4961 19.8332 34.4571 19.7898C34.4181 19.7464 34.3718 19.712 34.3209 19.6886C34.27 19.6651 34.2154 19.653 34.1603 19.653H7.7091C7.60758 19.653 7.51019 19.6975 7.43823 19.7769C7.36627 19.8562 7.32559 19.9638 7.32509 20.0762L7.32133 26.6913C7.32133 26.7474 7.33132 26.8028 7.35074 26.8546C7.37015 26.9063 7.39861 26.9533 7.43446 26.9928C7.47032 27.0323 7.51288 27.0636 7.55968 27.0849C7.60649 27.1061 7.65663 27.1169 7.70721 27.1166C10.1167 27.1027 12.5242 27.1062 14.9299 27.1271Z" fill="#FEFD09"/>
<path d="M106.887 33.9023C106.839 34.0747 106.865 34.2401 106.964 34.3985C109.442 38.3999 111.916 42.4042 114.384 46.4112C115.058 47.5057 114.388 48.6815 113.241 48.6982C109.917 48.7454 107.401 48.7461 105.693 48.7003C105.33 48.6905 105.036 48.4918 104.808 48.104C103.231 45.4174 101.687 42.7349 100.178 40.0567C100.15 40.0063 100.112 39.963 100.068 39.9296C100.023 39.8963 99.9733 39.8735 99.9204 39.8629C99.8676 39.8523 99.8133 39.8541 99.761 39.8681C99.7088 39.882 99.6596 39.9079 99.6168 39.9441L98.3331 41.0303C98.2804 41.0748 98.254 41.1338 98.254 41.2075C98.259 43.2061 98.2584 45.2013 98.2521 47.193C98.2465 48.669 97.2074 48.7065 96.1853 48.7149C94.1473 48.7302 92.1099 48.7274 90.0732 48.7065C89.004 48.6961 88.4675 48.1999 88.4675 47.0241C88.47 38.2054 88.47 29.3866 88.4675 20.5679C88.4675 20.0745 88.5177 19.7173 88.6181 19.4963C88.8384 19.0147 89.2129 18.7249 89.7344 18.7229C92.1677 18.7131 94.6016 18.7104 97.0361 18.7145C97.4427 18.7159 97.7677 18.8959 98.0112 19.2545C98.1706 19.4866 98.2509 19.8243 98.2521 20.2677C98.2597 23.5534 98.2597 26.8334 98.2521 30.108C98.252 30.196 98.2745 30.2822 98.3169 30.3566C98.3593 30.431 98.4199 30.4906 98.4917 30.5284C98.5635 30.5661 98.6434 30.5806 98.7223 30.57C98.8012 30.5594 98.8758 30.5243 98.9373 30.4687L103.376 26.4637C103.511 26.3423 103.68 26.2754 103.854 26.274C106.511 26.2712 109.21 26.2712 111.952 26.274C112.793 26.2761 113.356 27.3414 113.061 28.1587C112.963 28.4311 112.717 28.739 112.323 29.0823C110.535 30.6389 108.762 32.181 107.005 33.7084C106.949 33.7587 106.907 33.8263 106.887 33.9023ZM106.241 34.828C105.934 34.3297 105.957 33.4499 106.356 33.1018C108.261 31.4311 110.183 29.748 112.123 28.0524C112.201 27.9837 112.254 27.886 112.272 27.7772C112.332 27.4033 112.179 27.2164 111.811 27.2164C109.223 27.2205 106.658 27.2177 104.116 27.208C103.957 27.2067 103.801 27.2687 103.677 27.3831C102.412 28.5451 101.122 29.7174 99.807 30.9002C99.4531 31.2192 99.1689 31.534 98.6983 31.5111C97.6178 31.461 97.4107 30.6104 97.4145 29.5326C97.4233 26.372 97.4239 23.2358 97.4164 20.1239C97.4164 19.9994 97.3715 19.8801 97.2917 19.7922C97.212 19.7042 97.1038 19.6548 96.9909 19.6548H89.7494C89.6401 19.6548 89.5352 19.7031 89.4579 19.7891C89.3806 19.8751 89.3372 19.9918 89.3372 20.1134L89.3391 47.3264C89.3391 47.4361 89.3783 47.5413 89.4481 47.619C89.518 47.6968 89.6128 47.7407 89.7118 47.7413L96.9439 47.7475C97.009 47.7475 97.0734 47.7332 97.1334 47.7053C97.1934 47.6774 97.2477 47.6365 97.2933 47.5851C97.3389 47.5336 97.3747 47.4727 97.3988 47.4057C97.4228 47.3387 97.4345 47.2671 97.4333 47.195C97.4044 45.277 97.4057 43.3347 97.4371 41.368C97.4484 40.6321 97.6422 40.4611 98.1185 40.0421C99.135 39.1477 100.059 38.1491 101.042 39.8586C102.531 42.4452 103.991 44.9893 105.42 47.4911C105.465 47.5685 105.526 47.6321 105.598 47.6762C105.671 47.7203 105.752 47.7434 105.834 47.7434L113.413 47.7454C113.486 47.7454 113.558 47.7232 113.62 47.6814C113.683 47.6397 113.734 47.5798 113.768 47.5082C113.803 47.4366 113.819 47.3561 113.815 47.2752C113.811 47.1943 113.787 47.1162 113.746 47.0491C111.234 42.9545 108.732 38.8808 106.241 34.828Z" fill="#FEFD09"/>
<path d="M48.8893 41.9907C48.9482 41.6793 48.8403 41.4778 48.5655 41.3861C47.6638 41.0817 46.5947 41.0192 45.8624 40.867C45.1659 40.7224 44.4669 40.5911 43.7654 40.4729C40.4882 39.9163 35.9837 38.6571 35.1498 34.3353C34.9478 33.2887 34.9885 32.2602 35.2721 31.2498C37.0039 25.0704 46.2125 25.258 50.5872 25.9439C53.5049 26.4026 56.3265 27.9954 57.5106 31.0767C58.0395 32.4485 57.4673 33.2616 56.2155 33.3658C54.1323 33.5396 52.0517 33.7481 49.9735 33.9913C48.957 34.1101 48.8309 32.7758 48.1514 32.4986C47.0081 32.0274 45.8549 31.9982 44.6916 32.411C44.4393 32.4999 44.2818 32.6389 44.2191 32.828C44.2032 32.8767 44.1966 32.9286 44.1998 32.9804C44.203 33.0321 44.2159 33.0825 44.2377 33.1284C44.2595 33.1743 44.2897 33.2147 44.3264 33.247C44.363 33.2792 44.4053 33.3027 44.4506 33.3158C46.0092 33.7599 47.6318 33.9121 49.2544 34.2081C51.935 34.698 55.4625 35.2401 57.2376 37.6981C58.0558 38.8308 58.4235 40.2005 58.3407 41.8072C58.1167 46.1478 55.0164 48.3181 51.4719 48.9268C48.7914 49.3883 46.0331 49.4439 43.197 49.0936C39.739 48.6662 36.0326 47.1944 34.8317 43.1957C34.6648 42.6411 34.624 42.1943 34.7093 41.8552C34.8976 41.1109 35.4378 40.8211 36.1418 40.8169C38.0305 40.81 39.9191 40.8128 41.8078 40.8253C42.7602 40.8315 43.3494 40.7461 43.8596 41.5133C44.0955 41.8705 44.2643 42.0838 44.3659 42.1533C45.2544 42.7558 47.9537 42.9497 48.6897 42.2596C48.8102 42.1484 48.8767 42.0588 48.8893 41.9907ZM43.5339 32.3172C44.2247 31.0496 46.2295 31.0851 47.3834 31.2644C48.3371 31.4131 49.0624 31.9322 49.5594 32.8217C49.5933 32.8829 49.6416 32.9211 49.7043 32.9364C49.8537 32.9725 50.0068 32.9836 50.1636 32.9697C52.1941 32.7765 54.2258 32.591 56.2588 32.4131C56.7087 32.3735 57.0437 32.1733 56.8254 31.6083C55.5566 28.3269 52.6616 27.126 49.6422 26.7591C45.644 26.2712 36.1926 26.1899 35.9159 32.8113C35.722 37.4291 39.9348 38.6738 43.1047 39.3972C43.7824 39.5528 45.2469 39.8155 47.4982 40.1852C48.0761 40.2811 49.5669 40.6126 49.6742 41.4132C49.811 42.4347 49.4552 43.0734 48.6069 43.3291C47.1575 43.7648 43.9518 43.9004 43.1706 42.0053C43.1363 41.9225 43.0812 41.8524 43.0118 41.8032C42.9424 41.754 42.8616 41.7279 42.7791 41.728C40.5365 41.728 38.3022 41.7349 36.0759 41.7488C35.7258 41.7509 35.4397 41.9823 35.5263 42.3868C36.2642 45.8893 39.1348 47.3862 42.0675 47.9511C44.9175 48.4987 47.8195 48.5453 50.7735 48.0908C54.5402 47.5092 58.1562 45.3472 57.3713 40.425C57.1002 38.73 56.3021 37.4979 54.9072 36.812C51.9745 35.3714 48.6107 34.9962 45.4088 34.5396C44.3189 34.3832 42.7734 33.7098 43.5339 32.3172Z" fill="#FEFD09"/>
<path d="M83.8542 27.6248C83.8542 27.5142 83.8145 27.4082 83.7439 27.33C83.6733 27.2518 83.5776 27.2079 83.4777 27.2079L76.1816 27.2141C76.0741 27.2141 75.971 27.2615 75.8948 27.3459C75.8186 27.4303 75.7755 27.5448 75.775 27.6644C75.77 31.0432 75.7662 34.4463 75.7637 37.8737C75.7612 39.789 74.9581 41.101 73.3543 41.8098C71.5077 42.6271 69.3881 41.6201 69.3919 39.1997C69.3994 35.3247 69.4069 31.4859 69.4145 27.6832C69.4145 27.5577 69.3694 27.4373 69.2893 27.3486C69.2092 27.2598 69.1005 27.21 68.9872 27.21L61.7833 27.2141C61.4708 27.2141 61.3146 27.3872 61.3146 27.7332C61.3146 31.5707 61.3146 35.3921 61.3146 39.1976C61.3159 41.2087 61.4087 42.5903 61.5932 43.3422C62.4139 46.6904 65.0022 48.2561 68.029 48.3916C70.7535 48.5125 73.1391 47.4687 75.1858 45.2602C75.207 45.2381 75.2351 45.2259 75.2639 45.2263C75.2928 45.2267 75.3202 45.2396 75.3402 45.2623L75.7694 45.7439C75.8196 45.8009 75.8196 45.8578 75.7694 45.9148C73.8619 48.0719 71.5252 49.2081 68.7594 49.3235C65.0925 49.4757 61.7005 47.5785 60.7292 43.4485C60.5522 42.6966 60.4613 41.3144 60.4562 39.3018C60.4449 35.4116 60.4443 31.5206 60.4544 27.629C60.4556 27.1731 60.6231 26.8111 60.9569 26.5428C61.1766 26.3663 61.4984 26.2774 61.9226 26.276C64.1865 26.269 66.4497 26.269 68.7123 26.276C69.6573 26.2801 70.2408 26.7263 70.2427 27.8C70.244 31.5484 70.2427 35.2962 70.2389 39.0433C70.2352 42.3019 73.7816 41.247 74.6814 39.331C74.8345 39.0058 74.9116 38.584 74.9129 38.0655C74.9179 34.7187 74.9179 31.3726 74.9129 28.0272C74.9129 26.9306 75.2818 26.2739 76.3059 26.2739C78.6061 26.2725 80.9058 26.2739 83.2048 26.2781C84.0349 26.2781 84.6975 26.7346 84.6994 27.702C84.7044 34.1204 84.705 40.5388 84.7013 46.9572C84.7013 48.1581 84.2081 48.7022 83.1596 48.7106C81.025 48.7272 78.891 48.7258 76.7576 48.7064C75.6734 48.698 75.0051 48.1247 75.1162 46.8613C75.1237 46.7668 75.1701 46.7217 75.2555 46.7258L75.9369 46.7633C75.9533 46.764 75.9694 46.7689 75.9838 46.7777C75.9982 46.7864 76.0106 46.7988 76.0199 46.8138C76.0292 46.8288 76.0353 46.846 76.0375 46.864C76.0398 46.882 76.0382 46.9004 76.0329 46.9176C75.7938 47.6723 76.2306 47.7536 76.7633 47.7515C78.9732 47.7376 81.1787 47.7383 83.3798 47.7536C83.4423 47.7539 83.5042 47.7405 83.5619 47.7142C83.6197 47.688 83.6722 47.6493 83.7165 47.6005C83.7607 47.5517 83.7958 47.4937 83.8198 47.4298C83.8437 47.3659 83.8561 47.2974 83.8561 47.2283L83.8542 27.6248Z" fill="#FEFD09"/>
<path d="M126.773 47.2524C126.773 47.64 126.634 48.0117 126.387 48.2858C126.139 48.5598 125.804 48.7138 125.454 48.7138H118.29C117.94 48.7138 117.604 48.5598 117.356 48.2858C117.109 48.0117 116.97 47.64 116.97 47.2524V27.7302C116.97 27.3426 117.109 26.9709 117.356 26.6968C117.604 26.4228 117.94 26.2688 118.29 26.2688H125.454C125.804 26.2688 126.139 26.4228 126.387 26.6968C126.634 26.9709 126.773 27.3426 126.773 27.7302V47.2524ZM125.902 27.6448C125.902 27.5298 125.861 27.4195 125.787 27.3381C125.714 27.2568 125.614 27.2111 125.51 27.2111H118.222C118.118 27.2111 118.018 27.2568 117.945 27.3381C117.871 27.4195 117.83 27.5298 117.83 27.6448V47.3087C117.83 47.4237 117.871 47.534 117.945 47.6153C118.018 47.6966 118.118 47.7423 118.222 47.7423H125.51C125.614 47.7423 125.714 47.6966 125.787 47.6153C125.861 47.534 125.902 47.4237 125.902 47.3087V27.6448Z" fill="#FEFD09"/>
<path d="M129.975 49.1538C130.463 49.0767 130.551 48.2115 130.551 47.7883C130.553 41.0599 130.559 34.3309 130.57 27.6011C130.572 27.1355 130.738 26.7748 131.069 26.5191C131.284 26.3537 131.607 26.271 132.039 26.271C134.379 26.2724 136.719 26.271 139.058 26.2669C139.577 26.2655 139.948 26.4983 140.169 26.9653C140.289 27.2224 140.35 27.6421 140.351 28.2245C140.356 34.9139 140.359 41.6034 140.361 48.2928C140.361 49.8092 140.121 51.2748 139.643 52.6897C138.755 55.3186 136.498 56.6195 134.094 56.8885C131.381 57.1915 128.846 57.0059 126.489 56.3318C126.123 56.2262 125.861 55.983 125.702 55.6021C125.596 55.345 125.578 54.9996 125.65 54.566C125.874 53.2081 126.12 51.8537 126.386 50.5027C126.585 49.4916 127.058 48.9912 127.997 49.133C128.719 49.2414 129.378 49.2484 129.975 49.1538ZM127.276 50.3881L126.408 55.0142C126.392 55.1004 126.407 55.1902 126.45 55.2643C126.493 55.3384 126.56 55.3909 126.638 55.4103C129.151 56.0316 132.061 56.3589 134.617 55.8023C135.9 55.5229 136.883 55.0615 137.567 54.418C139.114 52.9649 139.47 50.4902 139.472 48.3199C139.476 41.3553 139.478 34.4407 139.48 27.5761C139.48 27.4793 139.445 27.3865 139.383 27.3181C139.321 27.2497 139.238 27.2113 139.15 27.2113L131.807 27.2134C131.752 27.2134 131.697 27.2255 131.646 27.2491C131.594 27.2726 131.548 27.3072 131.509 27.3507C131.47 27.3943 131.439 27.446 131.417 27.5029C131.396 27.5598 131.385 27.6208 131.385 27.6824C131.394 34.408 131.394 41.1656 131.383 47.9551C131.38 50.5486 129.294 50.2567 127.709 50.0441C127.611 50.0303 127.512 50.0581 127.432 50.1219C127.352 50.1856 127.296 50.2807 127.276 50.3881Z" fill="#FEFD09"/>
<path d="M153.923 47.2732C153.923 47.6553 153.786 48.0217 153.542 48.2919C153.298 48.562 152.967 48.7138 152.622 48.7138H145.439C145.094 48.7138 144.763 48.562 144.519 48.2919C144.275 48.0217 144.138 47.6553 144.138 47.2732V27.7094C144.138 27.3273 144.275 26.9609 144.519 26.6907C144.763 26.4206 145.094 26.2688 145.439 26.2688H152.622C152.967 26.2688 153.298 26.4206 153.542 26.6907C153.786 26.9609 153.923 27.3273 153.923 27.7094V47.2732ZM153.035 27.6343C153.035 27.5216 152.994 27.4134 152.922 27.3336C152.85 27.2539 152.752 27.209 152.651 27.209H145.332C145.23 27.209 145.132 27.2539 145.06 27.3336C144.988 27.4134 144.948 27.5216 144.948 27.6343V47.3191C144.948 47.4319 144.988 47.5401 145.06 47.6198C145.132 47.6996 145.23 47.7444 145.332 47.7444H152.651C152.752 47.7444 152.85 47.6996 152.922 47.6198C152.994 47.5401 153.035 47.4319 153.035 47.3191V27.6343Z" fill="#FEFD09"/>
<path d="M65.9124 62.6331C65.3834 59.8394 63.6159 57.5503 61.1688 56.7039C60.2483 56.3849 59.3692 56.4058 58.492 56.7664C58.4543 56.7817 58.4137 56.7867 58.3738 56.7808C58.334 56.7749 58.2961 56.7584 58.2634 56.7327C58.2307 56.707 58.2043 56.6729 58.1864 56.6334C58.1685 56.5938 58.1597 56.55 58.1607 56.5058L58.1626 56.2994C58.1633 56.2676 58.1734 56.2368 58.1914 56.2116C58.2093 56.1864 58.2342 56.1682 58.2624 56.1597C62.2003 54.9485 65.5999 58.4843 66.4582 62.4976C66.4783 62.5935 66.4451 62.6511 66.3585 62.6706L66.0554 62.7373C65.9764 62.7554 65.9287 62.7206 65.9124 62.6331Z" fill="#FEFD09"/>
<path d="M68.0055 64.5452L67.2676 64.8997C66.0792 65.2582 64.8801 65.3451 63.6703 65.1603C63.1031 65.0741 62.5309 65.0352 61.9536 65.0435C61.8984 65.0449 61.8651 65.0755 61.8538 65.1352C61.8036 65.4146 61.6675 65.6919 61.4454 65.9671C59.9432 67.8281 58.1656 68.2291 56.1126 67.17C54.8495 66.5175 54.7065 65.2978 53.8895 64.2283C53.2533 63.3972 52.639 62.5466 52.0467 61.6765C51.2429 60.4945 50.6575 59.7877 49.3229 60.2526C49.2822 60.2672 49.2384 60.2665 49.1979 60.2507C49.1575 60.2349 49.1227 60.2048 49.0989 60.1651C49.0098 60.0163 48.9991 59.8878 49.0669 59.7794C49.1108 59.7085 49.1961 59.6571 49.3229 59.6251C50.4862 59.3304 51.4161 59.7085 52.1125 60.7592C52.9182 61.9754 53.6655 63.0344 54.3545 63.9365C54.9116 64.6662 55.194 65.8065 55.93 66.3382C57.6467 67.5807 59.2869 67.4167 60.8505 65.8462C61.2044 65.4897 61.4058 65.0977 61.2383 64.5411C60.464 61.9768 59.2292 59.7342 57.5338 57.8134C56.8448 57.0337 56.3498 56.8982 55.4105 56.7501C54.074 56.5417 52.8203 56.7119 51.6495 57.2609C51.5949 57.2853 51.5344 57.2877 51.4784 57.2676C51.4225 57.2475 51.3747 57.2062 51.3435 57.151C51.3122 57.0958 51.2996 57.0301 51.3077 56.9656C51.3158 56.9011 51.3442 56.8418 51.3878 56.7981C51.5133 56.6758 51.6991 56.5702 51.945 56.4812C53.7709 55.8224 56.3987 55.7203 57.867 57.3693C59.659 59.3833 60.9698 61.7321 61.7993 64.416C61.8131 64.4632 61.8419 64.482 61.8858 64.4723C61.9335 64.4612 61.9775 64.4459 62.0176 64.4264C62.0502 64.4111 62.086 64.4062 62.1249 64.4118C63.4388 64.589 66.9946 65.1123 67.981 63.6675C68.4252 63.0192 68.1485 62.4917 67.932 61.7954C67.6509 60.8892 67.3372 59.9955 66.9909 59.1143C66.5667 58.0358 65.8194 57.4416 64.7489 57.3318C64.4628 57.3026 64.1767 57.27 63.8906 57.2338C63.8291 57.2255 63.7996 57.188 63.8021 57.1212L63.8096 56.7731C63.8121 56.6869 63.8517 56.6466 63.9282 56.6522C65.5113 56.7543 66.716 57.067 67.4426 58.7912C67.9057 59.892 68.3004 61.0226 68.6266 62.1832C68.7609 62.6613 68.7835 63.0657 68.6944 63.3965C68.5739 63.8399 68.3443 64.2228 68.0055 64.5452Z" fill="#FEFD09"/>
<path d="M41.5412 60.997L40.9935 61.1534L40.7638 61.1472C40.6998 61.1444 40.664 61.1082 40.6565 61.0387C40.5775 60.3883 40.489 59.5043 40.0259 59.2354C38.8877 58.5724 38.0068 58.8045 37.3831 59.9317C37.1854 60.2903 37.0593 61.0096 37.1459 61.414C37.3693 62.4509 37.9936 62.9839 39.0188 63.0131C39.0841 63.0144 39.1287 63.0485 39.1525 63.1152C39.1814 63.1903 39.1864 63.2646 39.1676 63.3383C39.1199 63.5315 39.1205 63.7448 39.1694 63.9783L39.0076 64.1243C38.9599 64.1673 38.9072 64.1792 38.8494 64.1597C35.5383 63.0318 35.0734 68.4085 38.3506 68.1104C38.5137 68.0965 38.5991 68.2084 38.6066 68.4461C38.5953 68.4989 38.6085 68.5468 38.6461 68.5899L37.8348 68.7067L36.536 68.2209C35.8232 67.5663 35.5057 66.8095 35.5835 65.9505C35.7215 64.43 36.4607 63.5864 37.8009 63.4196C37.8649 63.4113 37.8775 63.3786 37.8386 63.3216C37.7796 63.2327 37.7075 63.1722 37.6221 63.1402C37.5669 63.1194 37.5167 63.0888 37.4715 63.0485C36.9482 62.5871 36.6496 62.0916 36.5755 61.562C36.4789 60.8713 36.5994 60.2222 36.9369 59.6148C37.8555 57.9595 39.736 57.799 40.8768 59.3438C40.8921 59.3648 40.9124 59.3807 40.9355 59.3895C40.9585 59.3983 40.9834 59.3998 41.0072 59.3937C41.0309 59.3876 41.0527 59.3742 41.0699 59.355C41.0871 59.3359 41.0991 59.3118 41.1045 59.2854C41.2438 58.6329 41.4904 58.0887 42.0288 57.726C43.1933 56.9435 44.2776 57.1409 45.2815 58.3181C45.4484 58.5141 45.5507 58.6982 45.5883 58.8706C45.6037 58.9428 45.5945 59.0189 45.5625 59.0844C45.5306 59.1498 45.4782 59.2 45.4152 59.2253C45.3523 59.2506 45.2833 59.2492 45.2215 59.2215C45.1596 59.1937 45.1093 59.1415 45.0801 59.0749C44.5963 57.9866 43.5591 57.4821 42.5464 58.0533C41.6705 58.5467 41.3844 59.448 41.6881 60.7573C41.7044 60.8296 41.6849 60.8873 41.6297 60.9303L41.5412 60.997Z" fill="#FC6806"/>
<path d="M52.1731 58.3554C50.8618 57.7619 49.6351 57.8904 48.4931 58.7411C48.4153 58.7994 48.3525 58.7834 48.3049 58.6931L48.1674 58.4367C48.1501 58.4042 48.1445 58.3657 48.1518 58.3286C48.1592 58.2915 48.1788 58.2586 48.207 58.2365C49.6809 57.0836 51.8343 57.2337 53.2612 58.3616C53.5285 58.5729 53.9256 59.0496 54.4527 59.7918C55.749 61.6181 57.3422 63.0719 59.2321 64.1532C59.2797 64.181 59.303 64.2248 59.3017 64.2845L59.2942 64.5243C59.293 64.5617 59.2831 64.5982 59.2655 64.6302C59.2479 64.6623 59.2232 64.6887 59.1938 64.7072C59.1643 64.7256 59.1311 64.7353 59.0972 64.7354C59.0634 64.7355 59.0301 64.726 59.0005 64.7078C57.1614 63.5861 55.2264 62.0059 54.0141 60.0962C53.4626 59.2289 53.0805 58.7682 52.1731 58.3554Z" fill="#FEFD09"/>
<path d="M101.409 71.0542C101.347 71.0584 101.32 71.0688 101.328 71.0855L101.145 71.1626C101.071 71.1932 101.028 71.1654 101.017 71.0792L100.968 70.7332C100.953 70.6261 100.992 70.5532 101.085 70.5143C101.564 70.3099 102.01 70.0389 102.423 69.7012C102.476 69.6581 102.535 69.6331 102.6 69.6261C102.748 69.6108 102.87 69.5775 102.965 69.5261C104.051 68.9465 105.627 68.0688 107.694 66.893C108.134 66.6428 108.397 66.1848 108.481 65.5191C108.595 64.6198 108.651 63.6532 108.648 62.6191C108.648 62.544 108.618 62.5232 108.558 62.5566C107.624 63.0819 106.702 63.6302 105.73 64.1118C104.433 64.7539 103.157 65.444 101.904 66.182C101.399 66.4802 100.806 66.6678 100.257 66.943C100.117 66.9013 100.058 66.7838 100.08 66.5907C101.169 66.0319 102.66 65.5628 103.112 64.1764C103.61 62.6476 103.439 61.2313 102.598 59.9276C102.327 59.5065 101.542 58.5391 100.972 58.3161C99.9083 57.897 98.1257 58.7434 97.1864 59.2959C97.1627 59.3095 97.1423 59.3293 97.1271 59.3535C97.1119 59.3778 97.1022 59.4059 97.0989 59.4354C97.0955 59.4648 97.0987 59.4948 97.108 59.5228C97.1173 59.5508 97.1326 59.576 97.1525 59.5961C98.3045 60.7386 99.1597 62.0701 99.7182 63.5906C99.993 64.337 100.035 65.255 99.8443 66.3446L99.5808 66.1591C99.6128 63.3404 98.4231 61.535 96.6574 59.6774C96.6289 59.647 96.593 59.6263 96.5539 59.6178C96.5149 59.6093 96.4744 59.6134 96.4372 59.6295L93.1186 61.0701C93.2227 61.0534 93.1813 60.9985 92.9943 60.9054C92.9416 60.6538 93.0131 60.4794 93.2089 60.3821C94.1664 59.904 95.1427 59.4801 96.1379 59.1104C97.4066 58.6371 98.44 57.8824 99.8556 57.6614C101.286 57.4384 102.636 58.5204 103.858 59.0958C104.924 59.5989 105.995 60.0902 107.069 60.5697C107.89 60.9353 108.413 61.2459 108.639 61.5016C109.497 62.4711 109.147 64.3391 108.976 65.7255C108.853 66.7053 108.501 67.1473 107.673 67.5955C106.205 68.3919 104.876 69.1821 103.278 69.9951C102.641 70.3204 102.018 70.6734 101.409 71.0542ZM103.837 62.0374C104.031 62.8359 103.575 63.9013 103.342 64.656C103.313 64.7532 103.342 64.7859 103.428 64.7539C104.284 64.4468 105.101 64.0409 105.877 63.5364C106.672 63.0194 106.922 62.2299 106.628 61.1681C106.612 61.1106 106.585 61.0575 106.549 61.0125C106.513 60.9675 106.468 60.9317 106.418 60.9075L102.818 59.2C102.803 59.1926 102.786 59.191 102.77 59.1953C102.753 59.1997 102.739 59.2099 102.728 59.2242C102.717 59.2386 102.711 59.2565 102.711 59.275C102.71 59.2936 102.715 59.3119 102.724 59.3272C103.234 60.1736 103.605 61.077 103.837 62.0374ZM107.161 61.6705C107.236 61.9527 107.204 62.2153 107.063 62.4586C107.045 62.49 107.037 62.5269 107.04 62.5639C107.042 62.6008 107.055 62.6359 107.077 62.664C107.099 62.692 107.129 62.7115 107.162 62.7195C107.194 62.7276 107.228 62.7238 107.259 62.7087L108.343 62.1646C108.361 62.156 108.376 62.1424 108.388 62.1251C108.399 62.1078 108.406 62.0874 108.408 62.0659C108.411 62.0444 108.407 62.0226 108.4 62.0026C108.392 61.9826 108.38 61.9652 108.364 61.952C108.05 61.6935 107.738 61.4829 107.428 61.3203C107.199 61.2007 107.035 61.2973 106.937 61.6101C106.934 61.6222 106.933 61.6352 106.937 61.6474C106.94 61.6597 106.947 61.6705 106.956 61.6784C106.965 61.6863 106.976 61.691 106.987 61.6919C106.999 61.6927 107.01 61.6896 107.02 61.683L107.082 61.6392C107.121 61.6101 107.147 61.6205 107.161 61.6705Z" fill="#FA06FB"/>
<path d="M47.0979 59.8354C45.6504 59.4956 44.7431 60.6172 44.7958 62.1287C44.7963 62.1474 44.7933 62.166 44.7871 62.1833C44.7808 62.2007 44.7714 62.2164 44.7593 62.2295C44.7473 62.2426 44.733 62.2529 44.7172 62.2595C44.7015 62.2662 44.6846 62.2692 44.6678 62.2684L44.3421 62.2517C44.2693 62.2489 44.2342 62.2065 44.2367 62.1245C44.2894 60.3483 45.2155 58.9785 46.9624 59.2204C47.6739 59.3204 49.0198 60.1502 48.9238 61.1071C48.9178 61.1763 48.8897 61.2408 48.8446 61.289C48.7995 61.3373 48.7403 61.3661 48.6777 61.3704C48.6151 61.3747 48.5532 61.3541 48.5031 61.3123C48.453 61.2706 48.4179 61.2104 48.4043 61.1426C48.2512 60.4393 47.8157 60.0036 47.0979 59.8354Z" fill="#FC6806"/>
<path d="M92.9939 60.9053C93.1808 60.9984 93.2223 61.0533 93.1181 61.07C94.245 62.2055 95.2364 63.0769 96.0923 63.6843C97.2643 64.5141 98.427 65.3389 99.5803 66.159L99.8438 66.3445L99.921 66.5593C99.9361 66.6009 99.9624 66.6274 100 66.6385C100.047 66.651 100.073 66.635 100.079 66.5905C100.058 66.7837 100.117 66.9012 100.256 66.9429C100.528 67.521 100.665 67.9672 100.666 68.2813C100.674 69.4001 100.778 70.5023 100.979 71.5878C101.038 71.567 101.067 71.6232 101.067 71.7567C100.992 71.879 100.956 71.9721 100.958 72.036C100.988 72.7782 101.079 74.207 101.231 76.3224C101.28 77.0041 101.237 78.0861 101.395 78.9722C101.449 79.2724 101.447 79.5108 101.389 79.6873C101.274 80.0375 101.143 80.2523 100.811 80.4086C99.6468 80.9618 98.4854 81.5205 97.3271 82.0848C96.3539 82.558 95.7233 82.4517 95.5972 81.1779C95.4077 79.2654 95.2138 77.3537 95.0155 75.4426C94.9917 75.2105 94.9478 74.428 94.8838 73.0951C94.8373 72.1431 94.6999 71.2758 94.4715 70.4933C94.4013 70.2528 94.2714 70.1708 94.0819 70.2473C94.0643 70.0888 94.0016 70.0131 93.8936 70.02C93.8723 69.9102 93.8447 69.8428 93.8108 69.8178C92.6224 68.9491 91.4051 68.0874 90.159 67.2326C89.9821 67.2229 89.9218 67.1729 89.9783 67.0825C88.943 66.3376 87.875 65.578 86.7745 64.8038C85.7938 64.1138 85.822 63.2736 86.8724 62.7399C88.3657 61.981 89.8553 61.2145 91.3411 60.4404C92.0753 60.0588 92.5289 60.2277 92.9939 60.9053ZM100.663 76.0993C100.55 74.5441 100.452 71.7191 100.179 69.5322C100.105 68.9422 100.215 68.3355 100.028 67.8039C99.5577 66.4592 97.6452 65.4543 96.5779 64.6954C94.8875 63.4946 93.5699 62.3584 92.2447 60.9178C92.1937 60.8626 92.1288 60.8259 92.0585 60.8125C91.9883 60.7991 91.916 60.8096 91.8512 60.8427L86.7557 63.455C86.7096 63.4788 86.6696 63.5147 86.639 63.5596C86.6084 63.6045 86.5882 63.6571 86.5802 63.7126C86.5722 63.7682 86.5767 63.8251 86.5932 63.8783C86.6096 63.9315 86.6376 63.9794 86.6747 64.0179C86.7161 64.061 86.7789 64.1117 86.8629 64.1701C89.2235 65.8296 91.5727 67.5106 93.9106 69.2132C94.6598 69.7594 95.0249 70.2514 95.1718 71.1875C95.4165 72.7532 95.4334 74.4732 95.601 75.8867C95.7641 77.2529 95.8996 78.6226 96.0075 79.9958C96.0452 80.4774 96.1525 80.984 96.192 81.4635C96.1968 81.5198 96.2135 81.574 96.2408 81.6217C96.268 81.6695 96.3051 81.7094 96.349 81.7383C96.3928 81.7671 96.4422 81.7841 96.4931 81.7878C96.544 81.7915 96.595 81.7818 96.6419 81.7596L100.625 79.8561C100.808 79.7686 100.893 79.615 100.879 79.3954C100.814 78.2974 100.742 77.1987 100.663 76.0993Z" fill="#0B53EC"/>
<path d="M107.837 68.4714L108.437 67.7772C110.371 65.3032 112.684 63.4387 115.376 62.1836C116.266 61.7688 117.252 61.5936 118.241 61.3706C118.717 61.2622 119.108 61.1899 119.411 61.1538C122.014 60.8466 124.481 61.3657 126.811 62.7111C127.093 62.8751 127.427 63.1906 127.812 63.6576C128.087 63.9912 128.325 64.3922 128.526 64.8605C128.957 65.8675 129.219 66.6139 129.175 67.6438C129.115 69.0927 127.95 70.0163 126.819 70.5604C123.283 72.2658 116.605 74.4527 116.328 79.7043C116.274 80.7301 116.571 82.1686 116.567 83.1943C116.562 84.6787 115.986 85.7948 114.839 86.5425C113.666 87.3069 112.42 87.6051 111.101 87.4369C110.427 87.3493 109.563 87.0304 108.8 86.7906C107.214 86.2923 105.783 85.1624 104.746 83.7676C103.752 82.4292 103.782 81.2179 103.854 79.3312C103.895 78.2179 103.98 77.386 104.108 76.8357C104.813 73.7863 106.056 70.9982 107.837 68.4714ZM119.701 63.6555C120.237 64.6104 120.552 65.8619 120.646 67.4103C120.647 67.4276 120.652 67.4444 120.66 67.4596C120.667 67.4747 120.678 67.4878 120.691 67.498C120.703 67.5081 120.718 67.515 120.733 67.5183C120.749 67.5215 120.765 67.5209 120.78 67.5166C121.32 67.356 121.691 66.8932 122.143 66.6868C122.83 66.3699 123.858 66.0447 124.294 65.3817C124.757 64.675 125.126 63.1677 124.518 62.3859C123.786 61.4456 120.012 61.6791 118.926 61.7354C118.897 61.7367 118.87 61.7461 118.845 61.7628C118.821 61.7795 118.801 61.8029 118.788 61.8307C118.774 61.8585 118.768 61.8897 118.769 61.9213C118.769 61.9528 118.777 61.9836 118.792 62.0106C119.086 62.5485 119.389 63.0968 119.701 63.6555ZM116.211 71.9051C116.324 71.8259 116.427 71.7321 116.52 71.6236C117.604 70.3533 118.755 69.2087 119.972 68.19C120.027 68.1445 120.071 68.0859 120.102 68.0187C120.133 67.9515 120.15 67.8775 120.151 67.8022C120.196 65.6006 119.502 63.9474 118.231 62.0544C118.213 62.0273 118.189 62.0061 118.16 61.9933C118.132 61.9804 118.101 61.9763 118.071 61.9814C116.293 62.2844 114.66 62.9926 113.171 64.1058C113.131 64.1364 113.131 64.1677 113.169 64.1997C114.601 65.3658 115.463 66.9377 115.756 68.9155C115.903 69.9065 116.01 70.912 116.078 71.9322C116.082 71.9975 116.109 72.0135 116.161 71.9801C116.194 71.9593 116.211 71.9343 116.211 71.9051ZM125.277 62.6715L125.202 62.6944C125.161 62.7069 125.149 62.7347 125.164 62.7778C125.497 63.7368 125.123 64.454 124.902 65.3588C124.9 65.3692 124.9 65.38 124.902 65.3903C124.905 65.4006 124.91 65.4102 124.916 65.418C124.923 65.4258 124.931 65.4318 124.94 65.4353C124.949 65.4388 124.959 65.4397 124.968 65.438L127.72 64.8876C127.752 64.8818 127.781 64.8666 127.805 64.8437C127.829 64.8209 127.847 64.7912 127.857 64.7577C127.868 64.7243 127.869 64.6883 127.863 64.6536C127.856 64.6188 127.842 64.5866 127.82 64.5603C127.361 63.9995 126.996 63.495 126.325 63.1552C126.056 63.019 125.803 62.8515 125.567 62.6527C125.517 62.6096 125.461 62.5971 125.399 62.6152C125.37 62.6249 125.34 62.6388 125.309 62.6569C125.299 62.6638 125.288 62.6687 125.277 62.6715ZM113.442 77.0295C113.456 77.0384 113.471 77.044 113.487 77.0459C113.503 77.0479 113.519 77.0462 113.534 77.0409C113.549 77.0355 113.563 77.0268 113.575 77.0151C113.586 77.0035 113.596 76.9892 113.602 76.9733C114.142 75.6265 114.729 74.3513 115.364 73.1476C115.506 72.8766 115.58 72.5966 115.586 72.3075C115.635 69.7035 115.041 66.1093 112.849 64.6395C112.772 64.5869 112.683 64.5605 112.592 64.5634C112.502 64.5664 112.414 64.5987 112.339 64.6562C110.895 65.7667 109.622 67.0795 108.52 68.5944C108.479 68.6514 108.489 68.6924 108.552 68.7174C109.494 69.0857 110.242 69.7369 110.796 70.6709C111.878 72.4958 112.657 74.4694 113.134 76.5917C113.179 76.7898 113.296 76.9336 113.442 77.0295ZM114.73 85.9025C116.548 84.4994 116.001 82.7169 115.841 80.7822C115.696 79.0393 116.042 77.4048 117.096 76.0664C119.287 73.2873 122.425 71.8634 125.51 70.5687C127.592 69.6952 129.45 68.4735 128.244 65.6048C128.222 65.5532 128.187 65.5101 128.142 65.481C128.098 65.452 128.047 65.4385 127.995 65.4422C125.66 65.602 123.524 66.3248 121.587 67.6104C118.839 69.4367 116.39 72.1261 114.803 75.2616C113.928 76.9899 113.674 78.7328 113.793 80.7176C113.828 81.3055 113.793 82.0074 113.687 82.8232C113.401 85.0289 112.29 85.9713 110.542 86.6676C110.529 86.673 110.519 86.6826 110.512 86.6952C110.505 86.7077 110.501 86.7224 110.502 86.7371C110.503 86.7519 110.509 86.7658 110.517 86.777C110.526 86.7881 110.538 86.7958 110.551 86.7989C112.139 87.1256 113.532 86.8267 114.73 85.9025ZM112.019 85.2624C113.305 84.2596 113.437 82.0914 113.305 80.532C113.01 77.0587 112.05 73.8822 110.425 71.0024C109.909 70.0864 109.226 69.4909 108.375 69.2157C108.286 69.1869 108.191 69.1887 108.102 69.2211C108.014 69.2535 107.936 69.3149 107.88 69.3971C106.821 70.944 105.979 72.6257 105.354 74.4423C105.307 74.5771 105.349 74.6452 105.48 74.6466C109.171 74.6987 110.961 82.1311 111.714 85.1415C111.723 85.1755 111.738 85.2067 111.76 85.2325C111.782 85.2584 111.809 85.2781 111.838 85.2899C111.868 85.3018 111.9 85.3055 111.932 85.3007C111.963 85.2959 111.993 85.2828 112.019 85.2624ZM105.856 75.1887C105.304 75.0566 104.967 75.2658 104.844 75.8162C104.515 77.2964 104.354 78.8051 104.36 80.3423C104.36 80.3654 104.365 80.3881 104.375 80.4085C104.385 80.4288 104.399 80.4462 104.416 80.4592C104.433 80.4721 104.453 80.4802 104.474 80.4827C104.495 80.4852 104.516 80.4821 104.535 80.4736C105.6 80.0129 106.176 80.7655 106.852 81.5098C107.056 81.7336 107.226 81.9782 107.362 82.2436C108.012 83.4987 108.566 84.8121 109.024 86.1839C109.051 86.2631 109.102 86.3062 109.177 86.3132C109.894 86.3757 110.568 86.2103 111.201 85.817C111.261 85.7795 111.285 85.7232 111.272 85.6481C110.938 83.6703 110.394 81.7759 109.64 79.9649C108.816 77.9802 108.172 76.6022 106.683 75.4743C106.566 75.3853 106.291 75.2901 105.856 75.1887ZM108.294 85.8233C108.317 85.8219 108.337 85.8163 108.356 85.8066C108.368 85.7996 108.372 85.7892 108.369 85.7753C108.239 85.1234 108.007 84.53 107.673 83.9949C107.488 83.6988 107.332 83.3882 107.204 83.063C106.798 82.0226 105.779 80.4799 104.588 80.924C104.522 80.9481 104.466 80.9961 104.429 81.0601C104.391 81.1241 104.374 81.2003 104.381 81.2763C104.443 82.0379 104.671 82.7099 105.062 83.2923C105.368 83.7482 105.813 84.2409 106.395 84.7704C106.923 85.2499 107.517 85.6259 108.177 85.8983C108.18 85.8997 108.182 85.8997 108.185 85.8983C108.2 85.8816 108.213 85.8677 108.224 85.8566C108.245 85.8358 108.268 85.8246 108.294 85.8233Z" fill="#FC6806"/>
<path d="M41.5355 61.3155C42.6473 61.328 43.4561 61.8255 43.9619 62.8082L44.12 63.3773C44.1965 64.2446 44.0127 65.0257 43.5684 65.7206C43.5132 65.8207 43.4404 65.8624 43.3501 65.8457C43.202 65.7735 43.1198 65.6776 43.1035 65.558C43.0922 65.4802 43.1292 65.376 43.2146 65.2453C44.4946 63.2814 42.4748 60.9173 40.6414 62.3037C39.9022 62.8638 39.7027 63.7401 40.0428 64.9326C40.0666 65.0174 40.0396 65.0695 39.9618 65.089L39.6851 65.1598C39.6522 65.1677 39.6179 65.1616 39.5889 65.1426C39.56 65.1237 39.5385 65.0934 39.5289 65.0577L39.2446 64.0486L39.3482 63.3502C39.6807 62.3273 40.2881 61.6713 41.1703 61.3822C41.2883 61.328 41.41 61.3057 41.5355 61.3155Z" fill="#FC6806"/>
<path d="M34.5385 65.5376C33.6651 64.0761 34.1582 62.2352 35.6623 61.6473C35.843 61.5785 36.0858 61.3721 36.2929 61.5597C36.3317 61.5945 36.3607 61.641 36.3761 61.6936C36.3916 61.7462 36.3929 61.8027 36.38 61.8561C36.367 61.9096 36.3403 61.9577 36.3031 61.9946C36.266 62.0316 36.2199 62.0558 36.1705 62.0643C34.4914 62.3624 34.1752 64.5118 35.3554 65.7064C35.3908 65.742 35.414 65.7898 35.4212 65.8419C35.4284 65.8941 35.4191 65.9475 35.395 65.9932C35.3708 66.039 35.3332 66.0743 35.2883 66.0934C35.2435 66.1126 35.1941 66.1143 35.1484 66.0984C34.9137 66.015 34.7104 65.828 34.5385 65.5376Z" fill="#FC6806"/>
<path d="M44.2858 63.2675C44.2181 63.1105 44.1936 62.9583 44.2124 62.811C45.5627 62.0034 46.6909 62.18 47.5969 63.3405C47.6522 63.4114 47.708 63.4121 47.7645 63.3426C48.3769 62.5907 49.0382 62.1827 49.7485 62.1188C50.9363 62.0125 51.8944 62.8923 52.2144 64.1494C52.2433 64.2606 52.2069 64.3051 52.1052 64.2828L51.7627 64.2078C51.6899 64.1925 51.6422 64.1452 51.6196 64.066C51.4728 63.5657 51.299 63.2502 51.0982 63.1195C49.9637 62.3759 49.0181 62.5601 48.2614 63.672C48.2275 63.7206 48.183 63.7449 48.1278 63.7449L47.9565 63.747C47.8749 63.747 47.8479 63.7901 47.8755 63.8763C48.045 64.3975 48.0889 64.9333 48.0073 65.4837C47.9973 65.549 47.9628 65.5733 47.9038 65.5566L47.5668 65.4545C47.5394 65.4466 47.5156 65.4278 47.4999 65.4016C47.4843 65.3754 47.478 65.3438 47.4821 65.3127C47.7588 63.1925 45.9423 62.3523 44.4797 63.3468C44.4245 63.3843 44.3749 63.3759 44.331 63.3217L44.2858 63.2675Z" fill="#FC6806"/>
<path d="M36.5354 68.2196L37.8343 68.7053L39.6978 69.7311L40.752 70.173L42.9732 70.638C43.6069 71.0257 44.2513 71.171 44.9064 71.0737C47.2694 71.6324 49.5182 71.4413 51.6528 70.5004C52.6034 70.0813 53.2528 69.5434 53.4919 68.4656C53.5071 68.3957 53.5446 68.3344 53.5976 68.293C53.6506 68.2515 53.7154 68.2329 53.7799 68.2404C53.948 68.2599 54.0058 68.3815 53.9531 68.6053C53.7573 69.4434 53.3689 70.0897 52.7879 70.5441C51.8975 71.2405 50.0396 71.8284 48.8405 71.9076C47.0836 72.023 45.4378 71.9055 43.9031 71.5553C40.5637 70.7964 37.4747 69.5434 34.8055 67.4211C33.8135 66.633 32.1909 64.6712 33.6836 63.3682C33.7124 63.3429 33.7467 63.3264 33.7831 63.3204C33.8195 63.3144 33.8566 63.3192 33.8908 63.3342C33.925 63.3492 33.955 63.3739 33.9778 63.4059C34.0006 63.4379 34.0153 63.4759 34.0206 63.5163C34.0601 63.8206 33.7759 63.9812 33.6912 64.2314C33.2902 65.4134 34.7735 66.7602 35.662 67.2627C35.7172 67.2932 35.7586 67.3391 35.7862 67.4002C35.9569 67.7658 36.2066 68.0389 36.5354 68.2196Z" fill="#0B53EC"/>
<path d="M89.9789 67.0831C89.9225 67.1735 89.9827 67.2235 90.1596 67.2332C90.4483 67.7086 90.5581 68.2319 90.4891 68.8031C90.3673 69.8163 90.117 70.7392 89.738 71.5717C89.6232 71.8198 89.386 72.0095 89.258 72.2868C89.2141 72.3813 89.2354 72.4056 89.322 72.3598C89.8177 72.0971 90.3178 71.8462 90.8222 71.6072C91.7559 71.1631 92.7912 70.4167 93.8943 70.0206C94.0022 70.0137 94.065 70.0894 94.0825 70.2479C93.7456 70.5064 93.45 70.7545 93.0736 70.9442C91.0707 71.9616 89.0917 73.0332 87.1365 74.159C86.5812 74.48 85.7775 74.3466 85.5572 75.0804C85.2172 76.2104 85.16 77.3584 85.3859 78.5245C85.3997 78.5968 85.4393 78.6239 85.5045 78.6059C85.9099 78.4933 86.1765 78.4029 86.3045 78.3348C88.9863 76.9352 91.6574 75.5266 94.3178 74.1089C94.3537 74.0895 94.393 74.0791 94.433 74.0782C94.4729 74.0774 94.5126 74.0862 94.5491 74.1041C94.5857 74.1219 94.6183 74.1484 94.6446 74.1817C94.671 74.2149 94.6905 74.2541 94.7018 74.2966L94.7338 74.4112C94.7552 74.4904 94.7319 74.5488 94.6642 74.5863L93.0736 75.4641L92.0458 76.0228L91.0067 76.5648L89.689 77.257L87.6599 78.339L84.9097 79.4377C83.5682 79.5447 82.3371 79.3043 81.2165 78.7163C78.8522 77.4766 76.7345 76.0325 74.8634 74.3841C74.0521 73.6669 74.1011 71.9178 74.1463 70.621C74.1689 70.0234 74.2718 69.5647 74.455 69.2451C74.7047 68.8114 75.0536 68.4973 75.5016 68.3027C77.0263 67.6384 78.5466 66.9601 80.0626 66.268C80.1186 66.2437 80.1657 66.1989 80.1962 66.1408C80.2778 65.9879 80.4014 65.9427 80.5671 66.0053C80.6198 66.0261 80.6725 66.0247 80.7252 66.0011L85.1224 64.0143C85.1864 63.9851 85.2341 64.0039 85.2655 64.0706L85.4104 64.3833C85.4194 64.4019 85.4239 64.4227 85.4232 64.4438C85.4226 64.4649 85.4169 64.4853 85.4067 64.5032C85.3966 64.521 85.3823 64.5355 85.3654 64.5452C85.3486 64.5549 85.3296 64.5595 85.3106 64.5584C85.1161 64.5501 84.9599 64.621 84.8419 64.7711C84.7955 64.8322 84.7924 64.8955 84.8325 64.9608C85.2793 65.6863 85.5817 66.6022 85.7398 67.7086C86.0504 69.8955 84.936 71.7489 83.3831 72.9352C83.3587 72.9536 83.3391 72.9788 83.3263 73.0082C83.3136 73.0377 83.3081 73.0704 83.3104 73.103C83.3126 73.1355 83.3227 73.1669 83.3394 73.1938C83.3562 73.2207 83.379 73.2423 83.4057 73.2562C84.2076 73.6815 85.0509 74.1861 85.9826 74.0485C87.6373 73.8066 89.1281 72.0429 89.7305 70.4438C90.1164 69.4244 89.9996 68.2256 89.9789 67.0831ZM85.3784 68.8135C85.5554 67.817 84.9568 66.2096 84.5144 65.2402C84.4454 65.0901 84.34 65.0456 84.1982 65.1067L81.1299 66.4473C81.1139 66.4542 81.0997 66.4652 81.0885 66.4796C81.0772 66.4939 81.0693 66.5111 81.0655 66.5295C81.0616 66.548 81.0618 66.5673 81.0661 66.5856C81.0705 66.604 81.0788 66.6209 81.0903 66.6349C81.7743 67.448 81.854 68.3486 81.3294 69.3368C80.9429 70.0665 80.4899 70.7093 79.9703 71.2653C79.9557 71.2812 79.9445 71.3007 79.9378 71.3222C79.931 71.3437 79.9288 71.3666 79.9314 71.3892C79.9339 71.4118 79.9411 71.4334 79.9525 71.4524C79.9638 71.4714 79.9789 71.4873 79.9967 71.4988C80.7321 71.981 81.5133 72.3806 82.3403 72.6975C82.6339 72.8087 82.8999 72.774 83.1384 72.5933C84.3224 71.6926 85.1017 70.3604 85.3784 68.8135ZM78.3251 67.7961C78.4644 68.8698 78.3458 69.4536 77.719 70.2333C77.6713 70.293 77.6795 70.3424 77.7435 70.3813C78.1601 70.6301 78.5893 70.8511 79.031 71.0443C79.1942 71.1151 79.3266 71.127 79.4282 71.0797C79.9308 70.8483 80.5482 69.7663 80.7986 69.366C81.3576 68.4674 81.4047 67.6023 80.6838 66.8288C80.6511 66.7939 80.61 66.7701 80.5653 66.7601C80.5206 66.7501 80.4742 66.7544 80.4315 66.7725L78.4136 67.6294C78.3841 67.6417 78.3593 67.6649 78.3433 67.6952C78.3272 67.7255 78.3208 67.7611 78.3251 67.7961ZM77.8508 69.318C77.8951 69.2653 77.9199 69.1962 77.9204 69.1242L77.9261 68.3007C77.9265 68.2536 77.9165 68.2072 77.897 68.1655C77.8775 68.1237 77.849 68.0879 77.8141 68.0612C77.7791 68.0344 77.7388 68.0175 77.6967 68.0121C77.6545 68.0066 77.6118 68.0126 77.5722 68.0296L75.7275 68.8385C75.6802 68.8588 75.6394 68.8939 75.61 68.9396C75.5805 68.9852 75.5638 69.0394 75.5618 69.0954C75.5598 69.1515 75.5726 69.2069 75.5987 69.255C75.6248 69.3031 75.663 69.3417 75.7086 69.366L76.9774 70.0581C77.0275 70.0854 77.0843 70.0941 77.1392 70.0828C77.1941 70.0715 77.2443 70.041 77.2823 69.9956L77.8508 69.318ZM85.0208 75.487C85.091 75.2285 85.1538 74.9734 85.209 74.7219C85.2228 74.6593 85.2027 74.6148 85.1488 74.5884C82.1583 73.1207 79.1703 71.6454 76.1849 70.1624C75.7595 69.9518 75.5053 69.7267 75.1947 69.3597C75.1843 69.3477 75.1716 69.3381 75.1576 69.3318C75.1436 69.3255 75.1286 69.3226 75.1135 69.3232C75.0984 69.3238 75.0836 69.3279 75.07 69.3353C75.0564 69.3427 75.0444 69.3531 75.0347 69.366C74.5849 69.9727 74.6997 70.4647 74.6884 71.1819C74.6714 72.12 74.6037 73.423 75.3152 74.0297C76.6404 75.1534 78.0183 76.2229 79.4979 77.0839C81.2673 78.1138 82.4908 78.9165 84.5652 78.9269C84.6074 78.9273 84.6492 78.918 84.688 78.8997C84.7268 78.8814 84.7619 78.8544 84.791 78.8204C84.8201 78.7864 84.8426 78.7462 84.8572 78.7021C84.8718 78.658 84.8781 78.6111 84.8758 78.5642C84.8269 77.6656 84.7742 76.3939 85.0208 75.487Z" fill="#FA06FB"/>
<path d="M53.0195 67.9078C53.2152 67.3102 53.1795 66.7549 52.9122 66.2421C52.1969 64.8682 50.5649 64.7994 49.6519 66.0544C49.6274 66.0881 49.5954 66.1141 49.5591 66.1299C49.5227 66.1456 49.4833 66.1506 49.4447 66.1443C49.4061 66.138 49.3696 66.1206 49.3389 66.0938C49.3083 66.0671 49.2844 66.032 49.2698 65.9919C49.2384 65.9071 49.2422 65.805 49.2811 65.6854C49.3087 65.6048 49.3589 65.5235 49.4317 65.4415C50.6326 64.1031 52.3437 64.3282 53.2717 65.8335C53.7436 66.6007 53.7844 67.4297 53.3941 68.3206C52.8312 69.5986 51.8035 70.1219 50.5554 69.7612C50.4952 69.7445 50.4626 69.7015 50.4576 69.632C50.4488 69.4666 50.504 69.3505 50.6232 69.2838C50.6897 69.2477 50.7939 69.2386 50.9357 69.2567C51.9835 69.3915 52.6781 68.9419 53.0195 67.9078Z" fill="#FC6806"/>
<path d="M68.0053 64.5452C67.7179 65.3499 67.1356 65.9427 66.2584 66.3235C64.5329 67.0726 62.7685 67.368 60.9652 67.2095C60.9381 67.2071 60.9127 67.194 60.894 67.1729C60.8753 67.1517 60.8644 67.124 60.8635 67.0949C60.851 66.7599 61.0009 66.5987 61.3134 66.6112C63.2447 66.6821 65.7201 66.386 67.2674 64.8996L68.0053 64.5452Z" fill="#0B53EC"/>
<path d="M66.6864 80.4802C67.3509 79.8985 67.5053 79.3711 67.6954 78.631C67.8385 78.0722 67.7519 77.4009 67.8196 76.8068C67.9012 76.0882 67.9432 75.7185 67.9458 75.6977C68.2432 72.0138 68.4672 68.6573 68.2394 65.0589C68.2344 64.9783 68.267 64.9262 68.3373 64.9025L68.5538 64.8316C68.6517 64.7997 68.7075 64.84 68.7213 64.9526C68.8982 66.4898 68.9509 67.9123 68.8794 69.2202C68.651 73.3759 68.4427 76.4183 68.2545 78.3474C68.0901 80.0306 67.2549 81.1251 65.749 81.631C64.2494 82.1355 62.7084 82.2947 61.1259 82.1084C59.0779 81.8652 57.1026 81.4468 55.2002 80.8534C55.1423 80.836 55.0913 80.7975 55.0556 80.7441C55.0198 80.6907 55.0013 80.6255 55.003 80.5591C55.0048 80.4927 55.0267 80.4288 55.0652 80.3778C55.1036 80.3268 55.1565 80.2916 55.2152 80.278C55.3106 80.2557 55.416 80.2703 55.5315 80.3217C55.6858 80.3912 55.7831 80.4315 55.8233 80.4427C57.5676 80.9333 59.3358 81.2773 61.1278 81.4746C62.6657 81.6456 65.4328 81.5747 66.6864 80.4802Z" fill="#0B53EC"/>
<path d="M40.7521 70.174L39.6979 69.732L38.8716 68.6979L38.7567 68.1329C38.7316 67.5381 38.758 67.1253 38.8358 66.8946C39.2926 65.5478 40.1823 64.9341 41.505 65.0537C41.7736 65.0773 42.2235 65.3198 42.8547 65.7813C42.9011 65.816 42.9224 65.8647 42.9187 65.9272C42.9086 66.0982 42.8258 66.2066 42.6702 66.2524C42.6391 66.2608 42.6066 66.2613 42.5753 66.2537C42.544 66.2461 42.5146 66.2307 42.4895 66.2087C41.1059 64.9682 39.1765 65.8355 39.2932 67.8953C39.376 69.3963 40.6109 69.9071 41.8947 69.6319C41.9125 69.6282 41.9309 69.6289 41.9485 69.6339C41.9661 69.6389 41.9825 69.6481 41.9963 69.6609C42.0102 69.6737 42.0213 69.6897 42.0288 69.7078C42.0363 69.7258 42.04 69.7455 42.0396 69.7653L42.034 70.0864C42.0327 70.1545 42.002 70.1879 41.9417 70.1865L40.7521 70.174Z" fill="#FC6806"/>
<path d="M44.907 71.0737C44.2519 71.171 43.6075 71.0257 42.9738 70.638C41.5808 69.2641 41.7615 67.4691 43.0716 66.214C43.1168 66.1723 43.167 66.1417 43.2222 66.1223L43.4895 66.0285L43.7681 65.9096C44.4935 65.7984 45.1868 65.9374 45.8481 66.3266C45.863 66.3353 45.8761 66.3473 45.8868 66.3616C45.8975 66.376 45.9055 66.3926 45.9104 66.4104C45.9153 66.4282 45.9169 66.4469 45.9153 66.4654C45.9137 66.484 45.9088 66.502 45.9008 66.5184L45.7804 66.7769C45.7729 66.7927 45.7626 66.8066 45.7502 66.818C45.7377 66.8293 45.7233 66.8377 45.7079 66.8428C45.6924 66.8478 45.6762 66.8494 45.6602 66.8474C45.6442 66.8454 45.6288 66.8398 45.6147 66.8311C44.8128 66.3349 43.802 66.2223 43.1149 66.9979C42.5465 67.6421 42.3507 68.5615 42.746 69.3996C43.3069 70.5907 44.2456 70.861 45.562 70.2106C45.5892 70.197 45.6199 70.1953 45.6482 70.2058C45.6764 70.2162 45.7001 70.238 45.7145 70.2669L45.8576 70.5567C45.8939 70.6331 45.8757 70.6859 45.803 70.7151L44.907 71.0737Z" fill="#FC6806"/>
<path d="M50.2499 68.9261C50.2362 69.2357 50.1676 69.5392 50.048 69.8194C49.9285 70.0996 49.7602 70.351 49.5529 70.5592C49.3456 70.7673 49.1033 70.9283 48.8399 71.0327C48.5764 71.1372 48.297 71.1832 48.0175 71.168L47.5963 71.1452C47.3168 71.1301 47.0428 71.0541 46.7898 70.9217C46.5368 70.7892 46.3099 70.6029 46.1219 70.3733C45.9339 70.1437 45.7886 69.8754 45.6943 69.5836C45.6 69.2918 45.5585 68.9823 45.5721 68.6728L45.5951 68.1522C45.6088 67.8426 45.6774 67.5391 45.7969 67.2589C45.9165 66.9787 46.0848 66.7273 46.2921 66.5192C46.4994 66.311 46.7417 66.1501 47.0051 66.0456C47.2686 65.9411 47.548 65.8951 47.8275 65.9103L48.2487 65.9331C48.5282 65.9482 48.8022 66.0242 49.0552 66.1566C49.3082 66.2891 49.5351 66.4754 49.7231 66.705C49.9111 66.9346 50.0564 67.203 50.1507 67.4947C50.245 67.7865 50.2865 68.096 50.2729 68.4056L50.2499 68.9261ZM49.7343 68.2338C49.719 67.7497 49.5308 67.2922 49.2109 66.9619C48.8911 66.6316 48.4659 66.4555 48.0288 66.4724L47.709 66.4847C47.2719 66.5016 46.8588 66.7101 46.5606 67.0644C46.2623 67.4186 46.1033 67.8896 46.1186 68.3737L46.1333 68.8404C46.1485 69.3244 46.3368 69.7819 46.6567 70.1123C46.9765 70.4426 47.4017 70.6187 47.8388 70.6018L48.1586 70.5894C48.5957 70.5725 49.0088 70.364 49.307 70.0098C49.6053 69.6555 49.7643 69.1846 49.749 68.7005L49.7343 68.2338Z" fill="#FC6806"/>
<path d="M38.9662 84.2827C41.6128 85.2938 52.9504 88.7484 53.4097 83.061C53.5803 80.9303 53.7428 78.799 53.8972 76.6669C54.044 74.6259 54.061 72.4952 54.0158 70.6272C54.0108 70.416 53.9675 70.129 53.8859 69.7662C53.8817 69.7487 53.8811 69.7303 53.884 69.7125C53.887 69.6947 53.8934 69.6778 53.903 69.663C53.9125 69.6483 53.9249 69.6361 53.9392 69.6272C53.9535 69.6184 53.9693 69.6132 53.9857 69.6119L54.3716 69.5869C54.4544 69.5814 54.4983 69.6244 54.5033 69.7162C54.7198 73.0414 54.4638 76.8399 54.1476 80.3653C54.1087 80.799 54.071 81.3987 54.0346 82.1645C53.9593 83.7532 53.6826 84.9686 52.412 85.8838C50.7423 87.0847 47.7889 86.995 45.739 86.6781C42.3921 86.1632 38.9455 85.1917 35.913 83.4363C34.2188 82.4543 33.5374 81.1951 33.4772 79.1416C33.4533 78.3035 33.4301 77.7204 33.4075 77.3924C33.2582 75.2242 33.1208 72.5696 32.9953 69.4285C32.9514 68.3013 32.9557 67.345 33.0085 66.5598C33.0135 66.4903 33.0386 66.4305 33.0838 66.3805C33.1992 66.2512 33.3228 66.2318 33.4546 66.3221C33.5098 66.3582 33.5362 66.4124 33.5336 66.4847C33.4935 67.6647 33.5092 69.0539 33.5807 70.6522C33.7187 73.7044 33.8869 76.7545 34.0852 79.8025C34.2056 81.6704 35.1977 82.4085 36.7017 83.2424C37.3768 83.6163 38.1317 83.963 38.9662 84.2827Z" fill="#0B53EC"/>
<path d="M97.0948 68.3787C97.6809 68.0203 98.1036 67.6244 98.0387 67.4944C97.9739 67.3643 97.4462 67.5494 96.8601 67.9078C96.274 68.2661 95.8514 68.6621 95.9162 68.7921C95.981 68.9221 96.5087 68.737 97.0948 68.3787Z" fill="#0B53EC"/>
<path d="M108.436 67.7778L107.836 68.472C104.649 70.2344 102.506 71.3998 101.41 71.9682C101.272 72.0391 101.157 71.9689 101.067 71.7577C101.067 71.6243 101.037 71.568 100.979 71.5888C101.096 71.4568 101.195 71.3755 101.274 71.3449L101.509 71.2469C103.736 70.0488 105.969 68.8605 108.209 67.6819C108.293 67.6388 108.369 67.6708 108.436 67.7778Z" fill="#FDFDFD"/>
<path d="M65.3192 68.2303L65.0745 68.2341C64.9935 68.2353 64.9287 68.3091 64.9298 68.3989L65.0656 79.1721C65.0667 79.2619 65.1334 79.3337 65.2145 79.3325L65.4592 79.3287C65.5402 79.3274 65.605 79.2536 65.6039 79.1638L65.4681 68.3906C65.467 68.3008 65.4003 68.229 65.3192 68.2303Z" fill="#0B53EC"/>
<path d="M95.5861 71.2456C95.4392 70.2699 95.2905 69.6612 94.4397 69.0107C94.4155 68.9929 94.3959 68.9686 94.3827 68.9401C94.3695 68.9116 94.3632 68.8799 94.3644 68.8481L94.3682 68.6771C94.3719 68.559 94.4209 68.5277 94.515 68.5833C95.4399 69.1407 95.9243 70.0135 95.9682 71.2018C95.9708 71.2296 95.9684 71.2577 95.9612 71.2845C95.954 71.3113 95.9421 71.3362 95.9262 71.3579C95.9103 71.3796 95.8907 71.3976 95.8685 71.4109C95.8463 71.4241 95.822 71.4325 95.7969 71.4353C95.7718 71.4382 95.7464 71.4356 95.7223 71.4276C95.6981 71.4196 95.6756 71.4065 95.656 71.3888C95.6364 71.3712 95.6202 71.3495 95.6082 71.3249C95.5962 71.3004 95.5887 71.2734 95.5861 71.2456Z" fill="#0B53EC"/>
<path d="M128.929 81.0596L128.758 81.5808C128.256 82.4926 127.517 83.0708 126.542 83.3154C126.109 83.4217 125.733 83.649 125.705 84.143C125.697 84.2662 125.647 84.3813 125.565 84.4642C125.483 84.547 125.375 84.5911 125.264 84.5871L124.244 84.5517C124.218 84.551 124.193 84.5562 124.169 84.567C124.146 84.5777 124.124 84.5938 124.106 84.6142C123.991 84.7518 123.84 84.9478 123.655 85.2021C123.348 85.6233 122.719 85.444 122.282 85.5086C122.222 85.5167 122.166 85.5468 122.122 85.5941C121.825 85.9151 121.512 86.2133 121.185 86.4885C120.916 86.7136 120.701 86.6886 120.383 86.722C120.322 86.7275 120.266 86.7511 120.215 86.7928C118.813 87.9666 117.736 88.8672 115.852 89.5865C114.681 89.9534 113.502 90.0639 112.315 89.918L111.728 89.9159C111.31 89.8811 110.941 89.7373 110.621 89.4843C110.566 89.4412 110.505 89.4183 110.438 89.4155C110.08 89.4016 109.752 89.2765 109.456 89.0403C109.436 89.0238 109.419 89.0025 109.405 88.9777C109.057 88.3036 108.561 87.8144 107.916 87.51C107.89 87.4974 107.868 87.4753 107.854 87.4473C107.841 87.4193 107.836 87.3871 107.841 87.3557C107.873 87.1431 107.959 87.0222 108.099 86.993C108.186 86.9735 108.297 87.0055 108.43 87.0889C109.002 87.4433 109.446 87.9096 109.761 88.4878C109.799 88.5579 109.849 88.6183 109.91 88.665C109.97 88.7117 110.039 88.7437 110.111 88.7588L111.013 88.9423C111.083 88.9576 111.132 89.0013 111.161 89.0736L111.25 89.2925C111.276 89.3578 111.322 89.3884 111.387 89.3842C112.187 89.3384 113.064 89.4885 113.772 89.4072C115.908 89.1626 117.788 88.2557 119.412 86.6865C119.639 86.4655 119.952 86.3071 120.214 86.1382C120.26 86.1084 120.314 86.096 120.366 86.1028C121.398 86.2362 121.531 84.5454 122.954 84.9311C122.984 84.939 123.015 84.9397 123.045 84.9332C123.075 84.9268 123.104 84.9132 123.129 84.8936C123.397 84.6747 123.549 84.3161 123.807 84.1576C124.168 83.9353 124.561 83.8936 124.984 84.0325C125.013 84.0431 125.045 84.0411 125.074 84.0268C125.102 84.0126 125.125 83.9872 125.138 83.9554C125.637 82.7337 126.243 82.9693 127.139 82.4752C127.66 82.1861 128.036 81.749 128.268 81.1639C128.697 80.0881 127.993 79.3501 129.241 78.585C129.306 78.5445 129.355 78.4809 129.379 78.4057C129.531 77.9456 129.503 77.5036 129.294 77.0797C129.264 77.0172 129.262 76.9532 129.287 76.8879C129.467 76.4355 129.976 76.5856 130.162 76.0457C130.506 75.0408 130.684 74.382 130.697 74.0693C130.755 72.5286 129.927 71.9386 129.385 70.9629C129.17 70.5779 129.18 70.1804 129.415 69.7704C129.428 69.7477 129.447 69.7305 129.47 69.7214C129.493 69.7124 129.518 69.712 129.541 69.7204L129.842 69.8225C129.858 69.8279 129.872 69.8369 129.884 69.8491C129.896 69.8612 129.906 69.8761 129.912 69.8927C129.919 69.9094 129.922 69.9274 129.921 69.9455C129.921 69.9636 129.917 69.9814 129.91 69.9976C129.733 70.3951 129.751 70.7127 129.964 70.9504C130.936 72.0345 131.514 73.2353 131.113 74.7531C130.976 75.2701 130.82 75.7774 130.646 76.275C130.503 76.6836 130.29 76.8525 129.938 77.0026C129.923 77.0089 129.91 77.0184 129.899 77.0306C129.888 77.0428 129.879 77.0574 129.873 77.0735C129.867 77.0897 129.864 77.107 129.864 77.1246C129.864 77.1421 129.868 77.1595 129.874 77.1756C130.091 77.7232 130.077 78.2312 129.831 78.6996C129.56 79.2187 128.94 79.2959 128.98 80.1006C128.995 80.4258 128.978 80.7455 128.929 81.0596Z" fill="#FDFDFD"/>
<path d="M63.4665 79.3323C63.6045 78.932 63.6698 78.3059 63.6622 77.4539C63.6484 75.6026 63.6039 73.7499 63.5286 71.8958C63.5248 71.8082 63.5625 71.7568 63.6415 71.7415L63.8806 71.6935C63.9596 71.6783 64.0023 71.7151 64.0086 71.804C64.1805 74.4003 64.1862 76.9966 64.0255 79.5929C64.0228 79.6321 64.0126 79.6703 63.9955 79.7047C63.9784 79.7392 63.9548 79.7691 63.9264 79.7925C63.8979 79.8158 63.8653 79.8321 63.8308 79.8401C63.7963 79.8481 63.7606 79.8477 63.7262 79.8389C63.4602 79.7708 63.3736 79.6019 63.4665 79.3323Z" fill="#0B53EC"/>
<path d="M51.0988 72.986L50.7488 72.9914C50.702 72.9921 50.6646 73.0347 50.6652 73.0865L50.8023 83.9598C50.803 84.0116 50.8414 84.053 50.8882 84.0523L51.2383 84.0468C51.2851 84.0461 51.3225 84.0035 51.3218 83.9517L51.1847 73.0784C51.1841 73.0266 51.1456 72.9852 51.0988 72.986Z" fill="#0B53EC"/>
<path d="M84.8545 79.6597C85.8597 79.447 86.8285 79.0676 87.7609 78.5214L89.8089 77.4227L90.9195 76.8577L92.3407 76.0968L93.0786 75.709C93.4638 75.4769 93.8535 75.2482 94.2475 75.0231C94.5167 74.8709 94.7162 74.9835 94.7482 75.3129C94.7545 75.3879 94.7269 75.4428 94.6654 75.4776C92.4267 76.7076 90.1835 77.9112 87.9359 79.0885C86.7977 79.6833 85.9776 80.0475 85.4757 80.1809C83.4352 80.7167 81.5547 79.9349 79.6328 78.7966C77.8056 77.7139 76.0782 76.463 74.4506 75.0439C74.4399 75.0348 74.4273 75.0288 74.414 75.0265C74.4007 75.0242 74.387 75.0258 74.3744 75.031C74.3617 75.0362 74.3505 75.0449 74.3418 75.0563C74.333 75.0677 74.3271 75.0814 74.3245 75.0961L74.076 76.4825C74.0692 76.5192 74.0722 76.5574 74.0845 76.5925C74.0969 76.6276 74.1181 76.6581 74.1456 76.6805L74.6934 77.1204C74.7104 77.1344 74.7243 77.1525 74.7341 77.1732C74.7439 77.194 74.7493 77.2169 74.7501 77.2404C74.7508 77.2638 74.7467 77.2871 74.7382 77.3085C74.7297 77.33 74.717 77.3491 74.7009 77.3643L74.4129 77.6395C74.3715 77.6798 74.3546 77.7299 74.3621 77.7896C74.4085 78.1969 74.3972 78.7278 74.3282 79.3824C74.2153 80.4227 75.3598 80.3227 75.9301 80.3852C75.9535 80.3879 75.9758 80.3971 75.995 80.412C76.0142 80.427 76.0297 80.4471 76.0399 80.4705C76.05 80.4939 76.0546 80.5198 76.0532 80.5458C76.0518 80.5717 76.0444 80.5968 76.0318 80.6187L75.2901 81.9009C75.2698 81.936 75.257 81.9759 75.2529 82.0174C75.2488 82.0589 75.2534 82.1008 75.2663 82.1399C75.2793 82.1789 75.3003 82.214 75.3276 82.2423C75.3549 82.2707 75.3879 82.2916 75.4238 82.3032L76.0619 82.5117C76.0856 82.5195 76.1064 82.5355 76.121 82.5574C76.1357 82.5792 76.1433 82.6057 76.1428 82.6326L76.1334 83.2539C76.1329 83.277 76.1367 83.2999 76.1445 83.3213C76.1524 83.3427 76.1642 83.3621 76.1792 83.3783C76.1942 83.3945 76.2121 83.4072 76.2317 83.4155C76.2514 83.4239 76.2724 83.4278 76.2934 83.4269L77.0746 83.3936C77.1102 83.3918 77.1452 83.4052 77.1724 83.4311C77.1997 83.457 77.2172 83.4935 77.2214 83.5333C77.3965 85.1865 78.925 84.6153 79.8756 85.2428C80.6191 85.7348 81.4493 86.4332 82.2304 86.698C82.9232 86.9336 83.6253 86.8815 84.3199 87.0587C85.6037 87.3881 85.8672 87.2109 86.5712 86.0246C86.5884 85.9962 86.6119 85.9733 86.6394 85.9583C86.6668 85.9433 86.6972 85.9367 86.7274 85.9391C87.5275 86.0038 88.207 86.0371 88.5703 85.0906C88.5822 85.0601 88.6017 85.0341 88.6264 85.0156C88.6511 84.9971 88.68 84.987 88.7096 84.9864C89.1407 84.976 89.4494 84.9176 89.9802 84.8634C90.5688 84.8022 91.0155 84.486 91.3204 83.9148C91.3568 83.8467 91.4102 83.8126 91.4804 83.8126H92.1487C92.1802 83.8121 92.211 83.8016 92.2373 83.7824C92.2637 83.7632 92.2845 83.7361 92.2974 83.7042L92.4461 83.3352C92.4597 83.3008 92.4817 83.2712 92.5096 83.2498C92.5376 83.2285 92.5703 83.2162 92.6042 83.2143C93.5655 83.1504 94.4709 82.8703 95.3205 82.3741C95.3858 82.3366 95.4316 82.356 95.4579 82.4325L95.5765 82.7661C95.6029 82.8425 95.5828 82.8988 95.5163 82.9349C94.6993 83.3811 93.8391 83.6681 92.9355 83.796C92.8728 83.8057 92.8295 83.8432 92.8056 83.9085L92.6758 84.2796C92.6642 84.3134 92.6435 84.3424 92.6162 84.3629C92.589 84.3834 92.5566 84.3944 92.5233 84.3943L91.7553 84.3859C91.7191 84.386 91.6837 84.3972 91.6531 84.4182C91.6225 84.4392 91.5979 84.4692 91.5821 84.5048C91.2075 85.3262 89.9614 85.5034 89.0974 85.5493C89.0221 85.5521 88.9631 85.5882 88.9204 85.6577C88.4574 86.4082 87.8029 86.7042 86.9571 86.5458C86.9293 86.5411 86.9009 86.5465 86.8762 86.5611C86.8514 86.5758 86.8316 86.5989 86.8197 86.6271C86.4244 87.5528 85.8132 87.9329 84.9862 87.7675C84.1593 87.6007 83.3272 87.4715 82.4902 87.3797C81.7354 87.2963 80.5909 86.4478 79.7156 85.8224C78.6276 85.0468 77.3043 85.7744 76.7941 84.1316C76.7847 84.1011 76.7667 84.0746 76.7427 84.0559C76.7188 84.0372 76.69 84.0272 76.6605 84.0274C76.1334 84.0274 75.5499 83.9565 75.6195 83.1872C75.6271 83.1135 75.6032 83.0565 75.548 83.0162C75.4075 82.9134 75.2694 82.8175 75.1339 82.7285C74.3809 82.2407 74.844 81.5256 75.1791 81.0044C75.1886 80.9894 75.1943 80.9718 75.1954 80.9534C75.1966 80.9351 75.1931 80.9169 75.1855 80.9008C75.1778 80.8847 75.1663 80.8714 75.1521 80.8624C75.138 80.8535 75.1219 80.8492 75.1056 80.8501C73.8746 80.8814 73.5621 79.5534 73.931 78.4839C73.9416 78.4527 73.9455 78.4193 73.9426 78.3864C73.9396 78.3535 73.9299 78.3219 73.9141 78.2941L73.6449 77.8126C73.6148 77.7584 73.6217 77.7104 73.6656 77.6687L73.9216 77.429C73.9377 77.414 73.9504 77.3952 73.9589 77.374C73.9673 77.3528 73.9712 77.3297 73.9703 77.3067C73.9694 77.2837 73.9637 77.2613 73.9536 77.2412C73.9435 77.2212 73.9294 77.2041 73.9122 77.1913C73.5696 76.9286 73.4617 76.5652 73.5885 76.1009C73.729 75.5825 73.7786 75.1426 73.7372 74.7813C73.7347 74.7581 73.7387 74.7349 73.7484 74.7145L74.0139 74.135C74.0218 74.1172 74.0333 74.1016 74.0476 74.0894C74.0618 74.0772 74.0783 74.0687 74.096 74.0645C74.1137 74.0603 74.132 74.0605 74.1497 74.0652C74.1675 74.0698 74.1841 74.0787 74.1983 74.0912C75.7369 75.4616 77.3507 76.6986 79.0398 77.8021C80.8638 78.9946 82.8403 79.8828 84.8545 79.6597Z" fill="#FDFDFD"/>
<path d="M49.3734 84.5061C49.3394 84.5061 49.3069 84.4912 49.2829 84.4646C49.2588 84.438 49.2454 84.4019 49.2454 84.3643V84.3101C49.2486 82.2334 49.2637 80.2405 49.2873 78.7648C49.3109 77.2891 49.3412 76.4499 49.3715 76.4296H49.7065C49.7217 76.4194 49.7365 76.6157 49.7499 77.0072C49.7634 77.3987 49.7752 77.9776 49.7849 78.7104C49.7945 79.4432 49.8017 80.3153 49.806 81.2765C49.8103 82.2377 49.8117 83.2687 49.8101 84.3101V84.3643C49.8101 84.4019 49.7966 84.438 49.7726 84.4646C49.7486 84.4912 49.716 84.5061 49.6821 84.5061H49.3734Z" fill="#0B53EC"/>
<path d="M103.543 78.6294L101.706 78.9516C101.623 78.9662 101.566 79.0527 101.579 79.1448L101.617 79.4084C101.63 79.5005 101.708 79.5633 101.791 79.5488L103.628 79.2265C103.711 79.2119 103.768 79.1254 103.755 79.0333L103.717 78.7698C103.704 78.6776 103.626 78.6148 103.543 78.6294Z" fill="#FDFDFD"/>
<path d="M157.128 79.1223L129.692 79.3874C129.594 79.3884 129.516 79.4769 129.516 79.5851L129.518 79.7811C129.519 79.8893 129.599 79.9763 129.696 79.9753L157.133 79.7102C157.231 79.7092 157.309 79.6207 157.308 79.5125L157.307 79.3165C157.306 79.2083 157.226 79.1213 157.128 79.1223Z" fill="#FC0401"/>
<path d="M73.3223 79.927L68.5413 79.9732C68.5018 79.9736 68.47 80.0093 68.4704 80.0531L68.4737 80.4742C68.474 80.518 68.5063 80.5531 68.5458 80.5527L73.3269 80.5065C73.3664 80.5061 73.3981 80.4704 73.3978 80.4266L73.3945 80.0055C73.3941 79.9618 73.3618 79.9266 73.3223 79.927Z" fill="#FC0401"/>
<path d="M87.8151 82.3049C88.2066 83.2077 88.0504 84.3605 87.0904 84.6066C87.032 84.6222 86.9707 84.6138 86.9178 84.5828C86.8649 84.5518 86.824 84.5003 86.8028 84.4381C86.7816 84.3758 86.7815 84.307 86.8026 84.2444C86.8236 84.1818 86.8644 84.1297 86.9172 84.0979C87.6011 83.6879 87.7053 83.0999 87.2297 82.3341C87.1933 82.2771 87.192 82.2201 87.2259 82.1632C87.4129 81.8435 87.4876 81.5023 87.4499 81.1395C87.4141 80.7851 87.1864 80.6079 87.0414 80.3306C87.0129 80.278 87.0022 80.2158 87.0112 80.1552C87.0203 80.0947 87.0485 80.0396 87.0909 80C87.1332 79.9604 87.1869 79.9387 87.2423 79.939C87.2978 79.9392 87.3513 79.9613 87.3934 80.0012C88.0196 80.5794 88.1596 81.2931 87.8132 82.1423C87.8026 82.1684 87.7973 82.1965 87.7976 82.2247C87.798 82.2528 87.8039 82.2802 87.8151 82.3049Z" fill="#FDFDFD"/>
<path d="M0.0291936 82.6958C0.27955 81.5992 0.787792 80.6631 1.92663 80.6402C11.8317 80.4484 21.2944 80.5109 32.7713 80.3191C32.8591 80.3177 32.9068 80.3657 32.9143 80.463L32.9369 80.7569C32.9432 80.8375 32.9093 80.8785 32.8353 80.8799C22.3881 80.9112 11.5117 81.1447 2.24663 81.1468C1.48051 81.1468 1.20944 81.2906 0.851793 81.9995C0.615868 82.4665 0.527396 82.8883 0.586377 83.2649C0.676731 83.8404 1.03438 84.9828 1.5238 85.3727C2.18452 85.9001 2.8057 85.6208 3.46453 85.5978C14.4727 85.2337 25.4808 84.8647 36.489 84.4908C36.632 84.4853 36.733 84.5214 36.792 84.5992C36.856 84.684 36.8748 84.7889 36.8485 84.914C36.8322 84.9863 36.7914 85.0231 36.7261 85.0245C29.7388 85.2816 22.7507 85.5124 15.7621 85.7167C14.9019 85.7417 14.0002 85.8668 13.1851 85.8751C11.3755 85.889 9.5672 85.9418 7.76012 86.0336C6.33704 86.1065 4.49984 86.044 2.8697 86.2004C2.34013 86.2518 1.9373 86.217 1.66121 86.0961C0.902616 85.7646 0.569436 85.1726 0.313433 84.3032C0.174137 83.8258 -0.0875138 83.2024 0.0291936 82.6958Z" fill="#FC0401"/>
<path d="M129.029 81.5624C128.997 81.5235 129.028 81.4575 129.123 81.3644L157.478 80.3908C157.55 80.388 157.593 80.4269 157.604 80.5075L157.641 80.7785C157.644 80.7946 157.643 80.811 157.639 80.8266C157.635 80.8423 157.628 80.8568 157.619 80.8692C157.61 80.8816 157.598 80.8917 157.585 80.8987C157.572 80.9057 157.558 80.9095 157.544 80.9099L129.315 81.9043C129.254 81.9071 129.207 81.8793 129.174 81.8209L129.029 81.5624Z" fill="#FC0401"/>
<path d="M81.4746 83.4177C81.6992 83.351 81.863 83.4323 81.9659 83.6616C81.9781 83.689 81.9815 83.7204 81.9753 83.7507C81.9692 83.7809 81.9539 83.8083 81.932 83.8284C81.5875 84.1432 81.2317 84.0681 80.9249 83.7033C80.0948 82.7151 78.8129 82.2523 79.6242 80.6053C79.6706 80.5122 79.7327 80.4969 79.8105 80.5594L80.0364 80.7387C80.1055 80.7943 80.1205 80.8631 80.0816 80.9451C79.5903 81.9813 80.3489 82.4128 81.0096 82.8527C81.0301 82.8663 81.0477 82.8852 81.0611 82.9079C81.0744 82.9306 81.0832 82.9566 81.0868 82.984C81.1069 83.1522 81.179 83.285 81.3033 83.3822C81.356 83.4239 81.4131 83.4358 81.4746 83.4177Z" fill="#FDFDFD"/>
<path d="M103.975 82.6326C103.982 82.641 103.987 82.6516 103.989 82.6631C103.991 82.6745 103.99 82.6864 103.986 82.6972C103.982 82.708 103.975 82.7173 103.967 82.7239C103.958 82.7306 103.948 82.7343 103.937 82.7347L96.7917 83.0224C96.7113 83.0252 96.6762 82.9821 96.6862 82.8932L96.7126 82.6639C96.7163 82.6314 96.7299 82.6014 96.7511 82.5786C96.7723 82.5559 96.7999 82.5418 96.8293 82.5388C97.0665 82.5138 97.3093 82.4262 97.5371 82.4199C99.5387 82.3629 101.54 82.2872 103.542 82.1927C103.561 82.1921 103.581 82.1959 103.599 82.2038C103.616 82.2117 103.632 82.2235 103.645 82.2386L103.975 82.6326Z" fill="#FC0401"/>
<path d="M121.031 83.0161C120.987 82.7145 121.089 82.4976 121.338 82.3656C121.361 82.3533 121.386 82.347 121.412 82.3472C121.437 82.3474 121.463 82.3541 121.485 82.3668C121.508 82.3794 121.528 82.3978 121.544 82.4203C121.559 82.4429 121.57 82.4691 121.575 82.4969C121.816 83.8979 120.109 84.8549 119.103 85.0216C118.904 85.055 118.751 85.0314 118.644 84.9508C118.606 84.9221 118.577 84.8811 118.561 84.8334C118.545 84.7858 118.543 84.7338 118.555 84.6847C118.567 84.6355 118.592 84.5916 118.627 84.559C118.662 84.5264 118.706 84.5067 118.751 84.5025C119.681 84.4233 120.432 83.9674 121.005 83.1349C121.016 83.1184 121.024 83.0994 121.029 83.079C121.033 83.0585 121.034 83.0371 121.031 83.0161Z" fill="#FDFDFD"/>
<path d="M74.639 83.183L54.8048 83.8733C54.7747 83.8744 54.751 83.9023 54.752 83.9357L54.7644 84.3733C54.7653 84.4066 54.7905 84.4328 54.8207 84.4318L74.6549 83.7415C74.685 83.7404 74.7087 83.7125 74.7077 83.6791L74.6953 83.2415C74.6944 83.2082 74.6692 83.182 74.639 83.183Z" fill="#FC0401"/>
<path d="M159.474 84.7876L120.39 87.2836C120.329 87.2874 120.283 87.3446 120.287 87.4112L120.303 87.7318C120.307 87.7984 120.359 87.8494 120.419 87.8455L159.504 85.3496C159.564 85.3457 159.61 85.2886 159.606 85.2219L159.59 84.9014C159.586 84.8347 159.534 84.7838 159.474 84.7876Z" fill="#FC0401"/>
<path d="M111.918 90.1052C112.099 90.14 112.231 90.0781 112.316 89.9197C113.503 90.0656 114.682 89.9551 115.853 89.5882L115.595 89.7446C115.531 89.7849 115.534 89.8161 115.606 89.8384C115.636 89.8481 115.673 89.8502 115.717 89.8446C119.907 89.4027 124.653 89.067 129.263 88.6459C137.703 87.8759 146.146 87.1379 154.59 86.4318C156.344 86.2845 158.097 86.1101 159.847 85.9085C159.938 85.8988 159.985 85.944 159.989 86.044L160 86.3943C160.002 86.4763 159.967 86.5208 159.893 86.5277C154.496 86.9558 149.103 87.4096 143.714 87.8891C98.9268 91.8627 54.1394 95.8273 9.35134 99.7829C8.1598 99.8871 7.46708 100.406 6.41672 99.3347C6.19836 99.1123 5.96746 98.6898 5.724 98.0671C5.22894 96.7995 5.42094 95.6133 6.37154 94.721C6.41303 94.6818 6.46468 94.6591 6.51836 94.6564L107.909 88.108C107.98 88.1038 108.019 88.1414 108.026 88.2206L108.05 88.5479C108.055 88.6202 108.025 88.6584 107.96 88.6626L6.76496 95.1984C6.66348 95.2052 6.56767 95.256 6.49766 95.3402C5.87647 96.0886 5.84071 97.0101 6.26236 97.9191C6.69531 98.8552 7.20731 99.7829 8.28215 99.4639C8.72263 99.3347 9.01314 99.2638 9.15369 99.2513C18.1163 98.441 27.0796 97.6411 36.0435 96.8517C61.1105 94.6473 86.1781 92.4395 111.246 90.2282C111.534 90.2032 111.758 90.1622 111.918 90.1052Z" fill="#FC0401"/>
</svg>
