<svg width="14" height="23" viewBox="0 0 14 23" fill="none" xmlns="http://www.w3.org/2000/svg">
<path d="M8.68393 11.4638L8.68403 11.4637L8.67771 11.4574C6.38758 9.15778 4.08089 6.86649 1.75762 4.58346C1.28965 4.12351 0.945801 3.74352 0.768316 3.345C0.601281 2.96995 0.573476 2.55781 0.80082 2.00445L0.800957 2.00412C1.28192 0.829421 2.86457 0.535667 3.82249 1.48412C6.69391 4.3307 9.56415 7.17845 12.4332 10.0274L12.4333 10.0275C13.1108 10.6998 13.3788 11.235 13.3737 11.7189C13.3685 12.2049 13.0871 12.7348 12.4243 13.3942C9.69013 16.1106 6.9548 18.8247 4.2183 21.5363L4.21805 21.5366C3.6983 22.0528 3.29951 22.3266 3.01523 22.4164L3.0151 22.4164C1.58945 22.8671 0.224356 21.426 0.776221 20.0739C0.891075 19.7926 1.20692 19.3758 1.77433 18.8143C4.07093 16.5438 6.37168 14.2637 8.67657 11.9742L8.6767 11.9743L8.68393 11.9666C8.74784 11.8985 8.7834 11.8086 8.7834 11.7152C8.7834 11.6218 8.74784 11.5319 8.68393 11.4638Z" stroke="#FEFD09" stroke-width="0.6"/>
</svg>
