<svg width="37" height="22" viewBox="0 0 37 22" fill="none" xmlns="http://www.w3.org/2000/svg">
<path d="M34.819 6.48688C35.5504 5.47792 36.2831 4.38128 36.7536 3.25086C36.8658 2.98018 36.948 2.67356 37 2.33101V2.19519C36.9631 1.48014 36.1928 1.32348 35.6118 1.32779L34.819 6.48688ZM34.819 6.48688C34.2725 7.24185 33.71 7.984 33.1474 8.72624M34.819 6.48688L33.1474 8.72624M31.101 12.7829L30.7361 12.9468C30.7361 12.9468 30.736 12.9467 30.736 12.9466C30.2865 11.9463 30.8574 11.1337 31.301 10.5256L31.301 10.5255C31.8031 9.83751 32.3169 9.15962 32.8282 8.4852L32.905 8.38384C33.4423 7.67489 33.9762 6.96908 34.495 6.25234L34.4952 6.25213C35.2234 5.24747 35.9326 4.18237 36.3841 3.09755C36.4789 2.86891 36.5519 2.60406 36.6 2.3002V2.20679C36.5885 2.03382 36.5045 1.93187 36.3385 1.85312C36.1474 1.76245 35.8792 1.72582 35.6148 1.72778L36.4634 19.6033C36.4238 19.4863 36.3269 19.2968 36.1497 19.0232L36.1496 19.023C35.4515 17.9439 34.6274 17.0327 33.7519 16.1568C33.4115 15.8163 33.0566 15.4748 32.6979 15.1298C32.1504 14.603 31.5943 14.0681 31.0685 13.5157M31.101 12.7829C31.2069 13.019 31.2927 13.1714 31.3582 13.2399M31.101 12.7829C30.757 12.0175 31.1638 11.3923 31.6242 10.7613M31.101 12.7829L31.6242 10.7613M31.3582 13.2399L31.0685 13.5157M31.3582 13.2399C31.8811 13.7892 32.4223 14.3097 32.9627 14.8293C34.2224 16.0407 35.4776 17.2478 36.4855 18.8057M31.3582 13.2399L31.0691 13.5164C31.0689 13.5161 31.0687 13.5159 31.0685 13.5157M31.0685 13.5157L36.4855 18.8057M36.4855 18.8057C36.6676 19.087 36.7866 19.3102 36.8425 19.4755M36.4855 18.8057L36.8425 19.4755M36.8425 19.4755C37.3339 20.9329 36.3113 21.2527 35.1565 21.2714C33.6553 21.2968 32.1539 21.32 30.6522 21.3411M36.8425 19.4755L36.4635 19.6036C36.5728 19.9278 36.5835 20.148 36.5558 20.2935C36.5301 20.4283 36.4677 20.5219 36.3706 20.5977C36.1447 20.7741 35.7214 20.8622 35.15 20.8714L35.1497 20.8714C33.6489 20.8968 32.1479 20.9201 30.6466 20.9411M30.6522 21.3411L30.647 20.9411C30.6469 20.9411 30.6467 20.9411 30.6466 20.9411M30.6522 21.3411L30.6466 20.9411M30.6522 21.3411C30.5722 21.3421 30.4772 21.3503 30.3786 21.3588C30.2028 21.3739 30.0156 21.39 29.8818 21.3684C28.4813 21.1442 27.4566 20.3659 26.5323 19.3325C25.7644 18.4745 25.2169 17.8655 24.8897 17.5057M30.6466 20.9411C30.5508 20.9424 30.432 20.9526 30.3289 20.9615C30.294 20.9645 30.2609 20.9674 30.2311 20.9697C30.0891 20.9806 29.9969 20.9818 29.9457 20.9735L29.9451 20.9734C28.6713 20.7695 27.7233 20.0641 26.8305 19.0658L26.8304 19.0657C26.0624 18.2077 25.514 17.5977 25.1857 17.2366M25.1857 17.2366C25.1857 17.2367 25.1858 17.2368 25.1858 17.2368L24.8897 17.5057M25.1857 17.2366C24.9749 17.0045 24.5934 16.6308 24.1657 16.3659C23.9519 16.2335 23.7057 16.1151 23.4482 16.066C23.1842 16.0156 22.8894 16.0357 22.6215 16.2091L22.6215 16.2091C22.094 16.5506 21.7344 17.057 21.5336 17.698L21.5336 17.6981C21.3592 18.2547 21.2602 18.7443 21.253 19.1566C21.2514 19.249 21.2511 19.3375 21.2508 19.4229C21.2499 19.6762 21.2491 19.902 21.215 20.1171C21.172 20.3892 21.086 20.5575 20.9396 20.6633L20.9396 20.6633C20.7469 20.8025 20.5618 20.8618 20.3771 20.8628M25.1857 17.2366L20.3771 20.8628M24.8897 17.5057C24.4923 17.0681 23.4784 16.131 22.8388 16.5449M24.8897 17.5057L22.8388 16.5449M20.3771 20.8628C20.377 20.8628 20.3769 20.8628 20.3768 20.8628L20.3789 21.2628M20.3771 20.8628C19.542 20.8666 18.7071 20.8695 17.8725 20.8714M20.3789 21.2628C19.5435 21.2666 18.7084 21.2695 17.8735 21.2714M20.3789 21.2628C20.6569 21.2613 20.9219 21.1696 21.1738 20.9875M20.3789 21.2628L21.1738 20.9875M17.8735 21.2714L17.873 20.8714C17.8728 20.8714 17.8727 20.8714 17.8725 20.8714M17.8735 21.2714C17.4509 21.2719 17.1221 21.2611 16.887 21.239M17.8735 21.2714L17.8725 20.8714M17.8725 20.8714L16.887 21.239M12.3746 1.77368L12.3747 1.77358L12.3746 1.77368ZM12.3746 1.77368L12.3746 1.77369L12.3746 1.77368ZM21.3204 2.9278C21.3364 2.4484 21.2557 1.9906 21.0782 1.55074L21.0781 1.55042C20.9865 1.32276 20.7644 1.15952 20.3987 1.04786C20.0346 0.936693 19.6153 0.903334 19.245 0.874277L21.3204 2.9278ZM21.3204 2.9278C21.2586 4.76167 21.2131 6.59626 21.1836 8.43157L21.1836 8.43211C21.1813 8.58982 21.2025 8.87595 21.2411 9.26773M21.3204 2.9278L23.3446 10.746M21.2411 9.26773C21.2411 9.26765 21.2411 9.26756 21.2411 9.26748L21.6392 9.22848L21.2411 9.26773ZM21.2411 9.26773C21.2694 9.55592 21.3554 9.92971 21.5289 10.2562C21.7005 10.5789 21.9971 10.9227 22.4694 10.9963L22.4703 10.9964C22.7948 11.0463 23.0941 10.9526 23.3446 10.746M23.3446 10.746L23.0903 10.4372C22.9202 10.5776 22.7338 10.6322 22.531 10.6011L23.3446 10.746ZM16.887 21.239C15.4222 21.0989 13.9747 20.6145 12.7 19.893C11.5314 19.2319 10.3896 18.4586 9.39742 17.5568C8.56249 16.798 7.76374 15.7479 7.20981 15.0197C7.15725 14.9506 7.10688 14.8844 7.05891 14.8216C4.18635 11.0667 1.85867 6.66438 0.111289 2.63499C0.0722656 2.54588 0.0351693 2.40095 0 2.20021L16.887 21.239ZM21.1738 20.9875C21.6471 20.6456 21.6492 20.0042 21.6511 19.4012C21.6513 19.3211 21.6516 19.2416 21.653 19.1636C21.6592 18.8048 21.7467 18.3561 21.9153 17.8176C22.0921 17.2533 22.3999 16.829 22.8388 16.5449M21.1738 20.9875L22.8388 16.5449M31.6242 10.7613C32.1239 10.0764 32.6357 9.40129 33.1474 8.72624M31.6242 10.7613L33.1474 8.72624M16.9246 20.8408C15.5206 20.7064 14.127 20.2411 12.897 19.5449L12.8969 19.5449C11.7464 18.8939 10.6308 18.1373 9.66647 17.2608L9.66644 17.2607C8.86053 16.5284 8.08398 15.5079 7.52661 14.7754C7.4747 14.7072 7.42469 14.6415 7.37673 14.5788L7.3766 14.5786C4.53017 10.8579 2.21765 6.48678 0.478268 2.47585L0.47827 2.47585L0.477695 2.47453C0.460122 2.4344 0.431858 2.33903 0.4 2.16473V2.06011C0.440058 1.95664 0.512917 1.89056 0.627422 1.84081C0.77325 1.77744 0.97146 1.75026 1.19532 1.74862L1.19545 1.74862C2.94754 1.73521 4.69988 1.72131 6.45246 1.70694C6.51511 1.70663 6.65809 1.73623 6.90852 1.8519L6.90876 1.85201C7.16316 1.96932 7.33684 2.14923 7.44448 2.40593L7.44453 2.40605C7.94591 3.60055 8.50055 4.76991 9.10843 5.9141C9.23114 6.14529 9.35346 6.38199 9.47733 6.62169C10.0495 7.72881 10.6547 8.89997 11.4846 9.88754C11.7156 10.1629 12.0546 10.5313 12.4598 10.7794C12.8713 11.0314 13.4105 11.1917 13.9747 10.9245L13.9747 10.9245C14.0718 10.8785 14.154 10.8064 14.2122 10.7164L14.2134 10.7145C14.6945 9.96214 14.7793 9.22089 14.8626 8.49311C14.8731 8.40098 14.8836 8.30907 14.8949 8.21738L14.895 8.21721C15.0475 6.97385 15.0283 5.72943 14.8949 4.49704L14.8948 4.49666C14.8312 3.91388 14.7249 3.26229 14.455 2.70843L14.4548 2.70803C14.1217 2.02634 13.4514 1.73834 12.8665 1.58457C13.1604 1.29012 13.5119 1.10766 13.9296 1.03053L13.9299 1.03047C15.6308 0.714935 17.4899 0.737396 19.2448 0.874262L16.9246 20.8408ZM33.2353 1.75019C34.0291 1.74223 34.8224 1.73428 35.6147 1.72778L23.3449 10.7457C23.8543 10.3262 24.3851 9.83598 24.8565 9.17676C26.3867 7.04224 27.6467 4.72729 28.5943 2.27618L28.5943 2.27597C28.7258 1.93549 28.9771 1.75828 29.3149 1.77202L29.315 1.77202L29.3481 1.77336C29.473 1.77843 29.5534 1.78169 29.566 1.78169L29.5683 1.78168C30.7902 1.77471 32.0132 1.76245 33.2353 1.75019ZM12.6523 1.86692L12.6527 1.86557L12.6523 1.86692Z" stroke="white" stroke-width="0.8"/>
</svg>
