<svg width="14" height="23" viewBox="0 0 14 23" fill="none" xmlns="http://www.w3.org/2000/svg">
<path d="M4.98941 11.9562L4.98931 11.9563L4.99563 11.9627C7.28576 14.2623 9.59245 16.5536 11.9157 18.8366C12.3837 19.2965 12.7275 19.6765 12.905 20.075C13.0721 20.4501 13.0999 20.8622 12.8725 21.4156L12.8724 21.4159C12.3914 22.5906 10.8088 22.8844 9.85085 21.9359C6.97943 19.0893 4.10919 16.2416 1.24014 13.3927L1.24008 13.3926C0.562585 12.7203 0.294494 12.185 0.299631 11.7011C0.304792 11.2151 0.586222 10.6852 1.24907 10.0258C3.98321 7.30941 6.71854 4.59538 9.45504 1.88371L9.45529 1.88347C9.97504 1.36722 10.3738 1.09341 10.6581 1.00369L10.6582 1.00365C12.0839 0.552958 13.449 1.99406 12.8971 3.34612C12.7823 3.62741 12.4664 4.0442 11.899 4.60571C9.60241 6.87629 7.30166 9.15633 4.99677 11.4458L4.99664 11.4457L4.98941 11.4534C4.9255 11.5215 4.88994 11.6114 4.88994 11.7048C4.88994 11.7982 4.9255 11.8881 4.98941 11.9562Z" stroke="#FEFD09" stroke-width="0.6"/>
</svg>
