<svg width="37" height="21" viewBox="0 0 37 21" fill="none" xmlns="http://www.w3.org/2000/svg">
<path d="M34.819 6.10798C35.5504 5.09901 36.2831 4.00237 36.7536 2.87196C36.8658 2.60127 36.948 2.29465 37 1.9521V1.81628C36.9631 1.10124 36.1928 0.944573 35.6118 0.948884L34.819 6.10798ZM34.819 6.10798C34.2725 6.86294 33.71 7.60509 33.1474 8.34734M34.819 6.10798L33.1474 8.34734M31.101 12.4039L30.7361 12.5679C30.7361 12.5679 30.736 12.5678 30.736 12.5677C30.2865 11.5673 30.8574 10.7548 31.301 10.1467L31.301 10.1466C31.8031 9.45862 32.3169 8.78076 32.8281 8.10635L32.905 8.00493C33.4423 7.29598 33.9762 6.59017 34.495 5.87343L34.4952 5.87322C35.2234 4.86845 35.9328 3.80321 36.3843 2.71827C36.479 2.48972 36.5519 2.22499 36.6 1.92129V1.82789C36.5885 1.65491 36.5045 1.55297 36.3385 1.47422C36.1474 1.38355 35.8792 1.34692 35.6148 1.34887L36.4634 19.2244C36.4238 19.1074 36.3269 18.9179 36.1497 18.6443L36.1496 18.6441C35.4515 17.565 34.6274 16.6538 33.7519 15.7779C33.4115 15.4374 33.0566 15.0959 32.6979 14.7509C32.1504 14.2241 31.5943 13.6892 31.0685 13.1368M31.101 12.4039C31.2069 12.6401 31.2927 12.7925 31.3582 12.861M31.101 12.4039C30.757 11.6386 31.1638 11.0134 31.6242 10.3824M31.101 12.4039L31.6242 10.3824M31.3582 12.861L31.0685 13.1368M31.3582 12.861C31.8811 13.4103 32.4223 13.9307 32.9627 14.4504C34.2224 15.6618 35.4776 16.8689 36.4855 18.4268L31.0685 13.1368M31.3582 12.861L31.0691 13.1375C31.0689 13.1372 31.0687 13.137 31.0685 13.1368M31.6242 10.3824C32.1239 9.69752 32.6357 9.02239 33.1474 8.34734M31.6242 10.3824L33.1474 8.34734M9.39742 17.1778C10.3896 18.0797 11.5314 18.853 12.7 19.5141C13.9747 20.2356 15.4222 20.72 16.887 20.8601L9.39742 17.1778ZM9.39742 17.1778C8.56249 16.4191 7.76373 15.369 7.2098 14.6408M9.39742 17.1778L7.2098 14.6408M21.0782 1.17183L21.0781 1.17152C20.9865 0.943857 20.7644 0.780618 20.3987 0.668957C20.0346 0.557787 19.6153 0.524428 19.245 0.495371L21.0782 1.17183ZM21.0782 1.17183C21.2557 1.6117 21.3364 2.06949 21.3204 2.54889C21.2586 4.38276 21.2131 6.21735 21.1836 8.05266L21.1836 8.0532L21.0782 1.17183ZM22.4703 10.6175L22.4694 10.6174C21.9971 10.5438 21.7005 10.2 21.5289 9.87726C21.3554 9.55081 21.2694 9.17702 21.2411 8.88883C21.2411 8.88874 21.2411 8.88866 21.2411 8.88857L21.6392 8.84957L22.4703 10.6175ZM22.4703 10.6175C22.7948 10.6674 23.0941 10.5737 23.3446 10.3671L22.4703 10.6175ZM7.2098 14.6408C7.15724 14.5717 7.10688 14.5055 7.05891 14.4427L7.2098 14.6408ZM16.9246 20.4619C15.5206 20.3275 14.127 19.8622 12.897 19.166L12.8969 19.166C11.7464 18.515 10.6308 17.7584 9.66647 16.8819L9.66644 16.8818C8.86052 16.1494 8.08397 15.129 7.5266 14.3965C7.47469 14.3283 7.42469 14.2626 7.37673 14.1998L7.3766 14.1997C4.53017 10.479 2.21765 6.10787 0.478268 2.09694L0.47827 2.09694L0.477695 2.09563C0.460122 2.0555 0.431858 1.96013 0.4 1.78582V1.6812C0.440058 1.57773 0.512917 1.51165 0.627422 1.4619C0.77325 1.39853 0.97146 1.37136 1.19532 1.36971L1.19545 1.36971C2.94754 1.3563 4.69988 1.34241 6.45246 1.32803C6.51511 1.32772 6.65809 1.35732 6.90852 1.47299L6.90876 1.4731C7.16316 1.59041 7.33684 1.77032 7.44448 2.02702L7.44453 2.02715C7.94591 3.22164 8.50055 4.391 9.10843 5.5352C9.23114 5.76638 9.35346 6.00308 9.47733 6.24277C10.0495 7.3499 10.6547 8.52106 11.4846 9.50864C11.7156 9.78402 12.0546 10.1524 12.4598 10.4005C12.8713 10.6525 13.4105 10.8128 13.9747 10.5456L13.9747 10.5456C14.0718 10.4996 14.154 10.4275 14.2122 10.3375L14.2134 10.3356C14.6945 9.58324 14.7793 8.84199 14.8626 8.11421C14.8731 8.02208 14.8836 7.93017 14.8949 7.83847L14.895 7.8383C15.0475 6.59494 15.0283 5.35052 14.8949 4.11813L14.8948 4.11776C14.8312 3.53497 14.7249 2.88339 14.455 2.32952L14.4548 2.32913C14.1217 1.64744 13.4514 1.35943 12.8665 1.20566C13.1604 0.911217 13.5119 0.728751 13.9296 0.651624L13.9299 0.651565C15.6308 0.336029 17.4899 0.35849 19.2448 0.495355L16.9246 20.4619ZM12.2729 1.36138C12.3023 1.27227 12.3463 1.19202 12.4051 1.12064L12.2729 1.36138ZM12.6523 1.48802L12.6527 1.48666L12.6523 1.48802ZM33.2353 1.37129C34.0291 1.36333 34.8224 1.35537 35.6147 1.34887L23.3449 10.3668C23.8543 9.94729 24.3851 9.45707 24.8565 8.79785C26.3867 6.66334 27.6467 4.34838 28.5943 1.89727L28.5943 1.89707C28.7258 1.55658 28.9771 1.37938 29.3149 1.39311L29.315 1.39311L29.348 1.39445C29.4729 1.39952 29.5534 1.40278 29.566 1.40279L29.5683 1.40278C30.7902 1.39581 32.0132 1.38354 33.2353 1.37129Z" stroke="white" stroke-width="0.8"/>
</svg>
