<svg width="136" height="108" viewBox="0 0 136 108" fill="none" xmlns="http://www.w3.org/2000/svg">
<path d="M35.1135 14.3077C35.1135 14.3077 59.1626 17.7225 67.8116 26.5252C75.1964 34.0414 68.0939 42.7265 75.8172 50.0287C84.1519 57.909 98.1641 52.5082 106.441 60.4261C114.025 67.681 114.188 83.7021 114.188 83.7021" stroke="white" stroke-width="4"/>
<path d="M23.2313 23.2716C23.2313 23.2716 47.2804 26.6863 55.9294 35.489C63.3142 43.0053 56.2117 51.6904 63.935 58.9926C72.2697 66.8729 86.2819 61.472 94.559 69.3899C102.143 76.6449 102.305 92.666 102.305 92.666" stroke="white" stroke-width="4"/>
<path d="M11.3488 32.2353C11.3488 32.2353 35.398 35.6501 44.0469 44.4528C51.4318 51.969 44.3292 60.6541 52.0526 67.9564C60.3873 75.8367 74.3995 70.4358 82.6766 78.3537C90.2607 85.6087 90.423 101.63 90.423 101.63" stroke="white" stroke-width="4"/>
</svg>
