<svg width="131" height="99" viewBox="0 0 131 99" fill="none" xmlns="http://www.w3.org/2000/svg">
<path d="M20.1844 23.8499C20.1844 23.8499 43.8188 18.2427 55.0858 23.2772C64.7061 27.576 61.2674 38.2555 71.1247 42.2315C81.7622 46.5221 92.8327 36.3755 103.43 40.7222C113.141 44.7049 119.145 59.5593 119.145 59.5593" stroke="#FC6806" stroke-width="4"/>
<path d="M12.3983 36.535C12.3983 36.535 36.0327 30.9278 47.2996 35.9624C56.92 40.2611 53.4813 50.9407 63.3385 54.9166C73.9761 59.2072 85.0466 49.0606 95.6442 53.4073C105.355 57.39 111.359 72.2444 111.359 72.2444" stroke="#FC6806" stroke-width="4"/>
<path d="M4.61192 49.2203C4.61192 49.2203 28.2463 43.6131 39.5133 48.6476C49.1336 52.9463 45.6949 63.6259 55.5522 67.6018C66.1897 71.8925 77.2602 61.7458 87.8578 66.0925C97.5682 70.0753 103.572 84.9297 103.572 84.9297" stroke="#FC6806" stroke-width="4"/>
</svg>
