<svg width="157" height="178" viewBox="0 0 157 178" fill="none" xmlns="http://www.w3.org/2000/svg">
<path d="M39.483 121.511C37.415 120.467 36.7965 118.793 37.6275 116.487C37.7032 116.276 37.7212 116.048 37.6797 115.826C37.6381 115.605 37.5385 115.398 37.3909 115.226C35.569 113.141 35.7619 111.15 37.9698 109.252C38.0621 109.171 38.1368 109.071 38.1891 108.96C38.2415 108.849 38.2703 108.729 38.2738 108.606C38.2774 108.484 38.2555 108.363 38.2096 108.251C38.1637 108.139 38.0948 108.037 38.0072 107.954C36.1193 106.114 36.334 104.453 38.6512 102.972C39.223 102.615 39.2737 102.189 38.8032 101.695C31.2262 93.7364 38.4994 79.8878 45.1966 74.6689C47.2285 73.0744 49.6232 71.1825 52.3807 68.993C59.0342 63.6917 67.6732 64.6107 75.4151 64.7817C82.5822 64.9579 88.4779 67.5991 93.102 72.7054C94.6966 74.4752 95.4282 77.358 97.9988 78.4368C106.556 82.0406 110.535 88.5482 109.935 97.9596C109.904 98.4384 110.105 98.7879 110.538 99.0082C118.882 103.299 122.872 110.847 120.658 120.057C119.533 124.682 127.925 126.043 123.149 133.583C123.114 133.635 123.091 133.695 123.082 133.757C123.073 133.819 123.077 133.883 123.096 133.944C123.114 134.005 123.145 134.062 123.187 134.111C123.228 134.16 123.28 134.2 123.339 134.228C129.015 136.931 128.704 139.914 130.906 144.676C132.853 148.901 136.402 152.494 139.48 155.998C141.654 158.471 142.816 160.96 138.861 162.572C135.015 164.141 130.878 163.864 126.452 161.743C124.829 160.962 123.052 161.259 121.121 162.635C116.802 165.707 101.899 178.085 101.459 164.857C101.29 159.831 101.649 154.864 102.536 149.958C102.551 149.89 102.547 149.82 102.525 149.755C102.503 149.69 102.464 149.631 102.411 149.585C102.358 149.539 102.293 149.507 102.224 149.493C102.154 149.478 102.082 149.482 102.014 149.503C97.543 150.864 93.0219 150.713 88.4501 149.049C75.1042 144.195 62.394 138.017 50.3195 130.515C47.49 128.764 43.7108 128.036 41.401 126.754C39.7805 125.854 39.2909 124.466 39.9321 122.589C40.1041 122.098 39.9544 121.738 39.483 121.511ZM51.4356 89.7928C59.0569 85.416 61.693 90.7057 63.6622 96.463C64.4022 98.6204 64.8533 98.5622 65.0156 96.2883C66.0694 81.5919 79.8537 75.2186 93.1705 76.6647C93.2266 76.6685 93.2826 76.6567 93.3325 76.6306C93.3823 76.6046 93.424 76.5654 93.4531 76.5172C93.4821 76.4691 93.4973 76.4139 93.497 76.3576C93.4967 76.3014 93.4809 76.2463 93.4514 76.1985C86.5776 65.8507 71.8327 63.4822 62.2216 71.3258C56.2224 76.2265 52.4705 82.2685 50.9659 89.4519C50.868 89.918 51.0246 90.0317 51.4356 89.7928ZM49.0199 88.7581C51.6223 79.5318 56.7274 72.7661 64.8416 67.429C65.6649 66.8921 65.587 66.6499 64.6078 66.7024C52.8555 67.4211 47.8 75.3385 44.8121 86.9993C44.7371 87.2917 44.8374 87.4937 45.1131 87.605L48.5449 88.9948C48.7842 89.0894 48.9425 89.0105 49.0199 88.7581ZM91.5274 78.6096C81.4784 77.4046 74 80.7105 69.0921 88.5272C67.2283 91.4838 67.0316 95.5117 66.5257 98.9769C66.5096 99.0823 66.5146 99.1899 66.5406 99.2934C66.5666 99.3968 66.613 99.494 66.677 99.5794C66.741 99.6647 66.8214 99.7364 66.9135 99.7902C67.0056 99.8441 67.1075 99.879 67.2132 99.893C72.1012 100.564 73.5186 105 76.4006 108.437C76.6593 108.747 76.9775 109.002 77.3363 109.186C77.6951 109.371 78.0873 109.481 78.4896 109.512C78.8919 109.542 79.2962 109.491 79.6786 109.363C80.061 109.234 80.4137 109.03 80.7159 108.763C82.8882 106.843 86.3461 102.437 89.5541 105.877C89.9476 106.307 90.2999 106.275 90.611 105.779C94.4869 99.6569 100.024 96.9686 107.222 97.7144C107.659 97.7574 107.893 97.5642 107.925 97.135C108.759 86.7441 101.35 79.7817 91.5274 78.6096ZM42.3592 91.2688C42.7681 86.5886 44.0537 82.1629 46.216 77.9918C47.2245 76.0557 46.8493 75.7376 45.0906 77.0375C40.6598 80.3105 38.7313 86.2814 37.6875 92.36C37.6804 92.41 37.6858 92.461 37.7032 92.5084C37.7206 92.5558 37.7494 92.5981 37.7871 92.6317C37.8249 92.6652 37.8703 92.6889 37.9194 92.7007C37.9685 92.7124 38.0197 92.7118 38.0686 92.699L42.0569 91.6124C42.2433 91.5684 42.344 91.4539 42.3592 91.2688ZM59.825 92.7417C57.6965 87.5923 54.0482 91.0427 50.8964 92.0202C50.4138 92.1665 50.1295 92.4936 50.0435 93.0016C48.3488 103.156 55.7633 110.09 65.7279 108.781C66.2857 108.708 66.492 108.401 66.347 107.86C65.987 106.466 65.6469 105.072 65.3269 103.676C64.4505 99.8313 61.3955 96.5247 59.825 92.7417ZM90.5275 110.229C90.4918 110.328 90.4764 110.434 90.4822 110.538C90.4879 110.643 90.5148 110.746 90.561 110.839C90.6073 110.933 90.672 111.015 90.7512 111.082C90.8304 111.149 90.9223 111.198 91.0215 111.228C98.2824 113.474 93.5252 124.133 100.975 124.753C101.186 124.769 101.399 124.741 101.599 124.669C101.799 124.596 101.983 124.483 102.137 124.334C106.606 119.996 111.875 118.75 117.945 120.598C118.544 120.781 118.915 120.569 119.059 119.963C123.502 101.931 98.1578 89.4604 90.5275 110.229ZM50.1938 103.756C48.0097 100.08 48.2937 96.4544 48.061 92.108C48.0319 91.547 47.8311 91.0094 47.4862 90.5695C47.1414 90.1296 46.6695 89.8093 46.1359 89.6527L45.7027 89.5115C45.5172 89.4569 45.3218 89.445 45.1311 89.4765C44.9404 89.5081 44.7592 89.5824 44.6012 89.6938C44.4432 89.8052 44.3125 89.9509 44.2187 90.1199C44.1249 90.289 44.0705 90.4771 44.0597 90.6701C43.7535 96.7445 45.6019 101.282 49.6048 104.283C50.704 105.114 50.9004 104.938 50.1938 103.756ZM39.3435 100.091C39.3827 100.166 39.4374 100.233 39.5039 100.287C39.5705 100.34 39.6475 100.379 39.73 100.401L43.4291 101.396C43.5348 101.422 43.6454 101.419 43.7495 101.387C43.8536 101.356 43.9474 101.297 44.0214 101.217C44.0954 101.138 44.1468 101.04 44.1703 100.934C44.1939 100.827 44.1888 100.717 44.1555 100.613L41.9909 94.2407C41.9422 94.1016 41.8451 93.9847 41.7172 93.9115C41.5893 93.8383 41.4393 93.8137 41.2947 93.8422L37.4599 94.5869C37.3681 94.6052 37.2817 94.6443 37.2074 94.7012C37.1331 94.7581 37.0728 94.8313 37.0312 94.9152C36.9896 94.999 36.9677 95.0913 36.9674 95.1849C36.967 95.2785 36.988 95.3709 37.0289 95.4551L39.3435 100.091ZM85.392 107.019C73.6469 119.015 73.8523 101.74 68.0057 102.06C67.5161 102.087 67.2645 102.346 67.2507 102.838C67.0301 114.457 76.5533 118.08 86.6466 118.369C87.1099 118.377 87.3601 118.152 87.3971 117.694C87.5762 114.86 88.0236 112.071 88.7393 109.328C88.9499 108.527 88.9298 107.9 88.679 107.447C88.2709 106.727 87.603 106.388 86.6751 106.431C86.176 106.455 85.7483 106.651 85.392 107.019ZM47.0612 113.669L44.6277 111.785C44.2976 111.531 44.0406 111.195 43.8826 110.809C43.7246 110.424 43.6713 110.004 43.7281 109.591C43.7849 109.179 43.9498 108.788 44.206 108.46C44.4623 108.132 44.8008 107.877 45.1872 107.722C46.1853 107.307 47.2492 107.068 48.3789 107.004C48.5554 106.994 48.7232 106.924 48.8553 106.807C48.9875 106.689 49.0763 106.531 49.1074 106.357C49.1386 106.183 49.1102 106.003 49.027 105.848C48.9438 105.692 48.8105 105.568 48.6486 105.497C47.2693 104.866 46.7194 103.457 45.1188 102.976C42.3478 102.146 40.2605 102.934 38.8568 105.34C38.7475 105.526 38.6831 105.734 38.6686 105.949C38.6542 106.164 38.6901 106.38 38.7736 106.579C38.8571 106.777 38.9858 106.954 39.1496 107.094C39.3133 107.234 39.5075 107.334 39.7167 107.386C40.0551 107.48 40.3426 107.633 40.5794 107.846C40.945 108.162 40.9648 108.502 40.639 108.866L38.0508 111.73C37.8634 111.94 37.7592 112.21 37.7585 112.49C37.7579 112.769 37.8607 113.037 38.0472 113.243C38.437 113.692 38.9106 114.301 39.4679 115.069C39.9303 115.71 39.8794 116.373 39.3149 117.058C39.0195 117.417 38.9058 117.836 38.9739 118.314C39.1142 119.3 39.6951 119.968 40.7168 120.319C41.2181 120.493 41.7297 120.56 42.2515 120.52C42.7525 120.486 43.1783 120.641 43.5289 120.984C43.6682 121.117 43.7506 121.299 43.7585 121.491C43.7665 121.683 43.6994 121.871 43.5715 122.015C43.2683 122.364 42.8841 122.618 42.4188 122.777C39.9597 123.648 40.0464 124.525 42.6788 125.408C47.8231 127.131 52.6468 129.53 57.1499 132.605C62.8648 136.518 92.8925 152.944 101.587 147.36C101.981 147.108 102.259 146.76 102.422 146.316C104.434 140.925 102.789 136.831 100.398 131.187C100.212 130.756 99.8857 130.546 99.4188 130.557C92.9311 130.816 89.869 126.054 87.7757 120.718C87.5953 120.259 87.2574 120.032 86.7619 120.037C78.9624 120.093 71.4801 117.997 67.2808 110.929C67.0282 110.486 66.6469 110.305 66.137 110.387C60.7715 111.302 57.2622 109.616 51.41 107.294C50.895 107.088 50.4626 107.205 50.1128 107.643C49.2875 108.714 48.1821 109.173 46.7966 109.02C46.5749 109 46.353 109.056 46.1668 109.178C45.9807 109.3 45.841 109.481 45.7703 109.693C45.6996 109.904 45.702 110.132 45.7771 110.342C45.8523 110.551 45.9957 110.73 46.1844 110.848L47.9626 111.881C48.237 112.051 48.3215 112.285 48.216 112.581L47.9248 113.417C47.7547 113.899 47.4668 113.983 47.0612 113.669ZM99.5312 126.661C94.1663 124.981 94.584 117.582 91.7972 113.169C91.6803 112.985 91.5121 112.839 91.3135 112.749C91.1148 112.659 90.8942 112.628 90.6786 112.662C90.4629 112.695 90.2617 112.79 90.0994 112.936C89.9371 113.082 89.8209 113.272 89.7648 113.483C88.1926 119.348 89.992 124.119 95.1631 127.795C96.7056 128.897 98.1784 129.19 99.5815 128.674C101.528 127.953 101.511 127.282 99.5312 126.661ZM122.462 127.401C119.475 120.116 109.141 120.004 104.146 125.085C103.814 125.428 103.853 125.722 104.261 125.967C107.902 128.138 112.553 133.6 116.053 134.157C119.481 134.701 124.109 131.406 122.462 127.401ZM118.344 136.637C118.399 136.607 118.442 136.558 118.466 136.5C118.49 136.441 118.494 136.376 118.476 136.316C118.458 136.255 118.419 136.203 118.367 136.167C118.315 136.131 118.253 136.114 118.19 136.119C110.359 136.732 108.323 127.95 103.639 128.164C103.399 128.176 103.164 128.241 102.952 128.353C102.739 128.466 102.554 128.624 102.409 128.815C102.264 129.007 102.163 129.228 102.112 129.463C102.062 129.698 102.063 129.942 102.117 130.176C102.501 131.861 103.102 133.601 103.92 135.398C105.888 139.745 115.102 138.488 118.344 136.637ZM122.187 158.638C122.185 158.842 122.263 159.038 122.405 159.184C122.547 159.331 122.741 159.415 122.944 159.419C129.158 159.435 132.24 164.245 139.028 160.749C139.208 160.657 139.365 160.525 139.487 160.363C139.608 160.201 139.691 160.013 139.729 159.813C139.766 159.614 139.758 159.409 139.704 159.214C139.65 159.018 139.552 158.838 139.417 158.686C135.834 154.642 131.806 150.514 129.504 145.658C128.033 142.606 127.052 137.822 123.45 136.622C122.733 136.388 122.373 136.646 122.369 137.397L122.187 158.638ZM119.076 137.948C117.313 139.899 112.518 140.463 110.142 140.237C110.07 140.232 109.998 140.245 109.933 140.277C109.867 140.309 109.812 140.358 109.772 140.418C109.732 140.479 109.708 140.549 109.704 140.621C109.7 140.694 109.715 140.766 109.749 140.83C112.269 145.45 115.511 149.47 119.474 152.889C119.55 152.951 119.641 152.991 119.739 153.004C119.836 153.018 119.935 153.003 120.024 152.963C120.114 152.923 120.19 152.858 120.245 152.777C120.3 152.695 120.33 152.6 120.334 152.502L120.558 138.346C120.563 138.273 120.551 138.199 120.523 138.13C120.495 138.061 120.452 137.997 120.397 137.945C119.929 137.49 119.488 137.491 119.076 137.948ZM104.123 149.96C103.73 154.634 102.265 162.71 103.684 167.058C103.897 167.716 104.343 168.274 104.94 168.627C105.537 168.98 106.244 169.104 106.927 168.976C111.327 168.145 116.433 163.887 119.611 161.282C120.112 160.874 120.509 160.351 120.768 159.758C121.027 159.165 121.14 158.519 121.097 157.873C121.055 157.228 120.859 156.602 120.525 156.047C120.192 155.493 119.73 155.027 119.179 154.687C114.231 151.661 110.042 144.699 106.872 140.035C105.685 138.307 105.237 138.48 105.528 140.553C105.961 143.602 104.364 147.113 104.123 149.96Z" fill="black"/>
<path d="M51.4356 89.7926C51.0245 90.0315 50.868 89.9178 50.9659 89.4517C52.4705 82.2683 56.2224 76.2262 62.2216 71.3256C71.8327 63.482 86.5776 65.8505 93.4513 76.1983C93.4808 76.2461 93.4966 76.3012 93.4969 76.3574C93.4972 76.4136 93.482 76.4688 93.453 76.517C93.424 76.5652 93.3823 76.6044 93.3324 76.6304C93.2826 76.6564 93.2265 76.6682 93.1704 76.6645C79.8537 75.2184 66.0694 81.5917 65.0156 96.2881C64.8533 98.562 64.4022 98.6202 63.6622 96.4628C61.693 90.7055 59.0569 85.4158 51.4356 89.7926Z" fill="#FC6806"/>
<path d="M64.8415 67.4283C56.7274 72.7654 51.6223 79.5311 49.0198 88.7573C48.9425 89.0098 48.7842 89.0887 48.5449 88.994L45.1131 87.6043C44.8374 87.4929 44.7371 87.291 44.8121 86.9985C47.8 75.3377 52.8555 67.4203 64.6078 66.7017C65.587 66.6492 65.6649 66.8914 64.8415 67.4283Z" fill="#FC6806"/>
<path d="M91.5273 78.6092C101.35 79.7813 108.759 86.7437 107.925 97.1346C107.893 97.5638 107.659 97.757 107.222 97.714C100.024 96.9682 94.4868 99.6565 90.6109 105.779C90.2998 106.274 89.9475 106.307 89.554 105.876C86.346 102.437 82.8881 106.843 80.7158 108.762C80.4136 109.029 80.0609 109.233 79.6785 109.362C79.2961 109.491 78.8918 109.541 78.4895 109.511C78.0872 109.481 77.695 109.37 77.3362 109.186C76.9774 109.001 76.6592 108.747 76.4005 108.437C73.5185 105 72.1011 100.563 67.2131 99.8926C67.1074 99.8786 67.0055 99.8437 66.9134 99.7898C66.8213 99.736 66.7409 99.6643 66.6769 99.579C66.6129 99.4937 66.5665 99.3964 66.5405 99.293C66.5145 99.1895 66.5095 99.0819 66.5256 98.9765C67.0315 95.5113 67.2282 91.4834 69.092 88.5269C73.9999 80.7101 81.4783 77.4042 91.5273 78.6092Z" fill="#FC6806"/>
<path d="M42.3592 91.2694C42.3441 91.4544 42.2433 91.5689 42.057 91.6129L38.0686 92.6995C38.0198 92.7124 37.9686 92.713 37.9195 92.7012C37.8704 92.6895 37.8249 92.6658 37.7872 92.6322C37.7495 92.5987 37.7206 92.5563 37.7033 92.5089C37.6859 92.4615 37.6805 92.4105 37.6876 92.3605C38.7314 86.282 40.6599 80.3111 45.0907 77.038C46.8494 75.7381 47.2245 76.0562 46.2161 77.9923C44.0537 82.1635 42.7681 86.5891 42.3592 91.2694Z" fill="#FC6806"/>
<path d="M50.8964 92.02C54.0482 91.0424 57.6965 87.592 59.825 92.7414C61.3955 96.5244 64.4506 99.831 65.3269 103.676C65.647 105.071 65.987 106.466 66.3471 107.859C66.4921 108.401 66.2857 108.708 65.728 108.781C55.7633 110.089 48.3489 103.156 50.0435 93.0013C50.1295 92.4933 50.4138 92.1662 50.8964 92.02Z" fill="white"/>
<path d="M90.5274 110.229C98.1577 89.4604 123.502 101.931 119.059 119.963C118.915 120.569 118.544 120.781 117.945 120.599C111.875 118.75 106.605 119.996 102.137 124.335C101.983 124.483 101.799 124.596 101.599 124.669C101.399 124.741 101.186 124.77 100.974 124.753C93.5252 124.133 98.2824 113.474 91.0214 111.228C90.9223 111.198 90.8303 111.149 90.7511 111.082C90.672 111.015 90.6073 110.933 90.561 110.839C90.5147 110.746 90.4879 110.643 90.4821 110.538C90.4763 110.434 90.4917 110.328 90.5274 110.229Z" fill="#FC6806"/>
<path d="M48.0612 92.1072C48.2939 96.4536 48.0099 100.079 50.194 103.756C50.9006 104.937 50.7042 105.113 49.6049 104.282C45.602 101.281 43.7537 96.7437 44.0599 90.6693C44.0707 90.4762 44.1251 90.2882 44.2189 90.1191C44.3127 89.9501 44.4434 89.8044 44.6014 89.693C44.7594 89.5816 44.9405 89.5073 45.1313 89.4757C45.322 89.4442 45.5174 89.4561 45.7029 89.5107L46.1361 89.6519C46.6697 89.8085 47.1416 90.1288 47.4864 90.5687C47.8313 91.0085 48.0321 91.5461 48.0612 92.1072Z" fill="white"/>
<path d="M39.3436 100.091L37.0291 95.4555C36.9882 95.3713 36.9671 95.2788 36.9675 95.1852C36.9679 95.0916 36.9897 94.9994 37.0313 94.9155C37.073 94.8317 37.1332 94.7585 37.2076 94.7016C37.2819 94.6447 37.3682 94.6056 37.46 94.5873L41.2948 93.8426C41.4394 93.8141 41.5894 93.8387 41.7173 93.9119C41.8452 93.9851 41.9424 94.102 41.9911 94.2411L44.1556 100.614C44.1889 100.717 44.194 100.828 44.1705 100.934C44.1469 101.04 44.0955 101.138 44.0215 101.218C43.9476 101.298 43.8537 101.356 43.7496 101.387C43.6455 101.419 43.5349 101.422 43.4292 101.397L39.7301 100.401C39.6476 100.379 39.5706 100.341 39.504 100.287C39.4375 100.234 39.3828 100.167 39.3436 100.091Z" fill="white"/>
<path d="M68.0057 102.061C73.8522 101.74 73.6469 119.015 85.3919 107.02C85.7482 106.652 86.1759 106.456 86.675 106.431C87.6029 106.389 88.2709 106.727 88.6789 107.447C88.9297 107.9 88.9498 108.527 88.7392 109.328C88.0235 112.071 87.5761 114.86 87.397 117.694C87.36 118.152 87.1098 118.377 86.6466 118.369C76.5532 118.08 67.03 114.457 67.2506 102.838C67.2644 102.346 67.5161 102.087 68.0057 102.061Z" fill="white"/>
<path d="M47.0611 113.669C47.4667 113.983 47.7546 113.899 47.9248 113.416L48.216 112.581C48.3214 112.285 48.237 112.051 47.9625 111.881L46.1844 110.848C45.9957 110.729 45.8522 110.551 45.7771 110.342C45.7019 110.132 45.6995 109.903 45.7702 109.692C45.8409 109.481 45.9806 109.3 46.1668 109.178C46.353 109.056 46.5748 109 46.7966 109.02C48.1821 109.172 49.2875 108.713 50.1127 107.643C50.4625 107.204 50.8949 107.088 51.4099 107.294C57.2621 109.616 60.7714 111.302 66.1369 110.386C66.6469 110.305 67.0282 110.485 67.2807 110.929C71.48 117.997 78.9624 120.092 86.7618 120.037C87.2573 120.032 87.5953 120.259 87.7756 120.718C89.8689 126.054 92.9311 130.815 99.4188 130.557C99.8857 130.546 100.212 130.756 100.398 131.187C102.789 136.831 104.434 140.925 102.422 146.316C102.259 146.76 101.981 147.108 101.587 147.36C92.8924 152.944 62.8648 136.518 57.1498 132.605C52.6467 129.53 47.823 127.13 42.6788 125.407C40.0464 124.525 39.9597 123.648 42.4188 122.777C42.8841 122.617 43.2683 122.364 43.5714 122.015C43.6993 121.871 43.7664 121.683 43.7585 121.491C43.7505 121.298 43.6682 121.117 43.5288 120.984C43.1782 120.64 42.7524 120.486 42.2515 120.52C41.7296 120.56 41.218 120.493 40.7168 120.319C39.6951 119.968 39.1141 119.299 38.9738 118.314C38.9058 117.836 39.0195 117.417 39.3149 117.058C39.8793 116.373 39.9303 115.71 39.4678 115.069C38.9105 114.301 38.437 113.692 38.0471 113.243C37.8606 113.037 37.7578 112.769 37.7585 112.489C37.7592 112.21 37.8633 111.94 38.0508 111.73L40.6389 108.866C40.9648 108.502 40.9449 108.162 40.5793 107.846C40.3426 107.633 40.055 107.48 39.7166 107.386C39.5074 107.334 39.3132 107.234 39.1495 107.094C38.9858 106.954 38.8571 106.777 38.7736 106.578C38.6901 106.38 38.6541 106.164 38.6686 105.949C38.683 105.734 38.7475 105.525 38.8568 105.34C40.2604 102.934 42.3478 102.146 45.1187 102.976C46.7194 103.456 47.2693 104.866 48.6485 105.497C48.8104 105.568 48.9437 105.691 49.027 105.847C49.1102 106.003 49.1385 106.183 49.1074 106.357C49.0762 106.531 48.9874 106.689 48.8553 106.807C48.7231 106.924 48.5553 106.993 48.3789 107.004C47.2492 107.068 46.1853 107.307 45.1871 107.722C44.8007 107.877 44.4622 108.132 44.206 108.46C43.9497 108.788 43.7848 109.178 43.728 109.591C43.6712 110.003 43.7245 110.424 43.8825 110.809C44.0405 111.194 44.2976 111.531 44.6276 111.785L47.0611 113.669ZM64.0774 117.994C63.9971 118.054 63.9025 118.092 63.803 118.103C63.7035 118.115 63.6028 118.1 63.5109 118.06C63.4191 118.02 63.3394 117.956 63.28 117.876C63.2206 117.795 63.1835 117.7 63.1725 117.601C63.0782 116.633 62.7958 115.72 62.3252 114.859C61.6914 113.711 60.7426 113.314 59.4789 113.669C58.1506 114.051 57.4148 114.936 57.2715 116.323C57.2612 116.422 57.2778 116.522 57.3194 116.613C57.3611 116.703 57.4263 116.781 57.5082 116.837C57.5902 116.893 57.6858 116.927 57.785 116.933C57.8843 116.94 57.9836 116.92 58.0724 116.875C58.5957 116.618 58.9688 116.214 59.1915 115.662C59.3365 115.314 59.5973 115.111 59.9741 115.053C60.1568 115.029 60.3279 115.066 60.4871 115.165C60.6542 115.276 60.7962 115.545 60.9133 115.973C61.1511 116.809 61.6452 117.466 62.3956 117.944C62.5811 118.062 62.7376 118.221 62.8535 118.41C62.9694 118.599 63.0417 118.812 63.065 119.034C63.2111 120.565 63.9536 121.714 65.2924 122.481C65.395 122.543 65.5143 122.57 65.6333 122.559C65.7523 122.549 65.8649 122.501 65.9552 122.423C66.0455 122.344 66.1089 122.24 66.1364 122.124C66.1638 122.007 66.154 121.885 66.1082 121.775L65.5091 120.312C64.9806 119.025 65.3935 118.515 66.7478 118.78L69.2664 119.271C69.4395 119.31 69.621 119.286 69.778 119.203C69.935 119.12 70.0572 118.984 70.1224 118.819C70.1876 118.654 70.1916 118.471 70.1337 118.303C70.0757 118.135 69.9596 117.993 69.8064 117.904C67.7679 116.599 65.8583 116.629 64.0774 117.994ZM50.2703 119.067L54.444 118.727C54.7353 118.703 54.8994 118.541 54.9362 118.241L54.986 117.821C55.0326 117.365 54.8266 117.093 54.3682 117.007C52.0307 116.605 50.0275 117.236 48.3585 118.899C48.1785 119.082 48.0485 119.308 47.9811 119.555C47.9136 119.803 47.911 120.062 47.9734 120.309C48.4345 122.058 49.5499 123.144 51.3195 123.567C51.4514 123.602 51.553 123.562 51.6242 123.447L51.8799 123.035C51.9304 122.955 51.9531 122.859 51.9448 122.762C51.9366 122.664 51.8979 122.57 51.8341 122.492L49.7968 120.238C49.7093 120.142 49.651 120.023 49.6285 119.896C49.6059 119.768 49.62 119.635 49.6691 119.514C49.7182 119.392 49.8004 119.286 49.9066 119.207C50.0128 119.128 50.1387 119.08 50.2703 119.067ZM81.5507 124.928C81.7696 125.602 81.8218 126.295 81.7075 127.005C81.6526 127.4 81.8108 127.662 82.182 127.792L82.5723 127.925C82.8402 128.025 83.0338 127.943 83.1529 127.679C83.8438 126.167 83.7479 124.789 82.8653 123.544C82.4899 123.008 81.9252 122.632 81.282 122.492C80.6387 122.351 79.9635 122.455 79.3889 122.784C78.1652 123.503 77.4433 124.523 77.2231 125.847C77.2035 125.969 77.2305 126.095 77.2989 126.198C77.3672 126.302 77.4719 126.376 77.5923 126.406L77.9764 126.493C78.0908 126.523 78.2101 126.53 78.3271 126.513C78.4442 126.496 78.5566 126.455 78.6579 126.394C78.7593 126.333 78.8474 126.253 78.9172 126.157C78.987 126.062 79.037 125.953 79.0644 125.838C79.2157 125.194 79.5688 124.712 80.1239 124.392C80.8247 123.98 81.3003 124.159 81.5507 124.928ZM87.1786 128.988L89.4317 131.905C89.4979 131.989 89.5895 132.049 89.6927 132.077C89.7959 132.105 89.9053 132.098 90.0046 132.058C90.1038 132.019 90.1876 131.948 90.2434 131.857C90.2992 131.766 90.324 131.659 90.3142 131.553C90.1373 129.818 89.3023 128.479 87.8091 127.534C87.5455 127.369 87.2511 127.26 86.9441 127.213C86.6372 127.166 86.3241 127.182 86.0243 127.26C85.7245 127.338 85.4444 127.477 85.2011 127.668C84.9578 127.859 84.7567 128.097 84.61 128.369C83.7615 129.93 83.854 131.352 84.8876 132.635C84.9512 132.712 85.0313 132.773 85.1216 132.813C85.2119 132.853 85.3099 132.872 85.4077 132.867L85.8591 132.833C85.9218 132.828 85.9828 132.81 86.0379 132.78C86.093 132.75 86.1409 132.709 86.1784 132.66C86.2159 132.611 86.242 132.554 86.255 132.495C86.268 132.435 86.2676 132.373 86.2538 132.314C86.0066 131.318 85.9557 130.305 86.1009 129.274C86.228 128.338 86.5873 128.243 87.1786 128.988ZM61.9009 127.479C62.6567 128.452 62.8992 129.552 62.6284 130.776C62.5923 130.967 62.6531 131.117 62.8105 131.226L63.3832 131.572C63.5771 131.697 63.7243 131.651 63.8249 131.432C66.2356 125.894 59.5788 123.198 57.4577 127.753C57.4084 127.853 57.3927 127.967 57.4129 128.078C57.433 128.188 57.488 128.289 57.5697 128.366C57.6514 128.443 57.7556 128.491 57.867 128.504C57.9783 128.518 58.091 128.495 58.1885 128.44L60.4424 127.189C60.678 127.055 60.9544 127.011 61.2218 127.064C61.4892 127.117 61.73 127.264 61.9009 127.479ZM73.2646 130.233C73.9371 130.548 74.3259 130.715 74.4309 130.735C76.6125 131.176 76.8983 130.632 75.2882 129.101C74.6335 128.483 73.4789 128.364 71.8247 128.744C71.3607 128.845 71.0242 129.107 70.8153 129.533C69.9642 131.212 71.1717 132.36 72.3612 133.682C72.7141 134.065 73.1496 134.143 73.6675 133.914C73.7685 133.87 73.8573 133.802 73.9266 133.716C73.9958 133.631 74.0434 133.53 74.0652 133.422C74.0871 133.314 74.0825 133.202 74.0521 133.096C74.0216 132.99 73.966 132.893 73.8901 132.814L72.4842 131.302C72.3724 131.189 72.3045 131.039 72.2928 130.881C72.281 130.722 72.326 130.564 72.4199 130.435C72.5137 130.307 72.6502 130.216 72.805 130.179C72.9597 130.142 73.1227 130.161 73.2646 130.233ZM94.8665 136.359L96.4663 135.429C97.188 135.012 97.14 134.716 96.3223 134.542C94.731 134.221 93.4148 134.749 92.3736 136.125C91.4413 137.344 91.7409 138.35 93.2725 139.144C94.2653 139.648 94.595 139.369 94.2614 138.307C94.196 138.077 94.1611 137.843 94.1566 137.604C94.1525 137.05 94.3891 136.634 94.8665 136.359ZM85.6786 138.897L85.4435 140.692C85.4309 140.809 85.4549 140.926 85.512 141.029C85.5692 141.132 85.6566 141.214 85.7625 141.265C85.8683 141.316 85.9873 141.333 86.1031 141.313C86.2189 141.294 86.3258 141.239 86.4092 141.156C87.1331 140.413 87.477 139.508 87.4407 138.443C87.4213 137.893 87.2369 137.363 86.912 136.923C86.587 136.483 86.1369 136.153 85.6214 135.978C83.7713 135.352 82.0515 135.66 80.4618 136.903C80.3076 137.026 80.2026 137.2 80.1663 137.392C80.13 137.585 80.1649 137.782 80.2644 137.949C80.4818 138.316 80.8411 138.404 81.3423 138.211C82.3805 137.794 83.2943 137.512 84.0837 137.364C84.296 137.327 84.514 137.34 84.7201 137.403C84.9262 137.466 85.1146 137.577 85.2699 137.726C85.4253 137.875 85.5433 138.059 85.6143 138.262C85.6853 138.466 85.7073 138.683 85.6786 138.897Z" fill="white"/>
<path d="M91.7973 113.169C94.584 117.582 94.1663 124.981 99.5312 126.662C101.511 127.283 101.528 127.953 99.5815 128.674C98.1784 129.19 96.7056 128.897 95.1631 127.795C89.992 124.119 88.1926 119.348 89.7649 113.483C89.8209 113.272 89.9371 113.082 90.0994 112.936C90.2617 112.79 90.463 112.695 90.6786 112.662C90.8942 112.628 91.1148 112.659 91.3135 112.749C91.5122 112.839 91.6803 112.985 91.7973 113.169Z" fill="white"/>
<path d="M104.146 125.085C109.141 120.004 119.475 120.116 122.462 127.4C124.109 131.406 119.481 134.701 116.053 134.157C112.553 133.6 107.902 128.138 104.262 125.967C103.853 125.722 103.814 125.428 104.146 125.085Z" fill="#FC6806"/>
<path d="M64.0774 117.995C65.8583 116.63 67.768 116.6 69.8064 117.905C69.9596 117.994 70.0757 118.136 70.1337 118.304C70.1917 118.471 70.1877 118.654 70.1224 118.82C70.0572 118.985 69.935 119.121 69.778 119.204C69.621 119.287 69.4396 119.311 69.2664 119.271L66.7479 118.781C65.3935 118.515 64.9806 119.026 65.5092 120.313L66.1083 121.776C66.154 121.886 66.1638 122.008 66.1364 122.124C66.1089 122.241 66.0455 122.345 65.9552 122.424C65.8649 122.502 65.7523 122.549 65.6333 122.56C65.5144 122.571 65.3951 122.543 65.2924 122.482C63.9536 121.715 63.2112 120.566 63.065 119.035C63.0417 118.813 62.9694 118.6 62.8535 118.411C62.7376 118.222 62.5811 118.063 62.3957 117.945C61.6452 117.467 61.1511 116.81 60.9133 115.973C60.7962 115.546 60.6542 115.277 60.4872 115.166C60.3279 115.067 60.1569 115.029 59.9742 115.054C59.5974 115.112 59.3365 115.315 59.1916 115.663C58.9688 116.214 58.5957 116.619 58.0724 116.876C57.9836 116.921 57.8843 116.941 57.7851 116.934C57.6858 116.928 57.5902 116.894 57.5083 116.838C57.4263 116.781 57.3611 116.704 57.3195 116.614C57.2778 116.523 57.2613 116.423 57.2716 116.324C57.4148 114.937 58.1506 114.052 59.4789 113.67C60.7426 113.315 61.6914 113.712 62.3252 114.86C62.7958 115.72 63.0782 116.634 63.1725 117.602C63.1835 117.701 63.2206 117.796 63.28 117.877C63.3395 117.957 63.4191 118.021 63.511 118.061C63.6028 118.101 63.7036 118.115 63.803 118.104C63.9025 118.092 63.9971 118.055 64.0774 117.995Z" fill="white"/>
<path d="M49.7969 120.238L51.8342 122.492C51.898 122.57 51.9367 122.664 51.945 122.761C51.9532 122.859 51.9305 122.954 51.88 123.035L51.6243 123.446C51.5531 123.562 51.4516 123.602 51.3197 123.567C49.55 123.144 48.4346 122.058 47.9735 120.309C47.9111 120.062 47.9137 119.802 47.9812 119.555C48.0486 119.308 48.1786 119.082 48.3586 118.898C50.0276 117.235 52.0308 116.605 54.3683 117.006C54.8267 117.093 55.0327 117.364 54.9861 117.82L54.9363 118.241C54.8995 118.541 54.7355 118.703 54.4441 118.727L50.2704 119.066C50.1388 119.079 50.0129 119.128 49.9067 119.207C49.8006 119.286 49.7183 119.392 49.6692 119.514C49.6201 119.635 49.606 119.767 49.6286 119.895C49.6511 120.023 49.7094 120.142 49.7969 120.238Z" fill="white"/>
<path d="M80.124 124.392C79.569 124.712 79.2158 125.195 79.0646 125.839C79.0372 125.954 78.9871 126.062 78.9174 126.158C78.8476 126.253 78.7594 126.334 78.6581 126.395C78.5568 126.456 78.4443 126.496 78.3273 126.513C78.2103 126.53 78.091 126.523 77.9765 126.494L77.5925 126.406C77.4721 126.376 77.3674 126.302 77.299 126.198C77.2307 126.095 77.2037 125.969 77.2233 125.847C77.4435 124.524 78.1654 123.503 79.389 122.784C79.9637 122.455 80.6389 122.351 81.2821 122.492C81.9254 122.632 82.4901 123.008 82.8655 123.544C83.7481 124.789 83.844 126.167 83.1531 127.679C83.034 127.943 82.8404 128.025 82.5725 127.925L82.1822 127.792C81.811 127.663 81.6528 127.4 81.7077 127.005C81.822 126.295 81.7697 125.603 81.5509 124.928C81.3005 124.159 80.8249 123.98 80.124 124.392Z" fill="white"/>
<path d="M118.344 136.638C115.102 138.488 105.888 139.746 103.92 135.398C103.102 133.602 102.501 131.861 102.117 130.176C102.063 129.942 102.062 129.699 102.112 129.464C102.163 129.228 102.264 129.007 102.409 128.815C102.554 128.624 102.739 128.466 102.952 128.354C103.164 128.241 103.399 128.176 103.639 128.164C108.323 127.951 110.359 136.732 118.19 136.119C118.253 136.114 118.315 136.131 118.367 136.167C118.419 136.203 118.458 136.256 118.476 136.316C118.494 136.377 118.49 136.442 118.466 136.5C118.443 136.558 118.399 136.607 118.344 136.638Z" fill="white"/>
<path d="M86.101 129.273C85.9558 130.304 86.0068 131.318 86.2539 132.314C86.2677 132.373 86.2682 132.435 86.2551 132.494C86.2421 132.554 86.216 132.61 86.1785 132.66C86.1411 132.709 86.0931 132.75 86.038 132.78C85.9829 132.81 85.9219 132.828 85.8592 132.833L85.4078 132.866C85.31 132.871 85.212 132.853 85.1217 132.813C85.0315 132.772 84.9513 132.711 84.8878 132.634C83.8541 131.351 83.7616 129.929 84.6102 128.369C84.7568 128.097 84.958 127.858 85.2012 127.667C85.4445 127.477 85.7247 127.338 86.0245 127.26C86.3243 127.181 86.6373 127.165 86.9443 127.212C87.2512 127.26 87.5456 127.369 87.8092 127.534C89.3024 128.478 90.1375 129.818 90.3144 131.552C90.3242 131.659 90.2993 131.765 90.2435 131.857C90.1877 131.948 90.1039 132.018 90.0047 132.058C89.9055 132.098 89.7961 132.104 89.6928 132.077C89.5896 132.049 89.498 131.989 89.4318 131.905L87.1787 128.987C86.5874 128.242 86.2282 128.338 86.101 129.273Z" fill="white"/>
<path d="M122.187 158.637L122.369 137.396C122.373 136.645 122.733 136.387 123.45 136.621C127.052 137.82 128.033 142.605 129.504 145.657C131.806 150.513 135.834 154.641 139.417 158.685C139.552 158.837 139.65 159.017 139.704 159.213C139.758 159.408 139.766 159.613 139.729 159.812C139.691 160.012 139.608 160.199 139.487 160.362C139.365 160.524 139.208 160.656 139.028 160.748C132.24 164.244 129.158 159.434 122.944 159.418C122.741 159.414 122.547 159.329 122.405 159.183C122.263 159.037 122.185 158.841 122.187 158.637Z" fill="#FC6806"/>
<path d="M60.4425 127.189L58.1886 128.44C58.0911 128.495 57.9784 128.518 57.867 128.505C57.7557 128.491 57.6515 128.443 57.5698 128.366C57.488 128.289 57.4331 128.188 57.4129 128.078C57.3928 127.967 57.4085 127.854 57.4578 127.753C59.5788 123.198 66.2356 125.894 63.825 131.433C63.7244 131.651 63.5772 131.697 63.3833 131.572L62.8106 131.226C62.6531 131.117 62.5924 130.967 62.6285 130.776C62.8993 129.552 62.6568 128.453 61.901 127.479C61.7301 127.264 61.4892 127.117 61.2218 127.064C60.9545 127.011 60.6781 127.055 60.4425 127.189Z" fill="white"/>
<path d="M72.4843 131.302L73.8902 132.814C73.9661 132.893 74.0217 132.99 74.0521 133.096C74.0826 133.202 74.0871 133.314 74.0653 133.422C74.0435 133.53 73.9959 133.631 73.9267 133.717C73.8574 133.802 73.7686 133.87 73.6676 133.914C73.1497 134.143 72.7142 134.065 72.3612 133.682C71.1718 132.36 69.9643 131.212 70.8154 129.533C71.0243 129.107 71.3607 128.845 71.8248 128.744C73.479 128.364 74.6335 128.483 75.2883 129.102C76.8984 130.632 76.6126 131.176 74.431 130.735C74.326 130.715 73.9372 130.548 73.2647 130.233C73.1228 130.161 72.9598 130.142 72.8051 130.179C72.6503 130.216 72.5138 130.307 72.42 130.436C72.3261 130.564 72.2811 130.722 72.2929 130.881C72.3046 131.039 72.3725 131.189 72.4843 131.302Z" fill="white"/>
<path d="M119.076 137.949C119.488 137.492 119.929 137.491 120.397 137.946C120.452 137.998 120.495 138.062 120.523 138.131C120.551 138.2 120.563 138.274 120.558 138.347L120.333 152.503C120.33 152.601 120.299 152.696 120.245 152.778C120.19 152.859 120.114 152.924 120.024 152.964C119.935 153.004 119.836 153.019 119.739 153.005C119.641 152.992 119.55 152.952 119.474 152.89C115.511 149.471 112.269 145.451 109.748 140.831C109.715 140.767 109.7 140.694 109.704 140.622C109.708 140.55 109.732 140.48 109.772 140.419C109.812 140.359 109.867 140.31 109.932 140.278C109.998 140.246 110.07 140.233 110.142 140.238C112.518 140.464 117.313 139.9 119.076 137.949Z" fill="#FC6806"/>
<path d="M94.1567 137.605C94.1612 137.843 94.1961 138.077 94.2615 138.307C94.5951 139.369 94.2654 139.648 93.2726 139.144C91.741 138.351 91.4414 137.345 92.3737 136.126C93.4149 134.75 94.7311 134.222 96.3224 134.542C97.1401 134.716 97.1881 135.012 96.4664 135.43L94.8666 136.359C94.3892 136.635 94.1526 137.05 94.1567 137.605Z" fill="white"/>
<path d="M103.684 167.058C102.265 162.71 103.73 154.634 104.123 149.961C104.364 147.113 105.962 143.602 105.528 140.553C105.237 138.48 105.685 138.308 106.872 140.035C110.042 144.699 114.232 151.661 119.179 154.687C119.73 155.027 120.192 155.493 120.525 156.047C120.859 156.602 121.055 157.228 121.097 157.873C121.14 158.519 121.027 159.165 120.768 159.758C120.509 160.351 120.113 160.874 119.611 161.282C116.434 163.887 111.327 168.145 106.927 168.976C106.244 169.104 105.537 168.98 104.94 168.627C104.343 168.274 103.897 167.716 103.684 167.058Z" fill="#FC6806"/>
<path d="M85.6787 138.897C85.7074 138.684 85.6853 138.466 85.6143 138.263C85.5433 138.06 85.4254 137.876 85.27 137.726C85.1147 137.577 84.9263 137.467 84.7202 137.404C84.5141 137.341 84.2961 137.328 84.0838 137.365C83.2944 137.512 82.3806 137.795 81.3424 138.212C80.8412 138.404 80.4819 138.317 80.2645 137.949C80.1649 137.783 80.1301 137.585 80.1664 137.393C80.2027 137.201 80.3077 137.027 80.4619 136.903C82.0516 135.661 83.7714 135.352 85.6214 135.979C86.137 136.154 86.5871 136.483 86.912 136.924C87.237 137.364 87.4214 137.894 87.4408 138.444C87.4771 139.509 87.1332 140.413 86.4093 141.157C86.3259 141.239 86.219 141.294 86.1032 141.314C85.9874 141.333 85.8684 141.316 85.7626 141.266C85.6567 141.215 85.5692 141.132 85.5121 141.03C85.455 140.927 85.431 140.809 85.4435 140.693L85.6787 138.897Z" fill="white"/>
<path d="M17.7076 150.338C18.3298 151.132 17.5857 152.297 16.6393 151.948C14.7166 151.239 12.4439 150.221 11.1785 149.02C8.87911 146.839 6.5822 142.283 7.00442 138.987C7.38667 136.003 9.65025 132.6 12.1519 134.263C14.5562 135.86 13.2514 138.676 13.8214 142.986C14.1345 145.353 16.0806 148.262 17.7076 150.338Z" fill="#FEFD09"/>
<path d="M20.9629 146.855C21.5138 147.7 20.745 148.857 19.8386 148.414C19.24 148.122 18.6846 147.787 18.299 147.421C17.0335 146.22 15.7693 143.713 16.0016 141.899C16.212 140.256 17.4579 138.384 18.8347 139.298C20.158 140.178 19.4399 141.728 19.7536 144.1C19.8675 144.961 20.374 145.952 20.9629 146.855Z" fill="#FEFD09"/>
<path d="M73.3441 11.5282C72.3358 11.5571 71.8578 10.2616 72.7005 9.70703C74.9019 8.25827 77.9444 6.50859 80.2844 6.13188C84.1198 5.51443 90.2661 6.66539 93.1632 9.52859C95.7861 12.1208 97.4168 16.8566 93.9367 18.0571C90.592 19.211 88.8192 15.8452 84.1971 13.1951C81.4426 11.6157 76.6363 11.434 73.3441 11.5282Z" fill="#FF0000"/>
<path d="M74.3186 17.2318C73.3105 17.1969 72.8507 15.8906 73.7297 15.3956C74.674 14.8639 75.6951 14.3961 76.547 14.259C78.6579 13.9192 82.0408 14.5526 83.6353 16.1285C85.0789 17.5552 85.9764 20.1617 84.061 20.8225C82.2202 21.4576 81.2444 19.6051 78.7005 18.1465C77.589 17.5092 75.8706 17.2854 74.3186 17.2318Z" fill="#FF0000"/>
</svg>
