<svg width="27" height="27" viewBox="0 0 27 27" fill="none" xmlns="http://www.w3.org/2000/svg">
<path d="M26.6192 0.958106C26.9968 1.3527 27.1905 1.69028 26.7351 2.14579C23.1205 5.76175 19.5057 9.37771 15.8907 12.9937C15.4366 13.4472 15.6918 13.8075 16.0792 14.1943C19.5953 17.7113 23.1113 21.2284 26.627 24.7454C27.0927 25.2113 27.1264 25.5392 26.6632 26.0005C26.446 26.2165 26.2286 26.4327 26.0109 26.6491C25.5789 27.0793 25.2427 27.135 24.8067 26.6983C21.2556 23.1467 17.7047 19.5951 14.154 16.0435C13.6584 15.5472 13.3527 15.5349 12.8681 16.0189C9.34164 19.5433 5.81665 23.0688 2.29316 26.5953C1.8151 27.0735 1.49834 27.1642 1.00279 26.6705C0.752747 26.4208 0.504 26.1696 0.256549 25.9169C-0.114628 25.5379 -0.0641018 25.1782 0.292824 24.8206C3.90786 21.2051 7.52268 17.5893 11.1373 13.9734C11.5337 13.5768 11.3206 13.2088 10.974 12.8621C7.44452 9.33213 3.9152 5.80192 0.386104 2.27149C-0.0368949 1.84838 -0.169042 1.51145 0.279869 1.05465C0.543731 0.7864 0.8104 0.521175 1.07988 0.258974C1.46919 -0.119425 1.82676 -0.0637017 2.18952 0.299795C7.63 5.74944 11.2375 9.35568 13.012 11.1185C13.4168 11.5209 13.7886 11.322 14.1443 10.9662C17.7274 7.38139 21.3109 3.79696 24.8948 0.212971C25.5283 -0.420719 26.2331 0.553789 26.6192 0.958106Z" fill="#FF00FF"/>
</svg>
