<svg width="41" height="32" viewBox="0 0 41 32" fill="none" xmlns="http://www.w3.org/2000/svg">
<path d="M25.1593 2.80329C24.7811 3.44361 24.2049 3.76652 23.4305 3.772C21.6481 3.78571 19.8623 3.78845 18.073 3.78023C17.172 3.77611 16.6236 3.54165 16.1689 2.8218C16.1491 2.79034 16.1215 2.76439 16.0886 2.7464C16.0558 2.72841 16.0188 2.71897 15.9813 2.71897H11.0867C10.8914 2.71897 10.7021 2.78559 10.5512 2.90746C10.4002 3.02934 10.2969 3.19894 10.2588 3.3874L9.27655 8.16513C9.27233 8.18318 9.2622 8.19931 9.24782 8.21088C9.23343 8.22245 9.21563 8.2288 9.1973 8.22889L7.64364 8.22683C7.61167 8.22683 7.59846 8.21106 7.60402 8.17952C7.90849 6.69321 8.2227 5.19936 8.54664 3.69796C8.92828 1.92713 9.74994 1.09417 11.5851 1.08183C13.0825 1.07086 14.5805 1.0688 16.0793 1.07566C16.1098 1.0756 16.1398 1.06757 16.1661 1.0524C16.1925 1.03723 16.2143 1.01545 16.2294 0.989276C16.609 0.329759 17.1331 0 17.8019 0C19.5967 0.00274228 21.3909 0.00342789 23.1844 0.00205675C24.1541 4.71203e-08 24.7422 0.195387 25.2219 0.98722C25.258 1.04755 25.3115 1.07771 25.3824 1.07771C26.8478 1.06675 28.309 1.06812 29.7661 1.08183C31.2384 1.09622 32.3166 1.50962 32.6252 2.99868C32.9853 4.74277 33.3412 6.46834 33.693 8.17541C33.6946 8.18155 33.6946 8.18798 33.6932 8.19419C33.6917 8.2004 33.6887 8.20622 33.6845 8.21119C33.6803 8.21617 33.6749 8.22017 33.6687 8.22289C33.6626 8.2256 33.6559 8.22695 33.6492 8.22683L32.0872 8.22889C32.0723 8.2288 32.058 8.22384 32.0466 8.21485C32.0352 8.20587 32.0275 8.19339 32.0246 8.17952L31.0236 3.34215C30.9875 3.16674 30.8911 3.00905 30.7509 2.89584C30.6106 2.78262 30.4351 2.72086 30.2541 2.72102L25.3095 2.71691C25.2427 2.71691 25.1927 2.7457 25.1593 2.80329Z" fill="#FA06FB"/>
<path d="M2.85541 10.1973H38.6876C39.0052 10.1972 39.3187 10.2687 39.6041 10.4065C39.8894 10.5442 40.139 10.7445 40.3338 10.992C40.5286 11.2395 40.6635 11.5277 40.728 11.8344C40.7926 12.1412 40.7851 12.4585 40.7063 12.762L36.1162 30.4558C36.0014 30.8978 35.7406 31.2895 35.3751 31.5691C35.0096 31.8488 34.5601 32.0005 34.0975 32.0004H7.44548C6.98287 32.0005 6.53337 31.8488 6.16786 31.5691C5.80234 31.2895 5.54161 30.8978 5.42677 30.4558L0.836701 12.762C0.757836 12.4585 0.750394 12.1412 0.814944 11.8344C0.879495 11.5277 1.01433 11.2395 1.20913 10.992C1.40394 10.7445 1.65355 10.5442 1.93889 10.4065C2.22423 10.2687 2.53773 10.1972 2.85541 10.1973ZM11.4987 14.7184C11.4984 14.6017 11.4749 14.4862 11.4295 14.3785C11.384 14.2708 11.3175 14.173 11.2337 14.0906C11.1499 14.0082 11.0504 13.943 10.9411 13.8985C10.8317 13.854 10.7145 13.8312 10.5962 13.8314L10.5628 13.8315C10.4445 13.8317 10.3274 13.8549 10.2182 13.8997C10.1089 13.9446 10.0097 14.0102 9.92622 14.0928C9.84271 14.1755 9.77652 14.2735 9.73144 14.3814C9.68635 14.4893 9.66325 14.6049 9.66346 14.7215L9.68619 27.5677C9.68639 27.6844 9.7099 27.7999 9.75537 27.9076C9.80083 28.0153 9.86736 28.1132 9.95117 28.1955C10.035 28.2779 10.1344 28.3432 10.2438 28.3876C10.3532 28.4321 10.4704 28.4549 10.5887 28.4547L10.622 28.4546C10.7403 28.4544 10.8575 28.4312 10.9667 28.3864C11.0759 28.3416 11.1751 28.2759 11.2586 28.1933C11.3421 28.1106 11.4083 28.0126 11.4534 27.9047C11.4985 27.7968 11.5216 27.6813 11.5214 27.5646L11.4987 14.7184ZM18.2689 14.7159C18.2689 14.4802 18.174 14.2542 18.0051 14.0876C17.8361 13.921 17.607 13.8274 17.368 13.8274H17.3388C17.0999 13.8274 16.8708 13.921 16.7018 14.0876C16.5328 14.2542 16.4379 14.4802 16.4379 14.7159V27.5703C16.4379 27.8059 16.5328 28.0319 16.7018 28.1985C16.8708 28.3652 17.0999 28.4588 17.3388 28.4588H17.368C17.607 28.4588 17.8361 28.3652 18.0051 28.1985C18.174 28.0319 18.2689 27.8059 18.2689 27.5703V14.7159ZM25.1071 14.7488C25.1071 14.5044 25.0087 14.27 24.8335 14.0972C24.6583 13.9244 24.4206 13.8274 24.1728 13.8274H24.1228C23.875 13.8274 23.6374 13.9244 23.4622 14.0972C23.2869 14.27 23.1885 14.5044 23.1885 14.7488V27.5333C23.1885 27.7776 23.2869 28.012 23.4622 28.1848C23.6374 28.3576 23.875 28.4547 24.1228 28.4547H24.1728C24.4206 28.4547 24.6583 28.3576 24.8335 28.1848C25.0087 28.012 25.1071 27.7776 25.1071 27.5333V14.7488ZM31.9432 14.7344C31.9432 14.4954 31.847 14.2663 31.6757 14.0974C31.5044 13.9284 31.272 13.8335 31.0298 13.8335H30.9422C30.6999 13.8335 30.4676 13.9284 30.2963 14.0974C30.125 14.2663 30.0288 14.4954 30.0288 14.7344V27.56C30.0288 27.7989 30.125 28.028 30.2963 28.197C30.4676 28.3659 30.6999 28.4608 30.9422 28.4608H31.0298C31.272 28.4608 31.5044 28.3659 31.6757 28.197C31.847 28.028 31.9432 27.7989 31.9432 27.56V14.7344Z" fill="#FA06FB"/>
</svg>
