<svg width="65" height="65" viewBox="0 0 65 65" fill="none" xmlns="http://www.w3.org/2000/svg">
<path d="M34.8502 10.8552C37.6219 9.1973 41.2194 10.3303 42.5409 13.2772C43.3395 15.0581 45.0379 16.2687 46.9819 16.4427C50.1988 16.7306 52.4433 19.7617 51.7802 22.9226C51.3795 24.8328 52.0419 26.8105 53.5124 28.0939C55.9457 30.2176 55.9798 33.9892 53.5855 36.1566C52.1385 37.4665 51.512 39.4558 51.9473 41.3584C52.6675 44.5068 50.4783 47.5781 47.2672 47.9243C45.3267 48.1335 43.6506 49.3746 42.8844 51.1697C41.6165 54.1402 38.0401 55.3381 35.2388 53.7308C33.5459 52.7594 31.4604 52.7783 29.7854 53.7802C27.0137 55.4381 23.4162 54.3051 22.0947 51.3581C21.2961 49.5772 19.5977 48.3667 17.6537 48.1927C14.4369 47.9048 12.1923 44.8736 12.8554 41.7127C13.2561 39.8025 12.5937 37.8249 11.1232 36.5415C8.68995 34.4178 8.65576 30.6462 11.0501 28.4787C12.4971 27.1689 13.1236 25.1795 12.6883 23.2769C11.9681 20.1286 14.1573 17.0572 17.3684 16.7111C19.3089 16.5019 20.985 15.2607 21.7512 13.4656C23.0191 10.4952 26.5955 9.29723 29.3968 10.9046C31.0897 11.876 33.1752 11.8571 34.8502 10.8552Z" fill="white"/>
<path d="M42.3801 37.2239C40.1856 43.2485 31.0569 44.1924 26.9966 42.2436C20.8094 39.2741 20.3798 32.2473 21.6158 27.8229C23.3147 21.7416 31.1455 20.5096 35.3497 21.8617C40.1921 23.419 42.1269 27.6895 41.049 31.2984C40.1334 34.3637 36.5674 39.6765 30.9468 38.4277C26.2956 37.3942 24.7432 34.1255 25.1112 30.9044C25.4793 27.6832 27.8698 25.2705 30.7128 25.0971C35.01 24.835 37.6534 28.2306 36.2278 31.7516C34.4794 36.0701 30.3307 32.8349 30.3307 32.8349" stroke="#FF00FF" stroke-width="2"/>
</svg>
