<svg width="216" height="225" viewBox="0 0 216 225" fill="none" xmlns="http://www.w3.org/2000/svg">
<path d="M18.6946 87.5441L18.5998 88.035C15.5849 87.4525 13.7913 88.7379 13.3814 90.1193C13.174 90.818 13.287 91.6059 13.8156 92.3311C14.3455 93.0579 15.3129 93.7443 16.8416 94.1646L93.8899 107.207C93.8905 107.207 93.8911 107.207 93.8917 107.207C94.1294 107.246 94.3562 107.335 94.5577 107.467C94.7593 107.599 94.9311 107.771 95.0619 107.974C95.0622 107.974 95.0624 107.975 95.0627 107.975L147.78 188.344L147.785 188.352L151.394 193.642L151.395 193.645C151.428 193.693 151.47 193.733 151.519 193.764C151.569 193.795 151.624 193.816 151.682 193.824C151.74 193.833 151.8 193.829 151.857 193.813C151.914 193.797 151.968 193.769 152.014 193.732L152.014 193.731L152.225 193.559L152.226 193.559C152.409 193.41 152.531 193.2 152.569 192.968C152.608 192.736 152.56 192.497 152.435 192.298L152.435 192.297L137.708 168.613C137.708 168.613 137.708 168.613 137.708 168.613C137.617 168.466 137.587 168.292 137.619 168.126C137.652 167.963 137.742 167.82 137.871 167.72C138.036 167.59 138.253 167.496 138.505 167.523C138.748 167.548 138.94 167.677 139.081 167.817L139.082 167.818C140.966 169.7 143.042 171.291 145.31 172.592C165.535 184.178 190.342 167.562 187.484 144.451C186.209 134.181 179.502 125.753 170.081 121.686L170.079 121.685C169.924 121.618 169.758 121.511 169.644 121.336C169.522 121.148 169.496 120.937 169.534 120.741C169.534 120.741 169.534 120.741 169.534 120.741L170.025 120.837C170.037 120.778 170.071 120.725 170.121 120.691L18.6946 87.5441ZM18.6946 87.5441L18.5999 88.035C25.1613 89.3014 31.7195 90.5688 38.2744 91.8372L18.6946 87.5441ZM89.6405 101.92L89.6405 101.92L38.2757 91.8374L89.6405 101.92ZM197.371 124.759C188.442 123.208 179.444 121.676 170.376 120.161L89.997 101.213L90.4969 101.217C90.4969 101.217 90.497 101.217 90.4969 101.217C90.4979 101.076 90.4578 100.939 90.3817 100.821L90.3797 100.818L62.7361 58.6865L62.736 58.6863L50.4198 39.8996L50.4197 39.8994C49.7053 38.8109 49.4369 37.0543 49.8402 35.764C50.0377 35.132 50.38 34.6601 50.8572 34.4057C51.3306 34.1533 52.0238 34.0685 53.0208 34.386C54.732 34.9326 55.8353 36.5281 56.9166 38.4179L56.9211 38.4258L56.9259 38.4335L96.9706 102.884C97.0743 103.051 97.2118 103.195 97.3741 103.306C97.5364 103.418 97.7201 103.494 97.9133 103.532L185.993 120.739C189.99 121.533 193.993 122.31 198.004 123.07L198.004 123.07C198.372 123.14 198.598 123.278 198.739 123.45C198.882 123.624 198.983 123.889 198.994 124.294L198.994 124.297C198.994 124.302 198.994 124.306 198.994 124.309C198.992 124.31 198.991 124.312 198.988 124.314L198.985 124.316C198.506 124.724 197.982 124.867 197.372 124.759L197.371 124.759ZM102.101 108.596L102.101 108.596C101.951 108.57 101.79 108.557 101.639 108.579C101.49 108.6 101.274 108.669 101.134 108.878C100.994 109.086 101.012 109.311 101.048 109.457C101.084 109.606 101.157 109.749 101.237 109.879L101.239 109.881C111.183 125.803 121.158 141.857 131.165 158.043L131.17 158.049C131.246 158.168 131.355 158.295 131.511 158.378L131.511 158.378L131.523 158.384C131.685 158.465 131.877 158.505 132.08 158.463L132.088 158.461C132.194 158.437 132.293 158.391 132.38 158.327C132.467 158.262 132.54 158.18 132.593 158.086C132.647 157.991 132.68 157.887 132.69 157.779C132.701 157.672 132.689 157.563 132.656 157.46C131.01 152.421 130.573 147.128 131.701 141.944L131.701 141.944C134.385 129.602 145.049 120.302 157.972 119.732C158.166 119.724 158.397 119.672 158.581 119.501C158.775 119.321 158.838 119.084 158.84 118.875L158.84 118.874C158.841 118.691 158.778 118.513 158.66 118.371C158.543 118.228 158.378 118.131 158.194 118.1L158.193 118.1L102.101 108.596ZM166.606 171.652C172.881 169.734 178.137 165.402 181.218 159.609C184.299 153.816 184.952 147.036 183.035 140.761C181.117 134.487 176.785 129.231 170.992 126.15C165.199 123.069 158.419 122.415 152.144 124.333C145.869 126.251 140.614 130.583 137.533 136.376C134.452 142.169 133.798 148.949 135.716 155.223C137.634 161.498 141.966 166.754 147.759 169.835C153.552 172.916 160.331 173.569 166.606 171.652Z" stroke="#FF00FF"/>
<path d="M166.46 171.173C160.312 173.052 153.669 172.412 147.993 169.394C142.317 166.375 138.073 161.225 136.194 155.077C134.315 148.929 134.955 142.286 137.974 136.611C140.993 130.935 146.142 126.69 152.29 124.811C158.438 122.932 165.081 123.572 170.757 126.591C176.433 129.61 180.677 134.759 182.556 140.907C184.435 147.055 183.795 153.698 180.776 159.374C177.758 165.05 172.608 169.294 166.46 171.173ZM167.994 130.779C166.423 129.965 164.738 129.436 162.939 129.19C162.704 129.158 162.675 129.222 162.853 129.383C165.484 131.729 167.501 133.868 168.906 135.801C173.263 141.807 176.061 151.053 174.916 158.649C174.832 159.209 174.948 159.254 175.264 158.785C181.789 148.985 178.395 136.191 167.994 130.779ZM150.633 131.086C162.425 137.884 170.339 150.146 168.687 164.16C168.628 164.648 168.805 164.757 169.217 164.487L170.702 163.507C171.108 163.239 171.368 162.871 171.483 162.403C174.671 149.634 169.124 136.831 158.335 129.463C156.447 128.175 152.522 130.003 150.652 130.779C150.623 130.791 150.598 130.81 150.58 130.836C150.561 130.861 150.55 130.892 150.548 130.924C150.546 130.955 150.553 130.987 150.568 131.016C150.583 131.045 150.606 131.069 150.633 131.086ZM165.704 165.658C167.705 151.801 160.701 139.298 148.252 132.969C148.04 132.862 147.799 132.825 147.564 132.865C147.329 132.904 147.114 133.019 146.949 133.19L144.531 135.709C144.147 136.105 144.199 136.434 144.687 136.693C155.897 142.664 162.692 153.833 162.966 166.618C162.971 166.81 163.064 166.879 163.244 166.824L165.174 166.261C165.48 166.174 165.657 165.973 165.704 165.658ZM160.122 166.654C160.303 154.67 153.115 144.325 142.964 138.762C142.913 138.735 142.857 138.718 142.799 138.712C142.741 138.706 142.682 138.712 142.626 138.729C142.571 138.746 142.519 138.774 142.474 138.811C142.429 138.848 142.392 138.894 142.365 138.946C141.486 140.655 140.87 142.456 140.516 144.349C140.448 144.71 140.575 144.981 140.899 145.162C149.439 149.967 154.991 157.159 157.557 166.739C157.599 166.897 157.697 167.034 157.833 167.125C157.968 167.217 158.133 167.255 158.295 167.234L159.783 167.037C159.876 167.025 159.962 166.98 160.024 166.909C160.087 166.839 160.121 166.748 160.122 166.654ZM153.159 162.305C150.402 156.238 146.171 151.499 140.466 148.089C140.432 148.068 140.392 148.057 140.351 148.057C140.311 148.057 140.271 148.068 140.236 148.09C140.202 148.111 140.174 148.141 140.155 148.177C140.136 148.213 140.128 148.253 140.131 148.294C140.629 155.704 143.979 161.242 150.181 164.908C151.428 165.645 152.789 166.105 154.177 166.461C154.406 166.52 154.496 166.433 154.447 166.201C154.169 164.881 153.74 163.582 153.159 162.305Z" fill="white"/>
<path d="M167.995 130.779C178.395 136.191 181.789 148.985 175.264 158.785C174.948 159.254 174.833 159.209 174.916 158.649C176.062 151.053 173.263 141.807 168.906 135.801C167.502 133.869 165.484 131.729 162.853 129.383C162.675 129.222 162.704 129.158 162.94 129.19C164.738 129.436 166.423 129.966 167.995 130.779Z" fill="#FC6806"/>
<path d="M168.687 164.16C170.339 150.146 162.425 137.884 150.633 131.086C150.606 131.069 150.583 131.045 150.568 131.016C150.553 130.987 150.547 130.955 150.549 130.924C150.551 130.892 150.561 130.861 150.58 130.836C150.598 130.81 150.623 130.791 150.652 130.779C152.523 130.003 156.447 128.175 158.335 129.463C169.124 136.831 174.671 149.634 171.483 162.403C171.368 162.871 171.108 163.239 170.702 163.507L169.217 164.487C168.805 164.757 168.628 164.648 168.687 164.16Z" fill="#FC6806"/>
<path d="M165.705 165.658C165.658 165.973 165.481 166.174 165.174 166.261L163.244 166.824C163.064 166.879 162.971 166.81 162.966 166.618C162.692 153.833 155.898 142.664 144.687 136.693C144.199 136.434 144.147 136.106 144.531 135.709L146.949 133.19C147.114 133.019 147.33 132.905 147.564 132.865C147.799 132.825 148.04 132.862 148.252 132.969C160.701 139.298 167.705 151.801 165.705 165.658Z" fill="#FC6806"/>
<path d="M160.123 166.654C160.122 166.748 160.087 166.839 160.024 166.909C159.962 166.98 159.876 167.025 159.783 167.038L158.295 167.234C158.133 167.255 157.969 167.217 157.833 167.126C157.697 167.034 157.599 166.897 157.557 166.739C154.991 157.159 149.439 149.967 140.899 145.162C140.575 144.981 140.448 144.71 140.517 144.349C140.87 142.456 141.486 140.655 142.365 138.946C142.392 138.894 142.429 138.848 142.474 138.811C142.519 138.774 142.571 138.746 142.627 138.729C142.682 138.712 142.741 138.706 142.799 138.712C142.857 138.718 142.913 138.735 142.965 138.762C153.115 144.326 160.304 154.67 160.123 166.654Z" fill="#FC6806"/>
<path d="M153.16 162.305C153.74 163.582 154.169 164.881 154.447 166.201C154.497 166.433 154.407 166.52 154.177 166.461C152.789 166.105 151.428 165.645 150.182 164.908C143.979 161.242 140.629 155.704 140.131 148.294C140.128 148.253 140.137 148.213 140.155 148.177C140.174 148.141 140.202 148.111 140.237 148.09C140.271 148.068 140.311 148.057 140.351 148.057C140.392 148.057 140.432 148.068 140.466 148.089C146.171 151.499 150.402 156.238 153.16 162.305Z" fill="#FC6806"/>
</svg>
