<svg width="22" height="28" viewBox="0 0 22 28" fill="none" xmlns="http://www.w3.org/2000/svg">
<path d="M20.3544 4.68143C21.2694 4.74892 22.0434 4.86592 21.9069 6.00139C21.8739 6.27738 21.6429 6.48438 21.3834 6.48438C14.7836 6.48538 8.18375 6.48438 1.58393 6.48138C1.22394 6.48138 1.01844 6.31038 0.973446 5.94439C0.850449 4.93942 1.68293 4.65593 2.5184 4.69342C2.5724 4.69542 2.5919 4.67043 2.5769 4.61843C2.34441 3.85795 3.21138 3.60296 3.78137 3.60746C4.78034 3.61446 5.75031 3.61945 6.69129 3.62245C6.77528 3.62245 6.81678 3.58046 6.81578 3.49646C6.77978 1.61251 7.97375 0.876031 9.6687 0.868531C10.9737 0.861531 12.2786 0.861531 13.5836 0.868531C14.1086 0.870531 14.5901 1.01303 15.0281 1.29602C15.716 1.73801 16.0745 2.46999 16.1035 3.49196C16.1055 3.57696 16.149 3.61945 16.234 3.61945C17.212 3.61746 18.228 3.62195 19.2819 3.63295C19.7979 3.63895 20.5599 3.94795 20.3079 4.60943C20.2909 4.65343 20.3064 4.67743 20.3544 4.68143ZM8.12825 3.62095H14.7641C14.7836 3.62095 14.8022 3.61321 14.816 3.59943C14.8298 3.58564 14.8376 3.56695 14.8376 3.54746V3.14697C14.8376 2.8677 14.707 2.59988 14.4747 2.40241C14.2423 2.20493 13.9272 2.094 13.5986 2.094H9.29371C8.96512 2.094 8.64998 2.20493 8.41763 2.40241C8.18528 2.59988 8.05475 2.8677 8.05475 3.14697V3.54746C8.05475 3.56695 8.06249 3.58564 8.07628 3.59943C8.09006 3.61321 8.10875 3.62095 8.12825 3.62095Z" fill="#FF00FF"/>
<path d="M3.72139 27.8634C2.72841 27.8634 2.45842 26.8749 2.45842 26.059C2.45642 19.7761 2.45592 13.4873 2.45692 7.19248C2.45692 7.15148 2.47742 7.13098 2.51842 7.13098H20.3739C20.3894 7.13098 20.4043 7.13715 20.4153 7.14812C20.4263 7.15909 20.4324 7.17396 20.4324 7.18948C20.4324 13.5793 20.4319 19.9706 20.4309 26.3634C20.4309 27.4359 19.7679 27.8634 18.7615 27.8634C13.7476 27.8634 8.73425 27.8634 3.72139 27.8634ZM8.00977 11.1479C8.00977 11.1024 8.0008 11.0573 7.98339 11.0153C7.96598 10.9732 7.94046 10.935 7.90828 10.9029C7.87611 10.8707 7.83791 10.8452 7.79587 10.8278C7.75383 10.8103 7.70878 10.8014 7.66328 10.8014H6.51131C6.41941 10.8014 6.33128 10.8379 6.2663 10.9029C6.20132 10.9678 6.16482 11.056 6.16482 11.1479V23.0875C6.16482 23.1794 6.20132 23.2676 6.2663 23.3325C6.33128 23.3975 6.41941 23.434 6.51131 23.434H7.66328C7.70878 23.434 7.75383 23.4251 7.79587 23.4077C7.83791 23.3902 7.87611 23.3647 7.90828 23.3325C7.94046 23.3004 7.96598 23.2622 7.98339 23.2201C8.0008 23.1781 8.00977 23.133 8.00977 23.0875V11.1479ZM12.3356 11.1299C12.3356 11.0428 12.301 10.9592 12.2394 10.8976C12.1778 10.836 12.0943 10.8014 12.0072 10.8014H10.8192C10.7321 10.8014 10.6485 10.836 10.5869 10.8976C10.5253 10.9592 10.4907 11.0428 10.4907 11.1299V23.1055C10.4907 23.1927 10.5253 23.2762 10.5869 23.3378C10.6485 23.3994 10.7321 23.434 10.8192 23.434H12.0072C12.0943 23.434 12.1778 23.3994 12.2394 23.3378C12.301 23.2762 12.3356 23.1927 12.3356 23.1055V11.1299ZM16.7215 11.1449C16.7215 11.0538 16.6853 10.9664 16.6209 10.902C16.5565 10.8376 16.4691 10.8014 16.378 10.8014H15.2261C15.181 10.8014 15.1363 10.8103 15.0946 10.8275C15.0529 10.8448 15.0151 10.8701 14.9832 10.902C14.9513 10.9339 14.926 10.9717 14.9087 11.0134C14.8915 11.0551 14.8826 11.0998 14.8826 11.1449V23.0905C14.8826 23.1816 14.9188 23.269 14.9832 23.3334C15.0476 23.3978 15.135 23.434 15.2261 23.434H16.378C16.4691 23.434 16.5565 23.3978 16.6209 23.3334C16.6853 23.269 16.7215 23.1816 16.7215 23.0905V11.1449Z" fill="#FF00FF"/>
</svg>
